<?xml version="1.0" encoding="utf-8"?>
<!-- Generator: Adobe Illustrator 24.0.1, SVG Export Plug-In . SVG Version: 6.00 Build 0)  -->
<svg version="1.1" id="レイヤー_1" xmlns="http://www.w3.org/2000/svg" xmlns:xlink="http://www.w3.org/1999/xlink" x="0px"
	 y="0px" viewBox="0 0 1722 359.9" style="enable-background:new 0 0 1722 359.9;" xml:space="preserve">
<style type="text/css">
	.st0{fill:#FFFFFF;}
	.st1{fill:#7BA23F;}
	.st2{fill-rule:evenodd;clip-rule:evenodd;fill:#FFFFFF;}
	.st3{fill-rule:evenodd;clip-rule:evenodd;fill:#7BA23F;}
</style>
<title>アセット 1</title>
<g id="レイヤー_1-2">
	<path class="st0" d="M580.8,236.2v24.6c-0.1,6.9-1.6,13.4-4.3,19.6c-2.3,5.3-5.8,9.7-10.2,13.1c-4.8,3.9-11.2,6.1-19.8,6.1
		c-8.6,0-15.2-2.2-19.9-6.1c-4.3-3.5-7.7-7.9-10-13.1c-2.8-6.1-4.2-12.7-4.3-19.6V155.4c0.1-6.7,1.6-13.3,4.3-19.2
		c2.2-5.3,5.6-10,10-13.4c4.8-3.6,11.4-6.1,19.9-6.1c12.8-0.8,24.8,6.9,30,19.4c2.8,6.1,4.2,12.6,4.3,19.2v24.6h-23.9v-24.6
		c0.3-4.1-1.2-8.2-3.8-11.2c-1.7-1.3-3.8-2.1-5.9-2c-4.5,0-6.6,3.4-7.8,6.6c-0.7,2.1-1.1,4.4-1.3,6.6v105.4
		c0.3,5.2,1.6,8.5,4.1,11.2c1.3,1.3,3.2,2,4.9,2c5.4,0,7.5-2.9,8.7-6.6c0.8-2.1,1.1-4.4,0.9-6.6v-24.6L580.8,236.2L580.8,236.2z"/>
	<path class="st0" d="M655.4,265.1c-0.8,12.8-4.5,21.9-12.8,28.9c-4.3,3.6-10.2,5.3-18,5.3c-15.5,0-23-8.8-26.7-17.5
		c-2.3-5.6-3.6-11.5-3.8-17.5v-66.9c0.8-12.8,4.5-22.3,12.8-29.7c4.1-3.6,10-5.3,17.8-5.3c15.5,0,23.1,8.8,27.1,17.4
		c2.3,5.3,3.6,11.2,3.8,17L655.4,265.1L655.4,265.1z M632.8,197.5c0.3-5.2-0.8-8.8-3-11.7c-1.5-1.3-3.3-2-5.2-2
		c-4.5,0-6.5,3.1-7.4,6.9c-0.8,2.1-1.1,4.5-0.8,6.9v66.9c-0.3,5.2,0.9,8.8,3,11.4c1.3,1.3,3.2,2,4.9,2c4.5,0,6.6-2.9,7.5-6.6
		c0.8-2.1,1.1-4.5,0.8-6.9L632.8,197.5L632.8,197.5z"/>
	<path class="st0" d="M732.8,297.5h-23.9v-8.8c-3.6,3.6-7.5,6.7-12.1,9.1c-2.1,1.2-4.5,1.7-7,1.7c-6.6,0-11.2-3.9-13.9-9.1
		c-3-5.2-4.6-11-4.5-17v-84.9c0-6.1,1.6-12.1,4.5-17.4c2.9-4.8,7.4-8.8,13.9-8.8c4.5,0,9.3,2.6,12.8,5.3c2.1,1.7,4.1,3.4,6.2,5.3
		v-54.4h23.9V297.5z M708.7,193.6c0-3.9-3.6-8-7.1-8c-3.6,0-6.5,3.4-6.5,8v74.7c0,4.5,2.9,8,6.5,8c4-0.3,7.1-3.6,7.1-8V193.6z"/>
	<path class="st0" d="M811.6,249.8v15.3c-0.8,12.8-4.5,21.9-13.1,28.9c-4.3,3.6-10.2,5.3-18,5.3c-15.5,0-23.1-8.8-27.1-17.5
		c-2.3-5.6-3.6-11.5-3.8-17.5v-66.9c0.8-12.8,4.8-22.3,13.3-29.7c4.1-3.6,10-5.3,17.8-5.3c15.5,0,23.1,8.8,27.1,17.4
		c2.3,5.3,3.6,11.2,3.8,17v38.6H772v28.9c0.3,5.2,1.6,8.8,3.8,11.4c1.3,1.3,3.2,2,4.9,2c4.5,0,6.6-2.9,7.5-6.6
		c0.8-2.2,1.1-4.5,0.9-6.9v-14.5L811.6,249.8L811.6,249.8z M772.2,216.3h17.3v-18.8c0-5.2-0.9-8.8-3.4-11.7c-1.5-1.3-3.3-2-5.2-2
		c-4.5,0-6.5,3.1-7.5,6.9c-0.8,2.2-1.2,4.5-1.3,6.9L772.2,216.3z"/>
	<path class="st0" d="M876,189.7c-2.2-0.7-4.4-1-6.6-0.9c-3.8,0-8.3,0.5-12.1,4.3c-4.5,3.9-5.2,8-5.2,12.2v92.6h-23.9V164.4h23.9
		v14.8c0.9-3.8,2.9-7.1,5.7-9.7c4.9-4.8,11.6-7.3,18.3-7L876,189.7L876,189.7z"/>
	<path class="st0" d="M886.5,297.5V118.7h20.1c23.7,0,36.6,4.8,43.5,18.4c6.6,13.6,7.7,36,7.7,70.9s-0.9,57.2-7.7,70.8
		c-7,13.6-19.6,18.4-43.5,18.4h-20.1V297.5z M912,271.2c8.7,0,13.7-0.9,16.4-9.7c1.3-4.3,2.1-10.5,2.3-19c0.3-8.5,0.3-19.9,0.3-34.6
		c0-14.7,0-26.1-0.3-34.6c-0.1-6.4-0.9-12.7-2.3-19c-2.6-8.5-7.7-9.3-16.4-9.3V271.2z"/>
	<path class="st0" d="M1034,265.1c-0.8,12.8-4.5,21.9-12.8,28.9c-4.3,3.6-10.2,5.3-18,5.3c-15.5,0-23-8.8-26.7-17.5
		c-2.3-5.6-3.6-11.5-3.8-17.5v-66.9c0.8-12.8,4.5-22.3,12.8-29.7c4.1-3.6,10-5.3,17.8-5.3c15.5,0,23.1,8.8,27.1,17.4
		c2.3,5.3,3.6,11.2,3.8,17L1034,265.1L1034,265.1z M1011.4,197.5c0.3-5.2-0.8-8.8-3-11.7c-1.5-1.3-3.3-2-5.2-2
		c-4.5,0-6.5,3.1-7.4,6.9c-0.8,2.1-1.1,4.5-0.8,6.9v66.9c-0.3,5.2,0.9,8.8,3,11.4c1.3,1.3,3.2,2,4.9,2c4.5,0,6.6-2.9,7.7-6.6
		c0.8-2.1,1.1-4.5,0.8-6.9L1011.4,197.5L1011.4,197.5L1011.4,197.5z"/>
	<path class="st0" d="M1074.1,164.4V301c0,6.9,0,17.5-3.4,26.3c-3.4,9.1-10.6,16.1-24.2,16.1c-2.8,0.1-5.4-0.1-8-0.8
		c-0.9-0.3-1.6-0.5-2.3-0.8v-22.7c0.8,0.3,1.5,0.3,2.1,0.5c1.5,0.4,3,0.4,4.5,0.5c4.1,0,5.9-3.4,7-7.6c0.3-2.1,0.4-4.1,0.5-6.2
		V164.5L1074.1,164.4L1074.1,164.4z M1050.1,118.6h23.9v24.6h-23.9V118.6z"/>
	<path class="st0" d="M1152.3,265.1c-0.8,12.8-4.5,21.9-12.8,28.9c-4.3,3.6-10.2,5.3-18,5.3c-15.5,0-23-8.8-26.7-17.5
		c-2.3-5.6-3.6-11.5-3.8-17.5v-66.9c0.8-12.8,4.5-22.3,12.8-29.7c4.1-3.6,10-5.3,17.8-5.3c15.5,0,23.1,8.8,27.1,17.4
		c2.3,5.3,3.6,11.2,3.8,17L1152.3,265.1L1152.3,265.1z M1129.7,197.5c0.3-5.2-0.8-8.8-3-11.7c-1.5-1.3-3.3-2-5.2-2
		c-4.5,0-6.5,3.1-7.4,6.9c-0.8,2.1-1.1,4.5-0.8,6.9v66.9c-0.3,5.2,0.9,8.8,3,11.4c1.3,1.3,3.2,2,4.9,2c4.5,0,6.6-2.9,7.5-6.6
		c0.8-2.1,1.1-4.5,0.8-6.9L1129.7,197.5L1129.7,197.5z"/>
	<path class="st0" d="M1231.3,118.6v62.5h0.9l1.3-2.9l21.4-59.5h25l-23.5,59l26.5,120.1h-25l-17.8-77.8l-0.8-3.6h-0.8l-1.5,3.6
		l-5.9,14.5v63.3h-25.7V118.6H1231.3z"/>
	<path class="st0" d="M1353.8,265.1c-0.8,12.8-4.5,21.9-12.8,28.9c-4.3,3.6-10.2,5.3-18,5.3c-15.5,0-23-8.8-26.7-17.5
		c-2.3-5.6-3.6-11.5-3.8-17.5v-66.9c0.8-12.8,4.5-22.3,12.8-29.7c4.1-3.6,10-5.3,17.8-5.3c15.5,0,23.1,8.8,27.1,17.4
		c2.3,5.3,3.6,11.2,3.8,17L1353.8,265.1L1353.8,265.1z M1331.4,197.5c0.3-5.2-0.8-8.8-3-11.7c-1.5-1.3-3.3-2-5.2-2
		c-4.5,0-6.5,3.1-7.4,6.9c-0.8,2.1-1.1,4.5-0.8,6.9v66.9c-0.3,5.2,0.9,8.8,3,11.4c1.3,1.3,3.2,2,4.9,2c4.5,0,6.6-2.9,7.5-6.6
		c0.8-2.1,1.1-4.5,0.8-6.9L1331.4,197.5L1331.4,197.5z"/>
	<path class="st0" d="M1394.8,297.5h-24V164.4h23.9v11.2c1.1-0.8,2-1.7,2.9-2.6c3.2-3.4,6.6-6.4,10.6-8.8c1.9-1.2,4-1.7,6.2-1.7
		c6.5,0,10.8,3.9,13.7,8.8c2.9,5.3,4.3,11.3,4.3,17.4v108.9h-23.9V192.3c0-5.2-2.9-6-5.7-6c-2.6,0-4.1,1.4-5.7,3.1
		c-0.8,1-1.5,2-2.1,3.1L1394.8,297.5L1394.8,297.5L1394.8,297.5z"/>
	<path class="st0" d="M1487,196c0.1-2.7-0.1-5.3-0.8-8c-0.9-2.6-3.3-4.4-5.9-4.3c-4.1,0-5.7,3.1-6.5,7c-0.3,2.1-0.4,4.1-0.5,6.2v6.2
		h-23.9v-5.5c0-9.3,3.3-18.2,9.3-25c5.9-6.9,14.3-10.6,23-10.5c7.5,0,14.8,3,20.3,8.5c5.7,5.6,8.8,13.4,8.7,21.5v82.1
		c-0.1,7.7,0.4,15.4,1.6,23.1H1489c-2.1-2.6-2.1-9.1-2.1-10.8h-1.6c-1.7,3.1-4,5.8-6.6,8c-3.7,2.9-8,4.5-12.7,4.5
		c-4.6,0-9-2.2-11.9-6.1c-4.1-4.5-7.4-12.8-7.4-26.7c0-14.8,4.3-25.6,10-32.8c5.7-7.2,12.8-11.9,18.8-15.1c5.9-3.1,10.6-5.3,11.4-8
		v-14.4L1487,196L1487,196z M1487,233.2c-11.6,5.2-16.6,17-16.6,29.7c0,2.5,0.4,5.1,1.3,7.4c0.9,2.9,2.6,5.2,5.4,5.2
		c5.4,0,10-3.4,10-8L1487,233.2L1487,233.2L1487,233.2z"/>
	<path class="st0" d="M1551.3,297.5h-23.9V164.4h23.9v11.2c1.1-0.8,2-1.7,2.9-2.6c3.2-3.4,6.6-6.4,10.6-8.8c1.9-1.2,4-1.7,6.2-1.7
		c6.5,0,10.8,3.9,13.7,8.8c2.9,5.3,4.3,11.3,4.3,20.6V301l-23.9-3.4V192.3c0-5.2-2.9-6-5.7-6c-2.6,0-4.1,1.4-5.7,3.1
		c-0.8,1-1.5,2-2.1,3.1v104.9H1551.3L1551.3,297.5z"/>
	<path class="st0" d="M559.4,91.3c-6.5,0.8-12.9,1.4-19.4,1.4c-8.2,0-15.9-1.1-19.1-2.8c-4.1-2.1-5.7-4.5-5.7-8.4
		c0-3.8,1.7-7.3,4.4-9.7l4.9,3.2c-2,2.2-2.7,3.9-2.7,5.9s1.1,3.2,3.5,4.2c2.4,0.8,8.6,1.6,14.3,1.6c6.2,0,12.4-0.5,18.7-1.4
		L559.4,91.3z M555.2,49.3v5.9h-34.4v-5.9H555.2z"/>
	<path class="st0" d="M616.1,92.8c-5.7,0.6-11.5,0.8-17.3,0.8c-5.9,0.1-11.8-0.4-17.7-1.4c-5.9-1.6-9.4-5.3-9.4-10.2
		c0-4.4,2-8,5.9-11.4c2.3-1.8,4.9-3.4,7.7-4.6c-2.8-6.2-5.2-12.6-7-19.2l6.2-1.6c1.7,6.2,3.8,12.3,6.1,18.3
		c6.1-2.8,12.4-5.1,18.8-6.9l2.8,5.3c-7.7,1.8-21.2,6.9-27.3,10.4c-4.2,2.4-6.9,5.9-6.9,9.1c0,2.5,1.6,4.2,4.6,5.3
		c2.5,0.8,7.4,1.3,13.9,1.3c6.2,0,12.4-0.4,18.7-1L616.1,92.8z M612.5,56.1c-1.4-3.4-3.2-6.7-5.6-9.6l4.2-1.4
		c2.2,2.9,4.1,6.2,5.7,9.5L612.5,56.1z M619.7,53.7c-1.4-3.5-3.2-6.9-5.6-9.7l4.1-1.4c2.3,2.8,4.2,5.9,5.6,9.4L619.7,53.7z"/>
	<path class="st0" d="M650.3,45.4l-1.4,7.7h16.8v5.3h-17.8l-1.4,8.7h16v5.3h-16.8c-0.5,2.5-0.7,5.1-0.8,7.7c0,2.9,0.7,4.5,2.4,5.9
		c2,1.7,5.2,2.5,9.3,2.5c8.3,0,12.8-3.1,12.8-8.9c-0.1-2.8-0.7-5.5-1.7-8l5.9-0.4c1.4,2.7,2.2,5.7,2.3,8.7c0,4.6-1.7,8.3-5.1,10.7
		c-3.4,2.4-8.7,3.8-14.3,3.8c-11.7,0-18-5-18-14c0-2.7,0.4-5.3,0.8-7.9h-10.6v-5.3h11.5l1.5-8.6h-12.4v-5.3h13.4l1.4-8.3L650.3,45.4
		z"/>
	<path class="st0" d="M713.6,88.5c11.1-2.7,16.6-8.7,16.6-18.4c0-6.7-3.1-12.4-8.4-15.2c-2-1.1-4.1-1.7-6.2-2.1
		c-1.7,12.9-4.1,21.3-8.3,29.2c-1.6,3.1-2.8,5-4.2,6.2c-1.7,1.8-4.1,2.9-6.5,3.1c-6.6,0-12.1-8-12.1-17.9c0.1-9.3,5-17.8,12.9-22.4
		c4.4-2.5,9.5-3.9,14.6-3.8c14.6,0,24.9,9.3,24.9,22.5c0,12.6-6.6,20.7-19.8,24.1L713.6,88.5z M709.3,52.6
		c-4.4,0.3-8.4,2.1-11.5,5.1c-4.4,4.1-6.9,9.6-6.9,15.6c0,5.9,2.5,11.5,5.5,11.5c1.4,0,2.7-1.3,4.5-4.2c4.1-6.9,6.9-16.3,8.3-27
		L709.3,52.6z"/>
	<path class="st0" d="M756.5,53.3c0.7-2.9,1-4.4,1.8-8.7l6.3,0.8c-0.6,2.5-1.1,5.6-1.8,7.9h18.7v5.5h-20.1
		c-3.7,14.3-7.9,26.8-12.5,36.1l-6.2-2.2c5.1-11,9.3-22.3,12.4-34h-11.8v-5.5C743.3,53.3,756.5,53.3,756.5,53.3z M793.2,93.5
		c-3.4,0.4-6.9,0.6-10.2,0.6c-5.6,0-11.1-0.6-13.9-1.6c-3.2-0.8-5.6-3.9-5.6-7.3c0.1-2.2,0.8-4.4,2.3-6.1l5,2.8
		c-0.6,0.6-0.8,1.4-0.8,2.4c0,1.3,0.7,2.3,1.8,2.8c3.1,0.7,6.2,1.1,9.4,1c3.8,0,7.6-0.3,11.4-0.8L793.2,93.5z M766.7,66.5
		c8-0.8,16-1.3,24.2-1.3l0.4,5.6c-8,0-16.8,0.5-23.6,1.1L766.7,66.5z"/>
	<path class="st0" d="M811.5,47.6c0.7,3.2,1.6,6.3,2.5,9.4c4.6-2.4,9.7-3.8,15-3.8c0.6-2.9,0.8-5.1,1.3-8.2l6.2,1.1
		c-0.5,2.8-0.8,5.5-1.3,7.7c3.7,0.6,7.2,2.3,9.8,4.9c3.9,3.7,6.1,8.9,5.9,14.2c0,7-2.3,12.2-6.9,15.7c-3.8,2.7-8.2,4.4-12.8,5
		l-2.9-5.1c4.1-0.6,8.2-2.2,11.5-4.5c3.1-2.4,4.5-6.1,4.5-11.4c0-6.9-3.7-11.7-10.4-13.6c-2.5,10.6-5.1,16.2-9.4,21.8
		c-5.1,6.7-11,10.7-15.7,10.7c-5.2,0-8.7-4.6-8.7-11.9c0.1-7.3,3.2-14.2,8.7-19c-0.8-2.5-2.3-7.2-3.2-11.1L811.5,47.6z M806.2,79
		c0,4.2,1.4,6.9,3.4,6.9c2.1,0,4.6-1.8,7.9-5.5c-2.5-4.5-4.8-9.4-6.6-14.3C807.7,70.4,806.2,74.4,806.2,79L806.2,79z M815.7,62.2
		c1.6,4.6,3.4,9,5.7,13.3c3.2-5.2,5.3-11,6.5-17C823.6,58.5,819.4,59.9,815.7,62.2L815.7,62.2z"/>
	<path class="st0" d="M886.8,88.5c11.1-2.7,16.6-8.7,16.6-18.4c0-6.7-3.1-12.4-8.4-15.2c-2-1.1-4.1-1.7-6.2-2.1
		c-1.8,12.9-4.1,21.3-8.3,29.2c-1.6,3.1-2.8,5-4.2,6.2c-1.7,1.8-4.1,2.9-6.5,3.1c-6.6,0-12.1-8-12.1-17.9c0.1-9.3,5-17.8,12.9-22.4
		c4.4-2.5,9.5-3.9,14.6-3.8c14.6,0,24.9,9.3,24.9,22.5c0,12.6-6.6,20.7-19.8,24.1L886.8,88.5z M882.6,52.6
		c-4.4,0.3-8.4,2.1-11.5,5.1c-4.4,4.1-6.9,9.6-6.9,15.6c0,5.9,2.5,11.5,5.5,11.5c1.4,0,2.7-1.3,4.5-4.2c4.1-6.9,6.9-16.3,8.3-27
		L882.6,52.6z"/>
	<path class="st0" d="M953.6,52.2l6.9,6.1c-1.8,21.6-10.7,31.5-33.9,36.4l-3.2-5.6c20.8-3.2,29.7-12.5,30.2-31.3h-36.4v-5.6
		L953.6,52.2L953.6,52.2z M970.4,49.3c0,3.9-3.2,7-7,7c-3.9,0-7-3.2-7-7s3.2-7,7-7C967.2,42.3,970.4,45.5,970.4,49.3z M959.7,49.3
		c0,2.1,1.6,3.7,3.7,3.7c2.1,0,3.7-1.6,3.7-3.7c-0.1-2-1.7-3.5-3.7-3.5C961.4,45.9,959.8,47.5,959.7,49.3z"/>
	<path class="st0" d="M1021.5,49.8v42h-44.2v-42H1021.5z M983.9,86h31V55.7h-31V86z"/>
	<path class="st0" d="M1075.8,57.7c-4.2,20.7-14,31.2-34.8,37.1l-3.5-5.6c17.9-4.1,28.2-14.2,31.8-30.9h-18.7
		c-3.7,5.2-8.2,9.7-13.5,13.2l-4.5-4.5c8.9-5.5,14.6-12.5,17.9-21.8l5.9,1.6c-0.7,2.1-1.6,4.1-2.5,5.9h16.7L1075.8,57.7z
		 M1072.5,53.3c-1.3-3.2-2.9-6.3-5-9.1l4.8-1c2.2,2.7,3.9,5.7,5.1,9L1072.5,53.3z M1081.1,53c-1.3-3.4-2.9-6.7-5-9.6l4.6-0.8
		c2.1,2.8,3.8,5.9,5,9.3L1081.1,53z"/>
	<path class="st0" d="M1138.4,61c-2.2,21.8-11,30.6-34.1,33.6l-2.8-5.6c8-0.7,14.7-2.5,19.2-5.6c5.7-3.8,9.4-10.1,9.8-16.9h-39v-5.6
		L1138.4,61L1138.4,61z M1132.7,47.6v5.7h-37.1v-5.6L1132.7,47.6L1132.7,47.6z"/>
	<path class="st0" d="M1191.9,94.7c-14.3-4.2-29.7-8.2-42-10.7l1.3-6.2c14.2,2.8,28,6.3,41.7,10.7L1191.9,94.7z M1190.8,59.2
		c-11.7-3.2-23.5-5.9-35.4-7.7l1-5.9c11.9,1.7,23.7,4.1,35.3,7.6L1190.8,59.2z M1187.6,75.1c-10.4-3.2-20.9-5.6-31.6-7.4l1-5.9
		c10.6,1.7,21.2,4.1,31.5,7.4L1187.6,75.1z"/>
	<path class="st0" d="M1227.3,60c-5.9-2.5-12.2-4.6-18.5-6.1l2-5.9c6.5,1.4,12.8,3.4,18.7,6.1L1227.3,60z M1209.5,87
		c24.5-1.6,35.4-10.8,39.7-33.4l5.5,3.9c-4.9,23.6-16.9,33.6-43.7,36.1L1209.5,87z"/>
	<path class="st0" d="M1306.7,57.7c-4.2,20.7-14,31.2-34.8,37.1l-3.5-5.6c17.9-4.2,28.2-14.3,31.8-30.9h-18.7
		c-3.7,5.2-8.2,9.7-13.5,13.2l-4.5-4.5c8.9-5.5,14.6-12.5,17.9-21.8l5.9,1.6c-0.7,2.1-1.6,4.1-2.5,5.9h16.7L1306.7,57.7z
		 M1303.5,53.3c-1.3-3.2-2.9-6.3-5-9.1l4.8-1c2.2,2.7,3.9,5.7,5.1,9L1303.5,53.3z M1311.9,53c-1.3-3.4-2.9-6.7-5-9.6l4.8-0.8
		c2.1,2.8,3.8,5.9,5,9.3L1311.9,53z"/>
	<path class="st0" d="M1332,83.9c4.2,4.5,8.9,6.2,18.4,6.2h23.6c-0.7,1.7-1.4,3.5-1.7,5.5H1349c-10-0.3-14.5-1.8-19.1-6.7
		c-2.4,3.1-5.3,5.9-8.7,8l-3.4-5.5c2.9-1.6,5.6-3.5,8.2-5.7V71.7h-7.7v-5.3h13.6L1332,83.9z M1328.1,58.5c-2.4-3.8-5.3-7.3-8.7-10.5
		l4.6-3.5c3.4,3.1,6.3,6.3,9,10L1328.1,58.5z M1334.6,54.7v-4.6h9c-1.3-2-1.8-2.7-3.2-4.5l5.6-2c1.4,2.1,2.7,4.2,3.8,6.5h7.3
		c1.1-2.2,2-4.4,2.7-6.6l6.2,1.3c-0.8,1.7-1.8,3.5-2.8,5.3h9.4v4.6H1356c-0.7,2-0.8,2.2-1.4,4.1h14.5v28.1h-30.8V58.6h10.5
		c0.5-1.4,1-2.7,1.4-4.1L1334.6,54.7L1334.6,54.7z M1343.8,66.8h19.1v-4.1h-19.1V66.8z M1343.8,74.6h19.1v-4.1h-19.1V74.6z
		 M1343.8,82.8h19.1v-4.2h-19.1V82.8z"/>
	<path class="st0" d="M1419.5,78.7c-2.7,7.3-7.8,13.4-14.6,17.1l-4.1-3.2c5.9-3.1,10.5-7.8,13.3-13.8h-4.1
		c-3.8,6.7-9.6,11.9-16.6,14.9l-3.5-3.5c6.2-2.5,11.4-6.5,14.6-11.2h-3.8c-1.6,1.6-3.2,3.1-5.2,4.1l-3.2-2.9
		c-4.8,2.9-9.8,5.3-15.1,7.3l-2.1-5.6c2.5-0.8,4.2-1.4,7.7-2.5V60.7h-6.6v-5.5h6.6V43.7h5.9v11.5h5.6v5.5h-5.6v16
		c1.8-0.8,2.7-1.3,5.2-2.5l0.8,3.4c2.3-1.7,4.1-3.8,5.7-6.2h-7.9v-4.5h38.6v4.5h-24.6c-0.5,0.8-1.1,2-2,3.1h24.5
		c-0.5,8.9-1.1,15.6-2.2,18.7c-0.8,2.7-2.5,3.7-6.5,3.7c-2,0-3.8-0.1-5.7-0.4l-1-5.2c1.7,0.4,3.5,0.5,5.2,0.6c1.8,0,2.3-0.4,2.7-2.1
		c0.8-3.5,1.3-7.2,1.4-10.8L1419.5,78.7z M1426,64h-29V45.3h29V64z M1402.7,52.7h17.8v-3.2h-17.8V52.7z M1402.7,59.9h17.8v-3.2
		h-17.8V59.9z"/>
	<g id="桃">
		<g id="葉っぱ">
			<g id="path64">
				<path class="st0" d="M288.5,297.5c-2.3,0.6-4.7,1.2-7,2.1c16.3-19.9,34.9-29.9,53.9-33.5c19.9-3.6,40,0,58.5,7
					c13.6,5.3,26.5,12.2,38.5,20.5c10.4,7.1,20,15.2,28.7,24.4c-0.7,0.2-1.2,0.5-1.8,0.7c-11.4,4.3-22.1,8.1-32,11.2
					c-22.8,7.1-42,11.4-58.4,13.3c-52.5,5.9-75.1-13.6-87.6-43.2l0.4-0.5C283.8,298.8,286.2,298.1,288.5,297.5z M322.6,292.3
					c2.3-0.1,4.7-0.2,7-0.2C327.3,292.1,324.9,292.2,322.6,292.3z M332.2,292.1L332.2,292.1z M340.4,292.2c1.6,0,3.3,0.1,5,0.2
					C343.7,292.3,342,292.2,340.4,292.2L340.4,292.2z M348.4,292.5l4.4,0.4L348.4,292.5z M378.2,296c2.2,0.4,4.4,0.7,6.6,1.2
					C382.6,296.8,380.5,296.3,378.2,296L378.2,296z M356,293.2c1.5,0.1,3.1,0.2,4.5,0.5C358.9,293.4,357.5,293.3,356,293.2
					L356,293.2z M363.3,293.9c1.6,0.2,3.2,0.4,4.7,0.6C366.5,294.3,365.1,294.1,363.3,293.9L363.3,293.9z M370.8,294.9
					c1.6,0.2,3.3,0.5,5,0.7C374.3,295.4,372.4,295.1,370.8,294.9L370.8,294.9z M387.3,297.7c1.5,0.2,2.8,0.6,4.4,0.9
					C390.1,298.2,388.8,297.9,387.3,297.7L387.3,297.7z M394.4,299.2c1.5,0.2,2.8,0.6,4.2,1C397.2,299.8,395.7,299.4,394.4,299.2
					L394.4,299.2z M400.9,300.6c1.7,0.4,3.4,0.9,5.3,1.2C404.3,301.5,402.6,301,400.9,300.6L400.9,300.6z M423.1,306.4l0.5,0.1
					l-0.4-0.1H423.1z M412.3,303.3l1.1,0.4c-0.4-0.2-0.7-0.2-1.2-0.2L412.3,303.3z M417.7,304.8l0.5,0.1L417.7,304.8z M428.3,307.9
					l0.5,0.1L428.3,307.9z M455.2,317.1c0.2,0.1,0.5,0.2,0.9,0.2c-0.2,0-0.6,0-0.9-0.1V317.1z M438.2,311l0.5,0.1L438.2,311z
					 M447.2,314.1c0.2,0.1,0.5,0.1,0.6,0.2c-0.1,0-0.4,0.1-0.6-0.1V314.1z M296.8,295.5c-2.3,0.5-4.7,1-7,1.6
					C292.2,296.5,294.5,296,296.8,295.5z M321.6,292.3c-2.5,0.1-4.8,0.4-7.1,0.5C316.8,292.7,319.3,292.4,321.6,292.3z M312.8,293
					c-2.3,0.2-4.8,0.5-7.1,0.9C308,293.6,310.5,293.4,312.8,293L312.8,293z M304.6,294.1l-6.4,1.1L304.6,294.1z"/>
			</g>
			<g id="path641">
				<path class="st0" d="M281.2,296.8c2.3,0.6,4.7,1.4,7,2.1c-16.3-19.9-34.9-29.9-53.9-33.5c-19.9-3.6-40,0-58.5,7
					c-13.6,5.3-26.5,12.2-38.5,20.5c-10.4,7.1-20,15.2-28.7,24.4c0.7,0.2,1.2,0.5,1.8,0.7c11.4,4.3,22.1,8.1,32,11.2
					c22.8,7.1,42,11.4,58.4,13.3c52.5,5.9,75.1-13.5,87.6-43.2l-0.4-0.5C285.9,298.2,283.6,297.5,281.2,296.8z M247.2,291.7
					c-2.3-0.1-4.7-0.2-7-0.2C242.6,291.4,244.9,291.6,247.2,291.7L247.2,291.7z M237.5,291.4L237.5,291.4z M229.4,291.6
					c-1.6,0-3.3,0.1-5,0.2C226,291.7,227.9,291.6,229.4,291.6z M221.3,291.9l-4.4,0.4L221.3,291.9z M191.6,295.4
					c-2.2,0.4-4.4,0.7-6.6,1.2C187.2,296.2,189.3,295.7,191.6,295.4L191.6,295.4z M213.9,292.5c-1.5,0.1-3.1,0.2-4.5,0.5
					C210.8,292.8,212.3,292.7,213.9,292.5L213.9,292.5z M206.4,293.3c-1.6,0.2-3.2,0.4-4.7,0.6C203.2,293.6,204.8,293.5,206.4,293.3
					L206.4,293.3z M198.9,294.3c-1.6,0.2-3.3,0.5-5,0.7C195.6,294.8,197.3,294.5,198.9,294.3L198.9,294.3z M182.6,297.1
					c-1.5,0.2-2.8,0.6-4.4,0.9C179.6,297.6,181,297.3,182.6,297.1L182.6,297.1z M175.4,298.6c-1.5,0.2-2.8,0.6-4.2,1
					C172.6,299,174,298.8,175.4,298.6L175.4,298.6z M168.9,299.9c-1.7,0.4-3.4,0.9-5.3,1.2C165.4,300.8,167.1,300.4,168.9,299.9
					L168.9,299.9z M146.7,305.7l-0.5,0.1L146.7,305.7L146.7,305.7z M157.4,302.9c-0.4,0.1-0.9,0.2-1.1,0.4
					C156.7,303,157,302.9,157.4,302.9z M152,304.3l-0.5,0.1L152,304.3z M141.5,307.4l-0.5,0.1L141.5,307.4z M114.6,316.6
					c-0.2,0.1-0.5,0.2-0.9,0.2C114,316.7,114.4,316.7,114.6,316.6z M131.6,310.6l-0.5,0.1L131.6,310.6z M122.6,313.7
					c-0.2,0.1-0.5,0.1-0.6,0.2C122.2,313.8,122.4,313.8,122.6,313.7z M272.9,294.9c2.3,0.5,4.7,1,7,1.6
					C277.6,295.9,275.2,295.4,272.9,294.9z M248.1,291.7c2.5,0.1,4.8,0.4,7.1,0.5C252.9,292.1,250.4,291.8,248.1,291.7z
					 M256.9,292.4c2.3,0.2,4.8,0.5,7.1,0.9C261.7,292.9,259.3,292.7,256.9,292.4L256.9,292.4z M265.2,293.4l6.4,1.1L265.2,293.4z"/>
			</g>
		</g>
		<g id="実">
			<g id="path74-7">
				<path class="st0" d="M109,105.5c35.6,27.4-16.8,77.7,34.5,147.9c68.7,94.1,170.6,62.7,176.9,9
					C325.4,218.9,264.3,161.5,109,105.5z"/>
			</g>
			<g id="path74-71">
				<path class="st0" d="M460.8,105.5c-35.6,27.4,16.8,77.7-34.5,147.9c-68.7,94-170.6,62.7-177,9
					C244.3,218.9,305.4,161.5,460.8,105.5z"/>
			</g>
		</g>
	</g>
	<g id="ロゴ本体">
		<g id="g100">
			<ellipse id="circle13" class="st1" cx="286.2" cy="165.4" rx="130.1" ry="136.1"/>
			<path id="path15" class="st2" d="M284.9,28.6c73.3,0,132.8,62.2,132.8,138.7c0,76.7-59.5,138.8-132.8,138.8
				s-132.8-62.3-132.8-138.7C152,90.5,211.4,28.6,284.9,28.6z M283.6,35.7h-1.9c-68.6,1-124,59.6-124,131.5s55.6,130.7,124.4,131.6
				c-34-0.7-61.4-30.1-61.4-65.8c0-36.5,28.2-65.9,63-65.9s63.1-29.5,63.1-65.8C346.4,65,318.3,35.7,283.6,35.7z"/>
			<path id="path17" class="st2" d="M265.5,112.5V63.4c0-2.1,0.9-4.2,2.3-5.5c1.4-1.5,3.3-2.3,5.3-2.3h24.4c2,0,3.9,0.9,5.3,2.3
				c1.5,1.5,2.2,3.6,2.2,5.5v49.1c0,2.1-0.7,4.1-2.2,5.5c-1.5,1.5-3.3,2.3-5.4,2.3h-24.3c-2.1,0-4.1-0.9-5.4-2.3
				C266.3,116.5,265.5,114.6,265.5,112.5z M297.8,112l-1-48.5L273,64l1,48.5L297.8,112z"/>
			<path id="path19" class="st3" d="M274.6,260.8h12v-48.5h-11.9c-1.1,0-2.1-0.4-2.8-1.1c-1.6-1.7-1.6-4.3,0-6
				c0.7-0.7,1.8-1.2,2.8-1.2h19.8v56.5h7.9v-17.1c0-1.1,0.4-2.1,1.1-2.8s1.8-1.2,2.8-1.2c1.1,0,2.1,0.4,2.8,1.2
				c0.7,0.7,1.2,1.8,1.1,2.9v21.1c0,1.1-0.4,2.2-1.1,2.9c-0.7,0.7-1.8,1.2-2.8,1.1h-31.7c-1.1,0-2.1-0.5-2.8-1.1
				c-0.7-0.7-1.2-1.8-1.1-2.9c0-1.1,0.4-2.1,1.1-2.8C272.5,261.1,273.5,260.8,274.6,260.8z"/>
		</g>
	</g>
	<g id="文字">
		<g>
			<g>
				<path class="st0" d="M184.8,117.8V131h0.3l0.3-0.7l5.2-12.5h6.1l-5.9,12.4l6.5,25.3h-6.1l-4.4-16.5l-0.1-0.8h-0.1l-0.4,0.8
					l-1.6,3v13.3h-6v-37.6L184.8,117.8L184.8,117.8z"/>
				<path class="st0" d="M215.3,148.6c0.1,3.9-2.9,7.2-6.8,7.3c-0.3,0-0.5,0-0.9,0c-2.7,0.3-5.4-1.2-6.7-3.7
					c-0.5-1.2-0.9-2.4-0.9-3.7v-14.2c0-2.5,1.2-4.8,3.1-6.3c1.3-0.8,2.9-1.2,4.4-1.2c2.7-0.3,5.4,1.2,6.7,3.7
					c0.5,1.2,0.9,2.4,0.9,3.5L215.3,148.6z M209.6,134.4c0.1-0.9-0.1-1.8-0.8-2.5c-0.4-0.3-0.8-0.4-1.3-0.4c-0.9,0-1.7,0.5-1.8,1.4
					c-0.1,0.4-0.3,0.9-0.1,1.4v14.1c-0.1,0.9,0.1,1.7,0.8,2.4c0.4,0.3,0.8,0.4,1.2,0.4c0.9,0.1,1.7-0.5,1.8-1.4
					c0.1-0.4,0.3-0.9,0.1-1.4L209.6,134.4z"/>
			</g>
			<g>
				<path class="st0" d="M225.2,155.5h-5.9v-28.1h5.9v2.4c0.3-0.1,0.5-0.4,0.7-0.5c0.8-0.8,1.7-1.3,2.6-1.8c0.5-0.3,1-0.4,1.6-0.4
					c1.4,0,2.6,0.7,3.4,1.8c0.7,1,1,2.4,1,3.7v23h-5.9v-22.3c0-1-0.7-1.2-1.4-1.2c-0.5,0-1,0.3-1.4,0.7c-0.1,0.3-0.4,0.4-0.5,0.7v22
					H225.2z"/>
			</g>
			<g>
				<path class="st0" d="M247.6,134.1c0-0.5,0-1.2-0.1-1.7c-0.3-0.5-0.9-0.9-1.6-0.9c-1,0-1.4,0.7-1.6,1.6c-0.1,0.4-0.1,0.9-0.1,1.3
					v1.3h-5.9v-1.2c0-2,0.8-3.9,2.4-5.2c1.6-1.4,3.5-2.2,5.7-2.2c1.8,0,3.7,0.7,5.1,1.8c1.4,1.2,2.2,2.7,2.2,4.6v17.2
					c0,1.7,0.1,3.3,0.4,4.8h-5.9c-0.4-0.7-0.5-1.4-0.5-2.2h-0.5c-0.4,0.7-1,1.3-1.7,1.7c-0.9,0.7-2,0.9-3,0.9
					c-1.2,0-2.2-0.5-2.9-1.3c-1.3-1.6-2-3.7-1.8-5.6c-0.1-2.5,0.8-5,2.5-6.9c1.3-1.3,2.9-2.5,4.6-3.1c1.6-0.7,2.6-1.2,2.9-1.7
					L247.6,134.1z M247.6,141.9c-2.6,0.9-4.3,3.5-4,6.3c0,0.5,0.1,1,0.3,1.6c0.1,0.7,0.8,1,1.3,1c1.3,0,2.5-0.7,2.5-1.7v-7.2H247.6z
					"/>
			</g>
			<g>
				<path class="st0" d="M263.3,155.5h-5.9v-28.1h5.9v2.4c0.3-0.1,0.5-0.4,0.7-0.5c0.8-0.8,1.7-1.3,2.6-1.8c0.5-0.3,1-0.4,1.6-0.4
					c1.4,0,2.6,0.7,3.4,1.8c0.7,1,1,2.4,1,3.7v23h-5.9v-22.3c0-1-0.7-1.2-1.4-1.2c-0.5,0-1,0.3-1.4,0.7c-0.1,0.3-0.4,0.4-0.5,0.7v22
					H263.3z"/>
			</g>
		</g>
		<g>
			<path class="st1" d="M365,186.1c0,1.7-0.4,2.6-1.6,3c-2.1,0.5-4.2,0.7-6.3,0.5c-0.3-0.9-0.5-1.8-1-2.6c2.4,0.1,4.4,0,5.1,0
				s0.9-0.3,0.9-0.9v-27.6h-26.4v31.1h-2.9v-33.8h32.1L365,186.1L365,186.1z M355.4,184.6v-2.1h-13.1v2.6h-2.5v-13.2h2.5v8h5.2v-11
				h-9.8v-2.5h22.9v2.5h-10.4v11h5.2v-8h2.5v12.7H355.4z M342.7,159.4c1.4,1.8,2.4,3.8,3,6l-2.5,0.9c-0.7-2.2-1.6-4.3-2.9-6.1
				L342.7,159.4z M357.5,160c-1,2.2-2.2,4.3-3.5,6.4l-2.2-0.8c1.2-2.1,2.2-4.2,2.9-6.4L357.5,160z"/>
			<path class="st1" d="M389.6,160.5v4.2h13.5v21.7c0,1.7-0.4,2.5-1.7,3c-2.2,0.5-4.4,0.7-6.7,0.5c-0.3-0.9-0.7-1.8-1-2.6
				c2.5,0.1,4.8,0.1,5.5,0s0.9-0.3,0.9-0.9v-18.9h-24.2v22.2H373v-25.2h13.3v-4.2h-15.4v-2.7h15.4v-3.9h3.1v3.9h15.5v2.7
				L389.6,160.5z M389.2,182.2v6.8h-2.7v-6.8h-8.4v-2.5h8.4v-3.9h-7.6v-2.5H390c1-1.8,2-3.7,2.7-5.5l2.5,0.7
				c-0.9,1.7-1.7,3.4-2.6,4.8h4.7v2.4h-8.1v3.9h8.7v2.5L389.2,182.2z M383.2,167.9c1,1.4,1.8,3,2.5,4.6l-2.4,0.9
				c-0.5-1.7-1.4-3.3-2.4-4.7L383.2,167.9z"/>
		</g>
	</g>
</g>
</svg>
