<?xml version="1.0" encoding="utf-8"?>
<!-- Generator: Adobe Illustrator 24.0.1, SVG Export Plug-In . SVG Version: 6.00 Build 0)  -->
<svg version="1.1" id="レイヤー_1" xmlns="http://www.w3.org/2000/svg" xmlns:xlink="http://www.w3.org/1999/xlink" x="0px"
	 y="0px" viewBox="0 0 1136.4 237.5" style="enable-background:new 0 0 1136.4 237.5;" xml:space="preserve">
<style type="text/css">
	.st0{fill:#FFFFFF;}
	.st1{fill:#7BA23F;}
	.st2{fill-rule:evenodd;clip-rule:evenodd;fill:#FFFFFF;}
	.st3{fill-rule:evenodd;clip-rule:evenodd;fill:#7BA23F;}
</style>
<title>アセット 1</title>
<g id="レイヤー_1-2">
	<path class="st0" d="M277.6,153.9v22c-0.1,6.1-1.5,12-4.1,17.5c-2.2,4.7-5.5,8.7-9.7,11.7c-4.5,3.5-10.6,5.4-18.8,5.4
		c-8.2,0-14.4-2-18.9-5.4c-4.1-3.1-7.3-7.1-9.5-11.7c-2.6-5.5-4-11.4-4.1-17.5V81.7c0.1-6,1.5-11.9,4.1-17.2c2.1-4.8,5.3-8.9,9.5-12
		c4.5-3.3,10.8-5.4,18.9-5.4c12.2-0.7,23.6,6.2,28.5,17.4c2.6,5.4,4,11.3,4.1,17.2v21.9h-22.7v-22c0.2-3.7-1.1-7.3-3.6-10
		c-1.6-1.2-3.6-1.9-5.6-1.8c-4.3,0-6.3,3-7.4,5.9c-0.6,1.9-1,3.9-1.2,5.9v94.3c0.2,4.6,1.5,7.6,3.9,10c1.3,1.2,3,1.8,4.7,1.8
		c5.2,0,7.2-2.6,8.3-5.9c0.7-1.9,1-3.9,0.9-5.9v-22h22.7V153.9z"/>
	<path class="st0" d="M348.5,179.8c-0.7,11.5-4.3,19.6-12.2,25.9c-4.1,3.3-9.7,4.8-17.1,4.8c-14.7,0-21.8-7.9-25.4-15.7
		c-2.2-5-3.4-10.3-3.6-15.7v-59.9c0.7-11.5,4.3-20,12.2-26.6c3.9-3.3,9.5-4.8,16.9-4.8c14.7,0,22,7.9,25.7,15.5
		c2.2,4.8,3.4,10,3.6,15.2L348.5,179.8L348.5,179.8z M327,119.3c0.2-4.6-0.7-7.9-2.9-10.4c-1.4-1.2-3.1-1.8-4.9-1.8
		c-4.3,0-6.1,2.8-7,6.1c-0.7,1.9-1,4-0.7,6.1v59.9c-0.2,4.6,0.9,7.9,2.9,10.2c1.3,1.2,3,1.8,4.7,1.8c4.3,0,6.3-2.6,7.2-5.9
		c0.7-1.9,1-4,0.7-6.1v-59.9L327,119.3z"/>
	<path class="st0" d="M422,208.8h-22.7v-7.9c-3.4,3.3-7.2,6-11.5,8.1c-2,1-4.3,1.5-6.6,1.5c-6.3,0-10.6-3.5-13.2-8.1
		c-2.9-4.6-4.4-9.9-4.3-15.2v-76c0-5.5,1.5-10.8,4.3-15.5c2.7-4.3,7-7.9,13.2-7.9c4.3,0,8.8,2.3,12.2,4.8c2,1.5,3.9,3,5.9,4.8V48.7
		H422V208.8z M399.1,115.8c0-3.5-3.4-7.2-6.8-7.2c-3.4,0-6.1,3-6.1,7.2v66.8c0,4.1,2.7,7.2,6.1,7.2c3.8-0.2,6.8-3.3,6.8-7.2V115.8z"
		/>
	<path class="st0" d="M496.9,166.1v13.7c-0.7,11.5-4.3,19.6-12.4,25.9c-4.1,3.3-9.7,4.8-17.1,4.8c-14.7,0-22-7.9-25.7-15.7
		c-2.2-5-3.4-10.3-3.6-15.7v-59.9c0.7-11.5,4.5-20,12.7-26.6c3.9-3.3,9.5-4.8,16.9-4.8c14.7,0,22,7.9,25.7,15.5
		c2.2,4.8,3.4,10,3.6,15.2v34.6h-37.6V179c0.2,4.6,1.5,7.9,3.6,10.2c1.3,1.2,3,1.8,4.7,1.8c4.3,0,6.3-2.6,7.2-5.9c0.7-2,1-4,0.9-6.1
		v-13h21.2L496.9,166.1z M459.4,136.1h16.4v-16.8c0-4.6-0.9-7.9-3.2-10.4c-1.4-1.2-3.1-1.8-4.9-1.8c-4.3,0-6.1,2.8-7.2,6.1
		c-0.7,2-1.1,4-1.2,6.1L459.4,136.1z"/>
	<path class="st0" d="M558,112.3c-2.1-0.6-4.2-0.9-6.3-0.8c-3.6,0-7.9,0.5-11.5,3.8c-4.3,3.5-4.9,7.2-4.9,10.9v82.8h-22.7V89.7h22.7
		v13.2c0.9-3.4,2.8-6.4,5.4-8.7c4.7-4.3,11-6.5,17.4-6.3L558,112.3L558,112.3z"/>
	<path class="st0" d="M568,208.8v-160h19.1c22.5,0,34.7,4.3,41.3,16.5c6.3,12.2,7.3,32.2,7.3,63.5s-0.9,51.2-7.3,63.4
		c-6.6,12.2-18.6,16.5-41.3,16.5H568z M592.2,185.3c8.3,0,13-0.8,15.6-8.7c1.2-3.8,2-9.4,2.2-17c0.2-7.6,0.2-17.8,0.2-31
		s0-23.3-0.2-31c-0.1-5.7-0.9-11.4-2.2-17c-2.5-7.6-7.3-8.4-15.6-8.4V185.3z"/>
	<path class="st0" d="M708.1,179.8c-0.7,11.5-4.3,19.6-12.2,25.9c-4.1,3.3-9.7,4.8-17.1,4.8c-14.7,0-21.8-7.9-25.4-15.7
		c-2.2-5-3.4-10.3-3.6-15.7v-59.9c0.7-11.5,4.3-20,12.2-26.6c3.9-3.3,9.5-4.8,16.9-4.8c14.7,0,22,7.9,25.7,15.5
		c2.2,4.8,3.4,10,3.6,15.2L708.1,179.8L708.1,179.8z M686.6,119.3c0.2-4.6-0.7-7.9-2.9-10.4c-1.4-1.2-3.1-1.8-4.9-1.8
		c-4.3,0-6.1,2.8-7,6.1c-0.7,1.9-1,4-0.7,6.1v59.9c-0.2,4.6,0.9,7.9,2.9,10.2c1.3,1.2,3,1.8,4.7,1.8c4.3,0,6.3-2.6,7.3-5.9
		c0.7-1.9,1-4,0.7-6.1V119.3z"/>
	<path class="st0" d="M746.2,89.7v122.2c0,6.1,0,15.7-3.2,23.6c-3.2,8.1-10.1,14.4-23,14.4c-2.6,0.1-5.1-0.1-7.6-0.7
		c-0.9-0.2-1.5-0.5-2.2-0.7v-20.3c0.7,0.2,1.4,0.2,2,0.5c1.4,0.3,2.9,0.4,4.3,0.5c3.9,0,5.6-3,6.6-6.8c0.3-1.9,0.4-3.7,0.5-5.6v-127
		H746.2z M723.4,48.7h22.7v22h-22.7V48.7z"/>
	<path class="st0" d="M820.5,179.8c-0.7,11.5-4.3,19.6-12.2,25.9c-4.1,3.3-9.7,4.8-17.1,4.8c-14.7,0-21.8-7.9-25.4-15.7
		c-2.2-5-3.4-10.3-3.6-15.7v-59.9c0.7-11.5,4.3-20,12.2-26.6c3.9-3.3,9.5-4.8,16.9-4.8c14.7,0,22,7.9,25.7,15.5
		c2.2,4.8,3.4,10,3.6,15.2L820.5,179.8L820.5,179.8z M799,119.3c0.2-4.6-0.7-7.9-2.9-10.4c-1.4-1.2-3.1-1.8-4.9-1.8
		c-4.3,0-6.1,2.8-7,6.1c-0.7,1.9-1,4-0.7,6.1v59.9c-0.2,4.6,0.9,7.9,2.9,10.2c1.3,1.2,3,1.8,4.7,1.8c4.3,0,6.3-2.6,7.2-5.9
		c0.7-1.9,1-4,0.7-6.1v-59.9L799,119.3z"/>
	<path class="st0" d="M895.5,48.7v55.9h0.9l1.2-2.6l20.3-53.3h23.7l-22.3,52.8l25.2,107.4h-23.7l-16.9-69.6l-0.7-3.3h-0.7l-1.4,3.3
		l-5.6,13v56.6h-24.4V48.7H895.5z"/>
	<path class="st0" d="M1011.9,179.8c-0.7,11.5-4.3,19.6-12.2,25.9c-4.1,3.3-9.7,4.8-17.1,4.8c-14.7,0-21.8-7.9-25.4-15.7
		c-2.2-5-3.4-10.3-3.6-15.7v-59.9c0.7-11.5,4.3-20,12.2-26.6c3.9-3.3,9.5-4.8,16.9-4.8c14.7,0,22,7.9,25.7,15.5
		c2.2,4.8,3.4,10,3.6,15.2L1011.9,179.8L1011.9,179.8z M990.6,119.3c0.2-4.6-0.7-7.9-2.9-10.4c-1.4-1.2-3.1-1.8-4.9-1.8
		c-4.3,0-6.1,2.8-7,6.1c-0.7,1.9-1,4-0.7,6.1v59.9c-0.2,4.6,0.9,7.9,2.9,10.2c1.3,1.2,3,1.8,4.7,1.8c4.3,0,6.3-2.6,7.2-5.9
		c0.7-1.9,1-4,0.7-6.1v-59.9L990.6,119.3z"/>
	<path class="st0" d="M1050.8,208.8H1028V89.7h22.7v10c1-0.7,1.9-1.5,2.7-2.3c3-3,6.3-5.7,10-7.9c1.8-1,3.8-1.5,5.9-1.5
		c6.1,0,10.3,3.5,13,7.9c2.7,4.7,4.1,10.1,4.1,15.5v97.5h-22.7v-94.3c0-4.6-2.7-5.3-5.4-5.3c-2.5,0-3.9,1.3-5.4,2.8
		c-0.8,0.9-1.4,1.8-2,2.8v93.9H1050.8z"/>
	<path class="st0" d="M1138.4,118c0.1-2.4-0.1-4.8-0.7-7.2c-0.9-2.3-3.1-3.9-5.6-3.8c-3.9,0-5.4,2.8-6.1,6.3
		c-0.3,1.9-0.4,3.7-0.5,5.6v5.6h-22.7v-5c0-8.3,3.1-16.3,8.8-22.4c5.6-6.1,13.5-9.5,21.8-9.4c7.2,0,14.1,2.7,19.3,7.6
		c5.4,5,8.4,12,8.3,19.3V188c-0.1,6.9,0.4,13.8,1.5,20.6h-22.3c-2-2.3-2-8.1-2-9.6h-1.5c-1.6,2.8-3.8,5.2-6.3,7.2
		c-3.5,2.6-7.6,4-12,4.1c-4.4,0-8.5-2-11.3-5.4c-3.9-4.1-7-11.5-7-23.9c0-13.2,4.1-22.9,9.5-29.4s12.2-10.7,17.8-13.5
		c5.6-2.8,10-4.8,10.8-7.2V118L1138.4,118z M1138.4,151.3c-11,4.6-15.8,15.2-15.8,26.6c0,2.2,0.4,4.5,1.2,6.6
		c0.9,2.6,2.5,4.6,5.2,4.6c5.2,0,9.5-3,9.5-7.2V151.3z"/>
	<path class="st0" d="M1199.4,208.8h-22.7V89.7h22.7v10c1-0.7,1.9-1.5,2.7-2.3c3-3,6.3-5.7,10-7.9c1.8-1,3.8-1.5,5.9-1.5
		c6.1,0,10.3,3.5,13,7.9c2.7,4.7,4.1,10.1,4.1,18.5v97.5l-22.7-3v-94.3c0-4.6-2.7-5.3-5.4-5.3c-2.5,0-3.9,1.3-5.4,2.8
		c-0.8,0.9-1.4,1.8-2,2.8v93.9H1199.4z"/>
	<path class="st0" d="M251.2,42.1c-5.3,0.7-10.6,1.1-15.9,1.1c-6.7,0-13-0.9-15.7-2.3c-3.3-1.7-4.7-3.7-4.7-6.9c0-3.1,1.4-6,3.6-8
		l4,2.6c-1.6,1.8-2.2,3.2-2.2,4.8c0,1.6,0.9,2.7,2.9,3.5c2,0.7,7,1.3,11.8,1.3c5.1,0,10.2-0.4,15.3-1.1L251.2,42.1z M247.7,7.6v4.9
		h-28.3V7.6L247.7,7.6z"/>
	<path class="st0" d="M297.8,43.3c-4.7,0.5-9.5,0.7-14.2,0.7c-4.8,0.1-9.7-0.3-14.5-1.1c-4.9-1.3-7.7-4.4-7.7-8.4
		c0-3.6,1.6-6.6,4.9-9.3c1.9-1.5,4-2.8,6.3-3.8c-2.3-5.1-4.3-10.4-5.8-15.8l5.1-1.3c1.4,5.1,3.1,10.1,5,15c5-2.3,10.2-4.2,15.5-5.6
		l2.3,4.4c-6.3,1.5-17.4,5.7-22.4,8.5c-3.5,2-5.6,4.8-5.6,7.5c0,2.1,1.3,3.5,3.8,4.4c2.1,0.7,6.1,1,11.4,1c5.1,0,10.2-0.3,15.3-0.8
		L297.8,43.3z M294.8,13.2c-1.2-2.8-2.7-5.5-4.6-7.9l3.5-1.2c1.8,2.4,3.4,5.1,4.7,7.8L294.8,13.2z M300.7,11.2
		c-1.2-2.9-2.7-5.6-4.6-8l3.4-1.1c1.9,2.3,3.5,4.9,4.6,7.7L300.7,11.2z"/>
	<path class="st0" d="M325.8,4.4l-1.1,6.3h13.8v4.4h-14.6l-1.2,7.1h13.1v4.4H322c-0.4,2.1-0.6,4.2-0.7,6.3c0,2.4,0.6,3.7,2,4.9
		c1.6,1.4,4.3,2.1,7.6,2.1c6.8,0,10.5-2.5,10.5-7.3c-0.1-2.3-0.6-4.5-1.4-6.6l4.9-0.3c1.1,2.2,1.8,4.7,1.9,7.2
		c0,3.8-1.4,6.8-4.2,8.8c-2.8,2-7.1,3.1-11.8,3.1c-9.6,0-14.8-4.1-14.8-11.5c0-2.2,0.3-4.4,0.7-6.5H308v-4.4h9.5l1.3-7.1h-10.2v-4.4
		h11l1.2-6.8L325.8,4.4z"/>
	<path class="st0" d="M377.8,39.8c9.1-2.2,13.6-7.2,13.6-15.1c0-5.5-2.5-10.2-6.9-12.5c-1.6-0.9-3.3-1.4-5.1-1.7
		c-1.4,10.6-3.4,17.5-6.8,24c-1.3,2.5-2.3,4.1-3.5,5.1c-1.4,1.5-3.3,2.4-5.3,2.5c-5.4,0-9.9-6.6-9.9-14.7
		c0.1-7.6,4.1-14.6,10.6-18.4c3.6-2.1,7.8-3.2,12-3.1c12,0,20.4,7.6,20.4,18.5c0,10.4-5.4,17-16.3,19.8L377.8,39.8z M374.3,10.3
		c-3.6,0.2-6.9,1.7-9.5,4.2c-3.6,3.3-5.7,7.9-5.7,12.8c0,4.9,2.1,9.5,4.5,9.5c1.2,0,2.2-1,3.7-3.5c3.4-5.6,5.7-13.4,6.8-22.1
		L374.3,10.3z"/>
	<path class="st0" d="M413,10.9c0.6-2.4,0.8-3.6,1.5-7.2l5.2,0.7c-0.5,2.1-0.9,4.6-1.5,6.5h15.4v4.5h-16.5c-3,11.8-6.5,22-10.3,29.7
		l-5.1-1.8c4.2-9,7.6-18.3,10.2-27.9h-9.7v-4.5H413z M443.2,43.9c-2.8,0.3-5.6,0.5-8.4,0.5c-4.6,0-9.1-0.5-11.4-1.3
		c-2.7-0.7-4.6-3.2-4.6-6c0.1-1.8,0.7-3.6,1.9-5l4.1,2.3c-0.5,0.5-0.7,1.2-0.7,2c0,1,0.6,1.9,1.5,2.3c2.5,0.6,5.1,0.9,7.7,0.8
		c3.1,0,6.2-0.2,9.3-0.7L443.2,43.9z M421.4,21.7c6.6-0.7,13.2-1,19.9-1l0.3,4.6c-6.6,0-13.8,0.4-19.4,0.9L421.4,21.7z"/>
	<path class="st0" d="M458.2,6.2c0.6,2.6,1.3,5.2,2.1,7.7c3.8-2,8-3.1,12.3-3.1c0.5-2.4,0.7-4.2,1-6.7l5.1,0.9
		c-0.4,2.3-0.7,4.5-1,6.3c3,0.5,5.9,1.9,8.1,4c3.2,3,5,7.3,4.9,11.7c0,5.8-1.9,10-5.7,12.9c-3.1,2.2-6.7,3.6-10.5,4.1l-2.4-4.2
		c3.4-0.5,6.7-1.8,9.5-3.7c2.5-2,3.7-5,3.7-9.4c0-5.6-3-9.6-8.5-11.2c-2.1,8.7-4.2,13.3-7.7,17.9c-4.2,5.5-9,8.8-12.9,8.8
		c-4.3,0-7.1-3.8-7.1-9.8c0.1-6,2.7-11.6,7.2-15.6c-0.7-2.1-1.9-5.9-2.6-9.1L458.2,6.2z M453.9,32c0,3.5,1.1,5.6,2.8,5.6
		s3.8-1.5,6.5-4.5c-2.1-3.7-3.9-7.7-5.4-11.8C455.1,24.9,453.9,28.2,453.9,32L453.9,32z M461.7,18.2c1.3,3.8,2.8,7.4,4.7,10.9
		c2.6-4.3,4.4-9,5.3-14C468.2,15.2,464.7,16.3,461.7,18.2L461.7,18.2z"/>
	<path class="st0" d="M520.1,39.8c9.1-2.2,13.6-7.2,13.6-15.1c0-5.5-2.5-10.2-6.9-12.5c-1.6-0.9-3.3-1.4-5.1-1.7
		c-1.5,10.6-3.4,17.5-6.8,24c-1.3,2.5-2.3,4.1-3.5,5.1c-1.4,1.5-3.3,2.4-5.3,2.5c-5.4,0-9.9-6.6-9.9-14.7
		c0.1-7.6,4.1-14.6,10.6-18.4c3.6-2.1,7.8-3.2,12-3.1c12,0,20.4,7.6,20.4,18.5c0,10.4-5.4,17-16.3,19.8L520.1,39.8z M516.6,10.3
		c-3.6,0.2-6.9,1.7-9.5,4.2c-3.6,3.3-5.7,7.9-5.7,12.8c0,4.9,2.1,9.5,4.5,9.5c1.2,0,2.2-1,3.7-3.5c3.4-5.6,5.7-13.4,6.8-22.1
		L516.6,10.3z"/>
	<path class="st0" d="M574.9,10l5.7,5c-1.5,17.8-8.8,25.8-27.8,29.9l-2.6-4.6c17.1-2.7,24.4-10.3,24.8-25.7h-29.9V10L574.9,10z
		 M588.7,7.6c0,3.2-2.6,5.8-5.8,5.8c-3.2,0-5.8-2.6-5.8-5.8s2.6-5.8,5.8-5.8C586.1,1.9,588.7,4.5,588.7,7.6z M579.9,7.6
		c0,1.7,1.3,3,3,3c1.7,0,3-1.3,3-3c-0.1-1.6-1.4-2.9-3-2.9C581.3,4.8,580,6.1,579.9,7.6z"/>
	<path class="st0" d="M630.7,8v34.5h-36.3V8H630.7z M599.8,37.8h25.5v-25h-25.5V37.8z"/>
	<path class="st0" d="M675.3,14.5c-3.5,17-11.5,25.6-28.6,30.5l-2.9-4.6C658.5,37,667,28.7,669.9,15h-15.4c-3,4.3-6.7,8-11.1,10.8
		l-3.7-3.7c7.3-4.5,12-10.3,14.7-17.9l4.9,1.3c-0.6,1.7-1.3,3.3-2.1,4.9h13.7L675.3,14.5z M672.6,10.9c-1-2.7-2.4-5.2-4.1-7.5
		l3.9-0.8c1.8,2.2,3.2,4.7,4.2,7.4L672.6,10.9z M679.6,10.6c-1-2.8-2.4-5.5-4.1-7.9l3.8-0.7c1.7,2.3,3.1,4.9,4.1,7.6L679.6,10.6z"/>
	<path class="st0" d="M726.7,17.2c-1.8,17.9-9,25.1-28,27.6l-2.3-4.6c6.6-0.6,12.1-2.1,15.8-4.6c4.7-3.1,7.7-8.3,8.1-13.9h-32.1
		v-4.6H726.7z M722,6.2v4.6h-30.5V6.2L722,6.2z"/>
	<path class="st0" d="M770.6,44.9c-11.8-3.5-24.4-6.7-34.5-8.8l1-5.1c11.6,2.3,23,5.2,34.3,8.8L770.6,44.9z M769.7,15.7
		c-9.6-2.7-19.3-4.8-29.1-6.3l0.8-4.8c9.8,1.4,19.5,3.4,29,6.2L769.7,15.7z M767.1,28.8c-8.5-2.6-17.2-4.6-26-6.1l0.8-4.9
		c8.7,1.4,17.4,3.4,25.8,6.1L767.1,28.8z"/>
	<path class="st0" d="M799.7,16.4c-4.9-2.1-10-3.8-15.2-5l1.6-4.9c5.3,1.1,10.5,2.8,15.4,5L799.7,16.4z M785.1,38.6
		c20.1-1.3,29.1-8.9,32.6-27.5l4.5,3.2c-4,19.4-13.9,27.6-35.9,29.6L785.1,38.6z"/>
	<path class="st0" d="M864.9,14.5c-3.5,17-11.5,25.6-28.6,30.5l-2.9-4.6c14.7-3.5,23.2-11.8,26.1-25.4h-15.4c-3,4.3-6.7,8-11.1,10.8
		l-3.7-3.7c7.3-4.5,12-10.3,14.7-17.9l4.9,1.3c-0.6,1.7-1.3,3.3-2.1,4.9h13.7L864.9,14.5z M862.2,10.9c-1-2.7-2.4-5.2-4.1-7.5
		l3.9-0.8c1.8,2.2,3.2,4.7,4.2,7.4L862.2,10.9z M869.2,10.6c-1-2.8-2.4-5.5-4.1-7.9L869,2c1.7,2.3,3.1,4.9,4.1,7.6L869.2,10.6z"/>
	<path class="st0" d="M885.7,36c3.5,3.7,7.3,5.1,15.1,5.1h19.4c-0.6,1.4-1.1,2.9-1.4,4.5h-19.2c-8.2-0.2-11.9-1.5-15.7-5.5
		c-2,2.5-4.4,4.8-7.1,6.6l-2.8-4.5c2.4-1.3,4.6-2.9,6.7-4.7V26h-6.3v-4.4h11.2L885.7,36z M882.4,15.1c-2-3.1-4.4-6-7.1-8.6l3.8-2.9
		c2.8,2.5,5.2,5.2,7.4,8.2L882.4,15.1z M887.8,12V8.2h7.4c-1-1.6-1.5-2.2-2.6-3.7l4.6-1.6c1.2,1.7,2.2,3.5,3.1,5.3h6
		c0.9-1.8,1.6-3.6,2.2-5.4l5.1,1c-0.7,1.4-1.5,2.9-2.3,4.4h7.7V12h-13.6c-0.6,1.6-0.7,1.8-1.2,3.3h11.9v23.1h-25.3V15.3h8.6
		c0.4-1.1,0.8-2.2,1.1-3.3H887.8z M895.4,21.9h15.7v-3.4h-15.7V21.9z M895.4,28.4h15.7V25h-15.7V28.4z M895.4,35.1h15.7v-3.5h-15.7
		V35.1z"/>
	<path class="st0" d="M957.5,31.8c-2.2,6-6.4,11-12,14.1l-3.3-2.7c4.8-2.5,8.6-6.4,10.9-11.3h-3.3c-3.1,5.5-7.9,9.8-13.6,12.2
		l-2.9-2.9c5.1-2.1,9.4-5.3,12-9.2h-3.1c-1.3,1.3-2.7,2.5-4.3,3.4l-2.6-2.4c-3.9,2.4-8.1,4.4-12.4,6l-1.7-4.6
		c2.1-0.7,3.5-1.1,6.3-2.1V17h-5.4v-4.5h5.4V3h4.8v9.5h4.6V17h-4.6v13.1c1.5-0.7,2.2-1,4.3-2.1l0.7,2.8c1.9-1.4,3.4-3.1,4.7-5.1
		h-6.5v-3.7h31.7v3.7H947c-0.4,0.7-0.9,1.6-1.6,2.5h20.1c-0.4,7.3-0.9,12.8-1.8,15.3c-0.7,2.2-2.1,3-5.3,3c-1.6,0-3.1-0.1-4.7-0.3
		l-0.8-4.3c1.4,0.3,2.9,0.4,4.3,0.5c1.5,0,1.9-0.3,2.2-1.7c0.7-2.9,1-5.9,1.1-8.9L957.5,31.8z M962.9,19.7h-23.8V4.3h23.8V19.7z
		 M943.7,10.4h14.6V7.7h-14.6V10.4z M943.7,16.3h14.6v-2.7h-14.6V16.3z"/>
	<g id="桃">
		<g id="葉っぱ">
			<g id="path64">
				<path class="st0" d="M50,221.5c-1.9,0.5-3.8,1-5.7,1.7c13.3-16.2,28.4-24.4,43.9-27.3c16.2-2.9,32.6,0,47.7,5.7
					c11.1,4.3,21.6,9.9,31.4,16.7c8.5,5.8,16.3,12.4,23.4,19.9c-0.6,0.2-1,0.4-1.5,0.6c-9.3,3.5-18,6.6-26.1,9.1
					c-18.6,5.8-34.2,9.3-47.6,10.8c-42.8,4.8-61.2-11.1-71.4-35.2l0.3-0.4C46.2,222.6,48.1,222,50,221.5z M77.8,217.3
					c1.9-0.1,3.8-0.2,5.7-0.2C81.6,217.1,79.7,217.2,77.8,217.3z M85.6,217.1L85.6,217.1z M92.3,217.2c1.3,0,2.7,0.1,4.1,0.2
					C95,217.3,93.6,217.2,92.3,217.2L92.3,217.2z M98.8,217.5l3.6,0.3L98.8,217.5z M123.1,220.3c1.8,0.3,3.6,0.6,5.4,1
					C126.7,221,125,220.6,123.1,220.3L123.1,220.3z M105,218c1.2,0.1,2.5,0.2,3.7,0.4C107.4,218.2,106.2,218.1,105,218L105,218z
					 M111,218.6c1.3,0.2,2.6,0.3,3.8,0.5C113.6,218.9,112.4,218.8,111,218.6L111,218.6z M117.1,219.4c1.3,0.2,2.7,0.4,4.1,0.6
					C119.9,219.8,118.4,219.6,117.1,219.4L117.1,219.4z M130.5,221.7c1.2,0.2,2.3,0.5,3.6,0.7C132.8,222.1,131.7,221.9,130.5,221.7
					L130.5,221.7z M136.3,222.9c1.2,0.2,2.3,0.5,3.4,0.8C138.6,223.4,137.4,223.1,136.3,222.9L136.3,222.9z M141.6,224.1
					c1.4,0.3,2.8,0.7,4.3,1C144.4,224.8,143,224.4,141.6,224.1L141.6,224.1z M159.7,228.8l0.4,0.1l-0.3-0.1H159.7z M150.9,226.3
					l0.9,0.3c-0.3-0.2-0.6-0.2-1-0.2L150.9,226.3z M155.3,227.5l0.4,0.1L155.3,227.5z M163.9,230l0.4,0.1L163.9,230z M185.8,237.5
					c0.2,0.1,0.4,0.2,0.7,0.2c-0.2,0-0.5,0-0.7-0.1L185.8,237.5z M172,232.5l0.4,0.1L172,232.5z M179.3,235.1
					c0.2,0.1,0.4,0.1,0.5,0.2c-0.1,0-0.3,0.1-0.5-0.1L179.3,235.1z M56.8,219.9c-1.9,0.4-3.8,0.8-5.7,1.3
					C53,220.7,54.9,220.3,56.8,219.9z M77,217.3c-2,0.1-3.9,0.3-5.8,0.4C73.1,217.6,75.1,217.4,77,217.3z M69.8,217.9
					c-1.9,0.2-3.9,0.4-5.8,0.7C65.9,218.4,67.9,218.2,69.8,217.9L69.8,217.9z M63.1,218.8l-5.2,0.9L63.1,218.8z"/>
			</g>
			<g id="path641">
				<path class="st0" d="M44.1,221c1.9,0.5,3.8,1.1,5.7,1.7c-13.3-16.2-28.4-24.4-43.9-27.3c-16.2-2.9-32.6,0-47.7,5.7
					c-11.1,4.3-21.6,9.9-31.4,16.7c-8.5,5.8-16.3,12.4-23.4,19.9c0.6,0.2,1,0.4,1.5,0.6c9.3,3.5,18,6.6,26.1,9.1
					c18.6,5.8,34.2,9.3,47.6,10.8c42.8,4.8,61.2-11,71.4-35.2l-0.3-0.4C47.9,222.1,46,221.5,44.1,221z M16.4,216.8
					c-1.9-0.1-3.8-0.2-5.7-0.2C12.6,216.6,14.5,216.7,16.4,216.8L16.4,216.8z M8.5,216.6L8.5,216.6z M1.9,216.7
					c-1.3,0-2.7,0.1-4.1,0.2C-0.9,216.8,0.6,216.7,1.9,216.7z M-4.7,217l-3.6,0.3L-4.7,217z M-28.9,219.8c-1.8,0.3-3.6,0.6-5.4,1
					C-32.5,220.5-30.8,220.1-28.9,219.8L-28.9,219.8z M-10.8,217.5c-1.2,0.1-2.5,0.2-3.7,0.4C-13.3,217.7-12.1,217.6-10.8,217.5
					L-10.8,217.5z M-16.9,218.1c-1.3,0.2-2.6,0.3-3.8,0.5C-19.5,218.4-18.2,218.3-16.9,218.1L-16.9,218.1z M-23,218.9
					c-1.3,0.2-2.7,0.4-4.1,0.6C-25.7,219.3-24.3,219.1-23,218.9L-23,218.9z M-36.3,221.2c-1.2,0.2-2.3,0.5-3.6,0.7
					C-38.7,221.6-37.6,221.4-36.3,221.2L-36.3,221.2z M-42.1,222.4c-1.2,0.2-2.3,0.5-3.4,0.8C-44.4,222.8-43.3,222.6-42.1,222.4
					L-42.1,222.4z M-47.4,223.5c-1.4,0.3-2.8,0.7-4.3,1C-50.3,224.2-48.9,223.9-47.4,223.5L-47.4,223.5z M-65.5,228.2l-0.4,0.1
					L-65.5,228.2L-65.5,228.2z M-56.8,225.9c-0.3,0.1-0.7,0.2-0.9,0.3C-57.4,226-57.1,225.9-56.8,225.9z M-61.2,227.1l-0.4,0.1
					L-61.2,227.1z M-69.8,229.6l-0.4,0.1L-69.8,229.6z M-91.7,237.1c-0.2,0.1-0.4,0.2-0.7,0.2C-92.2,237.2-91.8,237.2-91.7,237.1z
					 M-77.8,232.2l-0.4,0.1L-77.8,232.2z M-85.2,234.7c-0.2,0.1-0.4,0.1-0.5,0.2C-85.5,234.8-85.3,234.8-85.2,234.7z M37.3,219.4
					c1.9,0.4,3.8,0.8,5.7,1.3C41.1,220.2,39.2,219.8,37.3,219.4z M17.1,216.8c2,0.1,3.9,0.3,5.8,0.4C21,217.1,19,216.9,17.1,216.8z
					 M24.3,217.4c1.9,0.2,3.9,0.4,5.8,0.7C28.2,217.8,26.2,217.6,24.3,217.4L24.3,217.4z M31,218.2l5.2,0.9L31,218.2z"/>
			</g>
		</g>
		<g id="実">
			<g id="path74-7">
				<path class="st0" d="M-96.2,65.1c29,22.3-13.7,63.3,28.1,120.5c56,76.7,139,51.1,144.1,7.3C80.1,157.5,30.3,110.7-96.2,65.1z"/>
			</g>
			<g id="path74-71">
				<path class="st0" d="M190.4,65.1c-29,22.3,13.7,63.3-28.1,120.5c-56,76.6-139,51.1-144.2,7.3C14,157.5,63.8,110.7,190.4,65.1z"
					/>
			</g>
		</g>
	</g>
	<g id="ロゴ本体">
		<g id="g100">
			<ellipse id="circle13" class="st1" cx="48.1" cy="113.9" rx="106" ry="110.9"/>
			<path id="path15" class="st2" d="M47.1,2.4c59.7,0,108.2,50.7,108.2,113c0,62.5-48.5,113.1-108.2,113.1s-108.2-50.7-108.2-113
				C-61.2,52.9-12.8,2.4,47.1,2.4z M46,8.2h-1.5C-11.4,9-56.6,56.8-56.6,115.4s45.3,106.5,101.4,107.2c-27.7-0.6-50-24.5-50-53.6
				c0-29.7,23-53.7,51.3-53.7s51.4-24,51.4-53.6C97.2,32.1,74.3,8.2,46,8.2z"/>
			<path id="path17" class="st2" d="M31.3,70.8v-40c0-1.7,0.7-3.4,1.9-4.5c1.1-1.2,2.7-1.9,4.3-1.9h19.9c1.6,0,3.2,0.7,4.3,1.9
				c1.2,1.2,1.8,2.9,1.8,4.5v40c0,1.7-0.6,3.3-1.8,4.5c-1.2,1.2-2.7,1.9-4.4,1.9H37.5c-1.7,0-3.3-0.7-4.4-1.9
				C31.9,74.1,31.3,72.5,31.3,70.8z M57.6,70.4l-0.8-39.5l-19.4,0.4l0.8,39.5L57.6,70.4z"/>
			<path id="path19" class="st3" d="M38.7,191.6h9.8v-39.5h-9.7c-0.9,0-1.7-0.3-2.3-0.9c-1.3-1.4-1.3-3.5,0-4.9c0.6-0.6,1.5-1,2.3-1
				h16.1v46h6.4v-13.9c0-0.9,0.3-1.7,0.9-2.3c0.6-0.6,1.5-1,2.3-1c0.9,0,1.7,0.3,2.3,1c0.6,0.6,1,1.5,0.9,2.4v17.2
				c0,0.9-0.3,1.8-0.9,2.4c-0.6,0.6-1.5,1-2.3,0.9H38.7c-0.9,0-1.7-0.4-2.3-0.9c-0.6-0.6-1-1.5-0.9-2.4c0-0.9,0.3-1.7,0.9-2.3
				C37,191.9,37.8,191.6,38.7,191.6z"/>
		</g>
	</g>
	<g id="文字">
		<g>
			<g>
				<path class="st0" d="M-38.2,86.2v10.1h0.2l0.2-0.5l4-9.6h4.7l-4.5,9.5l5,19.4h-4.7l-3.4-12.6l-0.1-0.6h-0.1l-0.3,0.6l-1.2,2.3
					v10.2H-43V86.2H-38.2z"/>
				<path class="st0" d="M-14.9,109.8c0.1,3-2.2,5.5-5.2,5.6c-0.2,0-0.4,0-0.7,0c-2.1,0.2-4.1-0.9-5.1-2.8c-0.4-0.9-0.7-1.8-0.7-2.8
					V98.9c0-1.9,0.9-3.7,2.4-4.8c1-0.6,2.2-0.9,3.4-0.9c2.1-0.2,4.1,0.9,5.1,2.8c0.4,0.9,0.7,1.8,0.7,2.7L-14.9,109.8z M-19.2,98.9
					c0.1-0.7-0.1-1.4-0.6-1.9c-0.3-0.2-0.6-0.3-1-0.3c-0.7,0-1.3,0.4-1.4,1.1c-0.1,0.3-0.2,0.7-0.1,1.1v10.8
					c-0.1,0.7,0.1,1.3,0.6,1.8c0.3,0.2,0.6,0.3,0.9,0.3c0.7,0.1,1.3-0.4,1.4-1.1c0.1-0.3,0.2-0.7,0.1-1.1L-19.2,98.9z"/>
			</g>
			<g>
				<path class="st0" d="M-7.3,115.1h-4.5V93.6h4.5v1.8c0.2-0.1,0.4-0.3,0.5-0.4c0.6-0.6,1.3-1,2-1.4c0.4-0.2,0.8-0.3,1.2-0.3
					c1.1,0,2,0.5,2.6,1.4c0.5,0.8,0.8,1.8,0.8,2.8v17.6h-4.5V98c0-0.8-0.5-0.9-1.1-0.9c-0.4,0-0.8,0.2-1.1,0.5
					c-0.1,0.2-0.3,0.3-0.4,0.5L-7.3,115.1z"/>
			</g>
			<g>
				<path class="st0" d="M9.9,98.7c0-0.4,0-0.9-0.1-1.3c-0.2-0.4-0.7-0.7-1.2-0.7c-0.8,0-1.1,0.5-1.2,1.2c-0.1,0.3-0.1,0.7-0.1,1v1
					H2.8V99c0-1.5,0.6-3,1.8-4c1.2-1.1,2.7-1.7,4.4-1.7c1.4,0,2.8,0.5,3.9,1.4c1.1,0.9,1.7,2.1,1.7,3.5v13.2c0,1.3,0.1,2.5,0.3,3.7
					h-4.5c-0.3-0.5-0.4-1.1-0.4-1.7H9.6c-0.3,0.5-0.8,1-1.3,1.3c-0.7,0.5-1.5,0.7-2.3,0.7c-0.9,0-1.7-0.4-2.2-1
					c-1-1.2-1.5-2.8-1.4-4.3c-0.1-1.9,0.6-3.8,1.9-5.3c1-1,2.2-1.9,3.5-2.4c1.2-0.5,2-0.9,2.2-1.3L9.9,98.7z M9.9,104.7
					c-2,0.7-3.3,2.7-3.1,4.8c0,0.4,0.1,0.8,0.2,1.2c0.1,0.5,0.6,0.8,1,0.8c1,0,1.9-0.5,1.9-1.3V104.7z"/>
			</g>
			<g>
				<path class="st0" d="M21.9,115.1h-4.5V93.6h4.5v1.8c0.2-0.1,0.4-0.3,0.5-0.4c0.6-0.6,1.3-1,2-1.4c0.4-0.2,0.8-0.3,1.2-0.3
					c1.1,0,2,0.5,2.6,1.4c0.5,0.8,0.8,1.8,0.8,2.8v17.6h-4.5V98c0-0.8-0.5-0.9-1.1-0.9c-0.4,0-0.8,0.2-1.1,0.5
					c-0.1,0.2-0.3,0.3-0.4,0.5L21.9,115.1z"/>
			</g>
		</g>
		<g>
			<path class="st1" d="M99.8,138.5c0,1.3-0.3,2-1.2,2.3c-1.6,0.4-3.2,0.5-4.8,0.4c-0.2-0.7-0.4-1.4-0.8-2c1.8,0.1,3.4,0,3.9,0
				c0.5,0,0.7-0.2,0.7-0.7v-21.1H77.4v23.8h-2.2v-25.9h24.6L99.8,138.5z M92.4,137.4v-1.6h-10v2h-1.9v-10.1h1.9v6.1h4v-8.4h-7.5
				v-1.9h17.5v1.9h-8v8.4h4v-6.1h1.9v9.7L92.4,137.4z M82.7,118.1c1.1,1.4,1.8,2.9,2.3,4.6l-1.9,0.7c-0.5-1.7-1.2-3.3-2.2-4.7
				L82.7,118.1z M94,118.5c-0.8,1.7-1.7,3.3-2.7,4.9l-1.7-0.6c0.9-1.6,1.7-3.2,2.2-4.9L94,118.5z"/>
			<path class="st1" d="M118.6,118.9v3.2h10.3v16.6c0,1.3-0.3,1.9-1.3,2.3c-1.7,0.4-3.4,0.5-5.1,0.4c-0.2-0.7-0.5-1.4-0.8-2
				c1.9,0.1,3.7,0.1,4.2,0c0.5-0.1,0.7-0.2,0.7-0.7v-14.5h-18.5v17.1h-2.2V122h10.2v-3.2h-11.8v-2.1h11.8v-3h2.4v3h11.9v2.1
				L118.6,118.9z M118.3,135.5v5.2h-2.1v-5.2h-6.4v-1.9h6.4v-3h-5.8v-1.9h8.5c0.8-1.4,1.5-2.8,2.1-4.2l1.9,0.5
				c-0.7,1.3-1.3,2.6-2,3.7h3.6v1.8h-6.2v3h6.7v1.9L118.3,135.5z M113.7,124.6c0.8,1.1,1.4,2.3,1.9,3.5l-1.8,0.7
				c-0.4-1.3-1.1-2.5-1.8-3.6L113.7,124.6z"/>
		</g>
	</g>
</g>
</svg>
