<svg xmlns="http://www.w3.org/2000/svg" viewBox="0 0 1136.44 237.5"><defs><style>.cls-1,.cls-3{fill:#fff;}.cls-2,.cls-4{fill:#7ba23f;}.cls-3,.cls-4{fill-rule:evenodd;}.cls-5{isolation:isolate;}</style></defs><title>アセット 1</title><g id="レイヤー_2" data-name="レイヤー 2"><g id="レイヤー_1-2" data-name="レイヤー 1"><path class="cls-1" d="M319.74,155.7v18.8a35.16,35.16,0,0,1-3.5,14.9,25.21,25.21,0,0,1-8.3,10c-3.8,3-9,4.6-16,4.6s-12.3-1.7-16.1-4.6a26.4,26.4,0,0,1-8.1-10,36.71,36.71,0,0,1-3.5-14.9V94.1a35,35,0,0,1,3.5-14.7,25.17,25.17,0,0,1,8.1-10.2c3.8-2.8,9.2-4.6,16.1-4.6a24.91,24.91,0,0,1,24.3,14.8,36.55,36.55,0,0,1,3.5,14.7v18.7h-19.4V94a11.41,11.41,0,0,0-3.1-8.5,7.23,7.23,0,0,0-4.8-1.5c-3.7,0-5.4,2.6-6.3,5a19.28,19.28,0,0,0-1,5v80.4c.2,3.9,1.3,6.5,3.3,8.5a5.77,5.77,0,0,0,4,1.5c4.4,0,6.1-2.2,7.1-5a12.2,12.2,0,0,0,.8-5V155.6h19.4Z"/><path class="cls-1" d="M380.24,177.8c-.6,9.8-3.7,16.7-10.4,22.1-3.5,2.8-8.3,4.1-14.6,4.1-12.5,0-18.6-6.7-21.7-13.4a37.15,37.15,0,0,1-3.1-13.4V126.1c.6-9.8,3.7-17.1,10.4-22.7,3.3-2.8,8.1-4.1,14.4-4.1,12.5,0,18.8,6.7,21.9,13.2a36,36,0,0,1,3.1,13v52.3Zm-18.3-51.6c.2-3.9-.6-6.7-2.5-8.9a6.3,6.3,0,0,0-4.2-1.5c-3.7,0-5.2,2.4-6,5.2a10.84,10.84,0,0,0-.6,5.2v51.1c-.2,3.9.8,6.7,2.5,8.7a5.77,5.77,0,0,0,4,1.5c3.7,0,5.4-2.2,6.1-5a10.84,10.84,0,0,0,.6-5.2V126.2Z"/><path class="cls-1" d="M442.94,202.5h-19.4v-6.7a37.24,37.24,0,0,1-9.8,6.9,13,13,0,0,1-5.6,1.3c-5.4,0-9-3-11.3-6.9a24.19,24.19,0,0,1-3.7-13V119.3a25.37,25.37,0,0,1,3.7-13.2c2.3-3.7,6-6.7,11.3-6.7,3.7,0,7.5,2,10.4,4.1,1.7,1.3,3.3,2.6,5,4.1V66h19.4Zm-19.5-79.3c0-3-2.9-6.1-5.8-6.1s-5.2,2.6-5.2,6.1v57c0,3.5,2.3,6.1,5.2,6.1a6.07,6.07,0,0,0,5.8-6.1Z"/><path class="cls-1" d="M506.84,166.1v11.7c-.6,9.8-3.7,16.7-10.6,22.1-3.5,2.8-8.3,4.1-14.6,4.1-12.5,0-18.8-6.7-21.9-13.4a37.15,37.15,0,0,1-3.1-13.4V126.1c.6-9.8,3.8-17.1,10.8-22.7,3.3-2.8,8.1-4.1,14.4-4.1,12.5,0,18.8,6.7,21.9,13.2a36,36,0,0,1,3.1,13V155h-32.1v22.1c.2,3.9,1.3,6.7,3.1,8.7a5.77,5.77,0,0,0,4,1.5c3.7,0,5.4-2.2,6.1-5a13.87,13.87,0,0,0,.8-5.2V166h18.1Zm-32-25.6h14V126.2c0-3.9-.8-6.7-2.7-8.9a6.3,6.3,0,0,0-4.2-1.5c-3.7,0-5.2,2.4-6.1,5.2a19.21,19.21,0,0,0-1,5.2Z"/><path class="cls-1" d="M558.94,120.2a16.72,16.72,0,0,0-5.4-.7c-3.1,0-6.7.4-9.8,3.2-3.7,3-4.2,6.1-4.2,9.3v70.6h-19.4V100.9h19.4v11.3a15,15,0,0,1,4.6-7.4,21.09,21.09,0,0,1,14.8-5.4v20.8Z"/><path class="cls-1" d="M567.44,202.5V66h16.3c19.2,0,29.6,3.7,35.2,14.1,5.4,10.4,6.2,27.5,6.2,54.2s-.8,43.7-6.2,54.1c-5.6,10.4-15.9,14.1-35.2,14.1Zm20.7-20c7.1,0,11.1-.7,13.3-7.4,1-3.2,1.7-8,1.9-14.5s.2-15.2.2-26.4,0-19.9-.2-26.4a65.42,65.42,0,0,0-1.9-14.5c-2.1-6.5-6.2-7.2-13.3-7.2Z"/><path class="cls-1" d="M686.94,177.8c-.6,9.8-3.7,16.7-10.4,22.1-3.5,2.8-8.3,4.1-14.6,4.1-12.5,0-18.6-6.7-21.7-13.4a37.15,37.15,0,0,1-3.1-13.4V126.1c.6-9.8,3.7-17.1,10.4-22.7,3.3-2.8,8.1-4.1,14.4-4.1,12.5,0,18.8,6.7,21.9,13.2a36,36,0,0,1,3.1,13v52.3Zm-18.3-51.6c.2-3.9-.6-6.7-2.5-8.9a6.3,6.3,0,0,0-4.2-1.5c-3.7,0-5.2,2.4-6,5.2a10.84,10.84,0,0,0-.6,5.2v51.1c-.2,3.9.8,6.7,2.5,8.7a5.77,5.77,0,0,0,4,1.5c3.7,0,5.4-2.2,6.2-5a10.84,10.84,0,0,0,.6-5.2Z"/><path class="cls-1" d="M719.44,100.9V205.1c0,5.2,0,13.4-2.7,20.1-2.7,6.9-8.6,12.3-19.6,12.3a24.28,24.28,0,0,1-6.5-.6c-.8-.2-1.3-.4-1.9-.6V219c.6.2,1.2.2,1.7.4a24.57,24.57,0,0,0,3.7.4c3.3,0,4.8-2.6,5.6-5.8a37.28,37.28,0,0,0,.4-4.8V100.9ZM700,66h19.4V84.8H700Z"/><path class="cls-1" d="M782.84,177.8c-.6,9.8-3.7,16.7-10.4,22.1-3.5,2.8-8.3,4.1-14.6,4.1-12.5,0-18.6-6.7-21.7-13.4a37.15,37.15,0,0,1-3.1-13.4V126.1c.6-9.8,3.7-17.1,10.4-22.7,3.3-2.8,8.1-4.1,14.4-4.1,12.5,0,18.8,6.7,21.9,13.2a36,36,0,0,1,3.1,13v52.3Zm-18.3-51.6c.2-3.9-.6-6.7-2.5-8.9a6.3,6.3,0,0,0-4.2-1.5c-3.7,0-5.2,2.4-6,5.2a10.84,10.84,0,0,0-.6,5.2v51.1c-.2,3.9.8,6.7,2.5,8.7a5.77,5.77,0,0,0,4,1.5c3.7,0,5.4-2.2,6.1-5a10.84,10.84,0,0,0,.6-5.2V126.2Z"/><path class="cls-1" d="M846.84,66v47.7h.8l1-2.2L865.94,66h20.2l-19,45,21.5,91.6h-20.2L854,143.2l-.6-2.8h-.6l-1.2,2.8-4.8,11.1v48.3H826V66Z"/><path class="cls-1" d="M946.14,177.8c-.6,9.8-3.7,16.7-10.4,22.1-3.5,2.8-8.3,4.1-14.6,4.1-12.5,0-18.6-6.7-21.7-13.4a37.15,37.15,0,0,1-3.1-13.4V126.1c.6-9.8,3.7-17.1,10.4-22.7,3.3-2.8,8.1-4.1,14.4-4.1,12.5,0,18.8,6.7,21.9,13.2a36,36,0,0,1,3.1,13v52.3Zm-18.2-51.6c.2-3.9-.6-6.7-2.5-8.9a6.3,6.3,0,0,0-4.2-1.5c-3.7,0-5.2,2.4-6,5.2a10.84,10.84,0,0,0-.6,5.2v51.1c-.2,3.9.8,6.7,2.5,8.7a5.77,5.77,0,0,0,4,1.5c3.7,0,5.4-2.2,6.1-5a10.84,10.84,0,0,0,.6-5.2V126.2Z"/><path class="cls-1" d="M979.24,202.5h-19.4V100.9h19.4v8.5a13.07,13.07,0,0,0,2.3-2,41.28,41.28,0,0,1,8.5-6.7,10.37,10.37,0,0,1,5-1.3c5.2,0,8.8,3,11.1,6.7a27.16,27.16,0,0,1,3.5,13.2v83.2h-19.4V122.1c0-3.9-2.3-4.5-4.6-4.5-2.1,0-3.3,1.1-4.6,2.4a14.65,14.65,0,0,0-1.7,2.4v80.1Z"/><path class="cls-1" d="M1054,125.1a21.42,21.42,0,0,0-.6-6.1,4.86,4.86,0,0,0-4.8-3.2c-3.3,0-4.6,2.4-5.2,5.4a37.28,37.28,0,0,0-.4,4.8v4.8h-19.4v-4.3a28.16,28.16,0,0,1,7.5-19.1,24.87,24.87,0,0,1,18.6-8,24.08,24.08,0,0,1,16.5,6.5,22.15,22.15,0,0,1,7.1,16.5v62.4a95.76,95.76,0,0,0,1.3,17.6h-19c-1.7-2-1.7-6.9-1.7-8.2h-1.3a20.49,20.49,0,0,1-5.4,6.1,17.4,17.4,0,0,1-10.2,3.5,12.6,12.6,0,0,1-9.6-4.6c-3.3-3.5-6-9.8-6-20.4,0-11.3,3.5-19.5,8.1-25.1s10.4-9.1,15.2-11.5,8.5-4.1,9.2-6.1v-11Zm0,28.4c-9.4,3.9-13.5,13-13.5,22.7a16.55,16.55,0,0,0,1,5.6c.8,2.2,2.1,3.9,4.4,3.9,4.4,0,8.1-2.6,8.1-6.1Z"/><path class="cls-1" d="M1106,202.5h-19.4V100.9H1106v8.5a13.07,13.07,0,0,0,2.3-2,41.28,41.28,0,0,1,8.5-6.7,10.37,10.37,0,0,1,5-1.3c5.2,0,8.8,3,11.1,6.7a27.16,27.16,0,0,1,3.5,13.2v83.2H1117V122.1c0-3.9-2.3-4.5-4.6-4.5-2.1,0-3.3,1.1-4.6,2.4a14.65,14.65,0,0,0-1.7,2.4v80.1Z"/><path class="cls-1" d="M302.64,43a130.8,130.8,0,0,1-17,1.2c-7.2,0-13.9-1-16.8-2.5-3.5-1.8-5-4-5-7.4a11.67,11.67,0,0,1,3.9-8.6l4.3,2.8c-1.7,1.9-2.4,3.4-2.4,5.1s1,2.9,3.1,3.7,7.5,1.4,12.6,1.4a108.14,108.14,0,0,0,16.4-1.2Zm-3.7-36.9v5.2h-30.3V6.1Z"/><path class="cls-1" d="M352.54,44.3a149.07,149.07,0,0,1-15.2.7,79.59,79.59,0,0,1-15.5-1.2c-5.2-1.4-8.2-4.7-8.2-9,0-3.9,1.7-7.1,5.2-10a29.67,29.67,0,0,1,6.7-4.1,117.72,117.72,0,0,1-6.2-16.9l5.5-1.4a159.45,159.45,0,0,0,5.4,16.1,108.07,108.07,0,0,1,16.6-6l2.5,4.7c-6.7,1.6-18.6,6.1-24,9.1-3.8,2.1-6,5.1-6,8,0,2.2,1.4,3.8,4.1,4.7,2.2.7,6.5,1.1,12.2,1.1a153,153,0,0,0,16.4-.9ZM349.34,12a40.52,40.52,0,0,0-4.9-8.5l3.8-1.3a44.37,44.37,0,0,1,5,8.4Zm6.3-2.1a37.7,37.7,0,0,0-4.9-8.6l3.6-1.2a29.73,29.73,0,0,1,4.9,8.2Z"/><path class="cls-1" d="M382.54,2.6l-1.2,6.8h14.8v4.7h-15.6l-1.3,7.6h14v4.7h-14.8a43.06,43.06,0,0,0-.7,6.7c0,2.6.6,4,2.1,5.3,1.7,1.5,4.6,2.3,8.1,2.3,7.3,0,11.2-2.7,11.2-7.8a21.55,21.55,0,0,0-1.5-7.1l5.2-.3a19.12,19.12,0,0,1,2,7.7c0,4.1-1.5,7.3-4.5,9.4s-7.6,3.3-12.6,3.3c-10.3,0-15.8-4.4-15.8-12.3a37,37,0,0,1,.8-7h-9.3V21.9h10.2l1.4-7.6h-10.9V9.6h11.8l1.3-7.3Z"/><path class="cls-1" d="M438.24,40.5c9.8-2.4,14.6-7.7,14.6-16.2,0-5.9-2.7-10.9-7.4-13.4a15.46,15.46,0,0,0-5.5-1.8c-1.5,11.4-3.6,18.7-7.3,25.7-1.4,2.7-2.5,4.4-3.8,5.5a8.45,8.45,0,0,1-5.7,2.7c-5.8,0-10.6-7.1-10.6-15.7a23,23,0,0,1,11.4-19.7,24.4,24.4,0,0,1,12.8-3.3c12.9,0,21.8,8.1,21.8,19.8,0,11.1-5.8,18.2-17.5,21.2Zm-3.7-31.6a16.3,16.3,0,0,0-10.2,4.5,18.38,18.38,0,0,0-6.1,13.7c0,5.3,2.3,10.2,4.8,10.2,1.3,0,2.4-1.1,4-3.8,3.6-6,6.1-14.3,7.3-23.7Z"/><path class="cls-1" d="M475.94,9.6c.6-2.6.9-3.9,1.6-7.7l5.6.7c-.5,2.3-1,4.9-1.6,7H498v4.8h-17.7c-3.2,12.6-7,23.6-11,31.8l-5.5-1.9a174.11,174.11,0,0,0,10.9-29.9h-10.4V9.6Zm32.3,35.3a81.25,81.25,0,0,1-9,.5c-4.9,0-9.7-.5-12.2-1.4a6.69,6.69,0,0,1-4.9-6.4,9,9,0,0,1,2-5.4l4.4,2.5a3.23,3.23,0,0,0-.8,2.1,2.69,2.69,0,0,0,1.6,2.5,29,29,0,0,0,8.2.9,68.2,68.2,0,0,0,10-.7Zm-23.3-23.8a197.68,197.68,0,0,1,21.3-1.1l.3,4.9c-7.1,0-14.8.4-20.8,1Z"/><path class="cls-1" d="M524.34,4.6a86,86,0,0,0,2.3,8.3,28,28,0,0,1,13.2-3.3c.5-2.6.8-4.5,1.1-7.2l5.5,1c-.4,2.5-.8,4.8-1.1,6.7a17,17,0,0,1,8.7,4.3,16.66,16.66,0,0,1,5.2,12.5c0,6.2-2,10.7-6.1,13.8a24.45,24.45,0,0,1-11.2,4.4l-2.6-4.5a24.71,24.71,0,0,0,10.2-4c2.7-2.1,4-5.4,4-10.1,0-6-3.2-10.3-9.1-12-2.3,9.3-4.5,14.2-8.3,19.2-4.5,5.9-9.6,9.4-13.8,9.4-4.6,0-7.6-4.1-7.6-10.5a22.6,22.6,0,0,1,7.7-16.7c-.8-2.3-2-6.3-2.8-9.7Zm-4.6,27.6c0,3.7,1.2,6,3,6s4.1-1.6,7-4.8A74.18,74.18,0,0,1,524,20.8C521,24.6,519.74,28.1,519.74,32.2Zm8.4-14.8a77.47,77.47,0,0,0,5,11.7,43.49,43.49,0,0,0,5.7-15A21,21,0,0,0,528.14,17.4Z"/><path class="cls-1" d="M590.64,40.5c9.8-2.4,14.6-7.7,14.6-16.2,0-5.9-2.7-10.9-7.4-13.4a15.46,15.46,0,0,0-5.5-1.8c-1.6,11.4-3.6,18.7-7.3,25.7-1.4,2.7-2.5,4.4-3.8,5.5a8.45,8.45,0,0,1-5.7,2.7c-5.8,0-10.6-7.1-10.6-15.7a23,23,0,0,1,11.4-19.7,24.4,24.4,0,0,1,12.8-3.3c12.9,0,21.8,8.1,21.8,19.8,0,11.1-5.8,18.2-17.5,21.2Zm-3.7-31.6a16.3,16.3,0,0,0-10.2,4.5,18.38,18.38,0,0,0-6.1,13.7c0,5.3,2.3,10.2,4.8,10.2,1.3,0,2.4-1.1,4-3.8,3.6-6,6.1-14.3,7.3-23.7Z"/><path class="cls-1" d="M649.34,8.6l6.1,5.4c-1.6,19.1-9.4,27.6-29.8,32l-2.8-4.9c18.3-2.9,26.1-11,26.6-27.5h-32v-5Zm14.8-2.5a6.2,6.2,0,0,1-12.4,0,6.2,6.2,0,0,1,12.4,0Zm-9.4,0a3.2,3.2,0,0,0,6.4,0,3.2,3.2,0,0,0-3.2-3.1A3.27,3.27,0,0,0,654.74,6.1Z"/><path class="cls-1" d="M709.14,6.5v37h-38.9V6.5ZM676,38.4h27.3V11.6H676Z"/><path class="cls-1" d="M756.84,13.4c-3.8,18.2-12.3,27.4-30.6,32.7l-3.1-4.9c15.7-3.7,24.9-12.6,28-27.2h-16.5a42.39,42.39,0,0,1-11.9,11.6l-4-4c7.8-4.8,12.9-11,15.7-19.2l5.3,1.4a53.13,53.13,0,0,1-2.3,5.2h14.7ZM754,9.6a35.34,35.34,0,0,0-4.4-8l4.2-.9a30.94,30.94,0,0,1,4.5,7.9Zm7.5-.3a36.15,36.15,0,0,0-4.4-8.5l4.1-.8a36.32,36.32,0,0,1,4.4,8.1Z"/><path class="cls-1" d="M811.94,16.3c-1.9,19.2-9.6,26.9-30,29.6l-2.5-4.9c7.1-.6,13-2.3,16.9-4.9A19.56,19.56,0,0,0,805,21.2h-34.4V16.3Zm-5-11.7V9.5h-32.7V4.6Z"/><path class="cls-1" d="M858.94,46c-12.6-3.8-26.1-7.2-36.9-9.4l1.1-5.5a334.73,334.73,0,0,1,36.7,9.4Zm-1-31.3a280,280,0,0,0-31.2-6.8l.9-5.1a226.94,226.94,0,0,1,31.1,6.6Zm-2.7,14.1a207.43,207.43,0,0,0-27.8-6.5l.9-5.3A191,191,0,0,1,856,23.5Z"/><path class="cls-1" d="M890.14,15.5a94.37,94.37,0,0,0-16.3-5.4l1.7-5.2A74.22,74.22,0,0,1,892,10.3Zm-15.7,23.8c21.5-1.4,31.2-9.5,34.9-29.5l4.8,3.4c-4.3,20.8-14.9,29.6-38.5,31.7Z"/><path class="cls-1" d="M960,13.4c-3.8,18.2-12.3,27.4-30.6,32.7l-3.1-4.9c15.7-3.7,24.9-12.6,28-27.2h-16.5a42.39,42.39,0,0,1-11.9,11.6l-4-4c7.8-4.8,12.9-11,15.7-19.2l5.3,1.4a53.13,53.13,0,0,1-2.3,5.2h14.7Zm-2.9-3.8a35.34,35.34,0,0,0-4.4-8l4.2-.9a30.94,30.94,0,0,1,4.5,7.9Zm7.5-.3a36.15,36.15,0,0,0-4.4-8.5l4.1-.8a36.32,36.32,0,0,1,4.4,8.1Z"/><path class="cls-1" d="M982.24,36.5c3.7,4,7.8,5.5,16.2,5.5h20.8a22.48,22.48,0,0,0-1.5,4.8h-20.6c-8.8-.2-12.7-1.6-16.8-5.9a36.45,36.45,0,0,1-7.6,7.1l-3-4.8a47.14,47.14,0,0,0,7.2-5V25.8h-6.7V21.1h12Zm-3.5-22.4a47.76,47.76,0,0,0-7.6-9.2l4.1-3.1a53.22,53.22,0,0,1,7.9,8.8Zm5.7-3.3V6.7h7.9c-1.1-1.7-1.6-2.4-2.8-4l4.9-1.7a33.47,33.47,0,0,1,3.3,5.7h6.4a47,47,0,0,0,2.4-5.8L1012,2c-.7,1.5-1.6,3.1-2.5,4.7h8.3v4.1h-14.6c-.6,1.7-.7,1.9-1.3,3.5h12.7V39h-27.1V14.3h9.2a29.11,29.11,0,0,0,1.2-3.5Zm8.2,10.6h16.8V17.8h-16.8Zm0,6.9h16.8V24.7h-16.8Zm0,7.2h16.8V31.7h-16.8Z"/><path class="cls-1" d="M1059.14,32a28.55,28.55,0,0,1-12.8,15.1l-3.5-2.9a26.34,26.34,0,0,0,11.7-12.1H1051a30.66,30.66,0,0,1-14.6,13.1l-3.1-3.1c5.5-2.3,10.1-5.7,12.9-9.9h-3.3a20,20,0,0,1-4.6,3.6l-2.8-2.6a81.36,81.36,0,0,1-13.3,6.4l-1.8-4.9c2.3-.7,3.8-1.2,6.7-2.3V16.1h-5.8V11.3h5.8V1.1h5.1V11.3h4.9v4.8h-4.9v14c1.6-.7,2.4-1.1,4.6-2.2l.7,3a20,20,0,0,0,5-5.5h-7v-4h34v4h-21.6c-.4.7-1,1.7-1.7,2.7h21.5c-.4,7.8-1,13.7-1.9,16.4-.8,2.4-2.2,3.2-5.7,3.2a41.93,41.93,0,0,1-5-.3l-.9-4.6a24,24,0,0,0,4.6.5c1.6,0,2-.3,2.4-1.8a49.47,49.47,0,0,0,1.2-9.5Zm5.8-13h-25.5V2.5h25.5Zm-20.6-10h15.6V6.2h-15.6Zm0,6.4h15.6V12.5h-15.6Z"/><g id="桃"><g id="葉っぱ"><g id="path64"><path class="cls-1" d="M125.25,189.31c-1.62.43-3.24.87-4.86,1.47,11.41-13.89,24.29-20.88,37.49-23.31,13.85-2.51,27.86,0,40.75,4.89a130.35,130.35,0,0,1,26.82,14.29,120.65,120.65,0,0,1,20,17c-.49.18-.89.35-1.3.52q-11.89,4.54-22.35,7.78c-15.87,5-29.24,7.95-40.66,9.26-36.61,4.08-52.33-9.45-61-30.13l.24-.35C122,190.26,123.63,189.74,125.25,189.31ZM149,185.76c1.62-.09,3.24-.18,4.86-.18C152.22,185.58,150.6,185.67,149,185.76Zm6.72-.18h0Zm5.67.08c1.14,0,2.35.09,3.49.17C163.72,185.75,162.51,185.66,161.37,185.66Zm5.59.26,3.08.25Zm20.74,2.4c1.54.25,3.08.51,4.62.85-1.54-.25-3-.6-4.54-.85Zm-15.47-2c1.05.09,2.1.18,3.16.35C174.33,186.52,173.28,186.43,172.23,186.34Zm5.18.52c1.14.17,2.19.25,3.24.43C179.6,187.11,178.55,187,177.41,186.86Zm5.19.68c1.13.18,2.35.35,3.48.52C185,187.89,183.73,187.72,182.6,187.54Zm11.42,2c1,.17,2,.43,3.08.6C196.05,189.86,195.07,189.69,194,189.52Zm4.94,1c1,.17,1.95.43,2.92.69A19.15,19.15,0,0,0,199,190.55Zm4.54,1c1.22.26,2.43.6,3.65.86C205.93,192.1,204.72,191.84,203.5,191.58Zm15.47,4,.33.09-.24-.09Zm-7.53-2.06.81.25A1.5,1.5,0,0,0,211.44,193.56Zm3.81,1,.32.08Zm7.37,2.15.32.08Zm18.72,6.36a1.36,1.36,0,0,0,.56.18C241.74,203.19,241.5,203.19,241.34,203.1Zm-11.83-4.21.32.08Zm6.24,2.15c.16.09.32.08.4.17C236.07,201.12,235.91,201.13,235.75,201ZM131.08,187.93c-1.62.34-3.24.69-4.86,1.12C127.84,188.62,129.46,188.27,131.08,187.93Zm17.25-2.17c-1.7.09-3.32.26-5,.35C145,186,146.71,185.85,148.33,185.76Zm-6.15.52c-1.62.18-3.33.35-5,.61C138.85,186.63,140.56,186.46,142.18,186.28Zm-5.76.7-4.45.77Z"/></g><g id="path641"><path class="cls-1" d="M120.22,188.87a49.91,49.91,0,0,1,4.86,1.47c-11.41-13.89-24.29-20.88-37.49-23.31-13.85-2.51-27.87,0-40.75,4.89A130.35,130.35,0,0,0,20,186.21a120.65,120.65,0,0,0-20,17c.49.18.89.35,1.3.52q11.9,4.53,22.35,7.78c15.87,5,29.24,7.95,40.66,9.25,36.61,4.08,52.33-9.44,61-30.13l-.24-.34C123.46,189.82,121.84,189.3,120.22,188.87Zm-23.73-3.55c-1.62-.09-3.24-.18-4.86-.18C93.25,185.14,94.87,185.23,96.49,185.32Zm-6.72-.18h0Zm-5.67.08c-1.14,0-2.35.09-3.49.17C81.75,185.31,83,185.22,84.1,185.22Zm-5.59.26-3.08.25Zm-20.74,2.39c-1.54.26-3.08.52-4.62.86,1.54-.25,3-.6,4.54-.86Zm15.47-2c-1,.09-2.11.17-3.16.35C71.13,186.07,72.19,186,73.24,185.9Zm-5.18.52c-1.14.17-2.19.25-3.25.42C65.87,186.67,66.92,186.59,68.06,186.42Zm-5.19.68c-1.13.17-2.35.34-3.48.52C60.52,187.44,61.74,187.27,62.87,187.1Zm-11.42,2c-1.06.17-2,.43-3.08.6C49.42,189.42,50.39,189.25,51.45,189.08Zm-4.94,1c-1,.17-1.95.43-2.92.68A20,20,0,0,1,46.51,190.11Zm-4.54,1c-1.22.26-2.43.6-3.65.86C39.54,191.65,40.75,191.4,42,191.14Zm-15.48,4-.32.08.24-.08ZM34,193.11c-.24.09-.57.18-.81.26A1.52,1.52,0,0,1,34,193.11Zm-3.81,1-.32.08Zm-7.37,2.15-.33.08ZM4.13,202.66a1.34,1.34,0,0,1-.57.17C3.73,202.75,4,202.75,4.13,202.66ZM16,198.45l-.32.08ZM9.72,200.6c-.16.08-.32.08-.4.17C9.4,200.68,9.56,200.68,9.72,200.6Zm104.67-13.11c1.62.34,3.24.69,4.86,1.12C117.63,188.18,116,187.83,114.39,187.49Zm-17.25-2.17c1.7.09,3.32.26,5,.35C100.46,185.58,98.76,185.41,97.14,185.32Zm6.15.52c1.62.17,3.32.35,4.94.61C106.61,186.19,104.91,186,103.29,185.84Zm5.75.69,4.46.78Z"/></g></g><g id="実"><g id="path74-7"><path class="cls-1" d="M.25,55.67c24.76,19.07-11.7,54.11,24,103,47.88,65.53,118.8,43.71,123.17,6.28C151,134.63,108.39,94.57.25,55.67Z"/></g><g id="path74-71"><path class="cls-1" d="M245.22,55.67c-24.77,19.07,11.7,54.11-24,103C173.32,224.16,102.39,202.34,98,164.91,94.45,134.63,137.08,94.57,245.22,55.67Z"/></g></g></g><g id="ロゴ本体"><g id="g100"><ellipse id="circle13" class="cls-2" cx="123.63" cy="97.31" rx="90.64" ry="94.77"/><path id="path15" class="cls-3" d="M122.73,2c51.07,0,92.53,43.33,92.53,96.58,0,53.43-41.46,96.67-92.53,96.67S30.21,151.91,30.21,98.66C30.21,45.23,71.58,2,122.73,2Zm-.89,5h-1.26c-47.83.72-86.42,41.51-86.42,91.61s38.68,91.07,86.69,91.61c-23.69-.54-42.72-20.94-42.72-45.85C78.13,119,97.79,98.48,122,98.48S165.9,78,165.9,52.63C165.63,27.45,146,7,121.84,7Z"/><path id="path17" class="cls-3" d="M109.27,60.48V26.27a5.26,5.26,0,0,1,1.62-3.88,5.32,5.32,0,0,1,3.68-1.62h17.05a5.11,5.11,0,0,1,3.68,1.62,5.53,5.53,0,0,1,1.52,3.88V60.48a5.52,5.52,0,0,1-1.52,3.88A5.38,5.38,0,0,1,131.53,66h-17a4.89,4.89,0,0,1-3.77-1.63A5.87,5.87,0,0,1,109.27,60.48Zm22.44-.36L131,26.36l-16.6.36.72,33.76Z"/><path id="path19" class="cls-4" d="M115.55,163.74h8.35V130h-8.26a2.79,2.79,0,0,1-2-.81,3.06,3.06,0,0,1,0-4.15,2.61,2.61,0,0,1,2-.82h13.74v39.35h5.47V151.73a2.79,2.79,0,0,1,.81-2,2.6,2.6,0,0,1,2-.82,2.76,2.76,0,0,1,2,.82,2.89,2.89,0,0,1,.81,2.07v14.72a2.89,2.89,0,0,1-.81,2.07,2.65,2.65,0,0,1-2,.81H115.55a3.24,3.24,0,0,1-2-.81,2.85,2.85,0,0,1-.81-2.07,2.8,2.8,0,0,1,.81-2A3,3,0,0,1,115.55,163.74Z"/></g></g><g id="文字"><g class="cls-5"><g class="cls-5"><path class="cls-1" d="M49.89,73.64v8.64h.16l.19-.4,3.45-8.24h4l-3.81,8.14,4.3,16.57h-4L51.31,87.59l-.11-.5h-.12l-.23.5-1,2v8.74H45.74V73.64Z"/><path class="cls-1" d="M69.74,93.88a4.6,4.6,0,0,1-5,4.74,4.47,4.47,0,0,1-4.34-2.42,6.21,6.21,0,0,1-.61-2.42V84.53a5.13,5.13,0,0,1,2.07-4.1,4.71,4.71,0,0,1,2.88-.74,4.54,4.54,0,0,1,4.38,2.39,5.68,5.68,0,0,1,.61,2.35ZM66.1,84.53a2.05,2.05,0,0,0-.5-1.61,1.29,1.29,0,0,0-.85-.27,1.16,1.16,0,0,0-1.19.94,1.88,1.88,0,0,0-.11.94v9.25a2,2,0,0,0,.5,1.58,1.22,1.22,0,0,0,.8.26,1.17,1.17,0,0,0,1.23-.9,1.88,1.88,0,0,0,.12-.94Z"/></g><g class="cls-5"><path class="cls-1" d="M76.27,98.35H72.39V80h3.88v1.55a3.51,3.51,0,0,0,.46-.37,7.83,7.83,0,0,1,1.69-1.21,2.19,2.19,0,0,1,1-.24,2.63,2.63,0,0,1,2.23,1.21,4.58,4.58,0,0,1,.69,2.39V98.35H78.46V83.79c0-.7-.46-.8-.92-.8a1.31,1.31,0,0,0-.92.43c-.12.14-.23.27-.35.44Z"/></g><g class="cls-5"><path class="cls-1" d="M91,84.33a3.63,3.63,0,0,0-.12-1.11,1,1,0,0,0-1-.57c-.65,0-.92.44-1,1a5.85,5.85,0,0,0-.08.87v.87H84.91V84.6a4.86,4.86,0,0,1,1.5-3.46,5.23,5.23,0,0,1,3.72-1.45,5.14,5.14,0,0,1,3.31,1.18,3.85,3.85,0,0,1,1.42,3V95.15a14.44,14.44,0,0,0,.27,3.2H91.32A2.59,2.59,0,0,1,91,96.87h-.27A3.92,3.92,0,0,1,89.63,98a3.63,3.63,0,0,1-2,.64,2.64,2.64,0,0,1-1.92-.84,5,5,0,0,1-1.19-3.7,6.53,6.53,0,0,1,1.61-4.54,9.08,9.08,0,0,1,3-2.08c1-.44,1.69-.74,1.84-1.11Zm0,5.14a4.15,4.15,0,0,0-2.69,4.1,2.84,2.84,0,0,0,.19,1,1,1,0,0,0,.89.71c.88,0,1.61-.47,1.61-1.11Z"/></g><g class="cls-5"><path class="cls-1" d="M101.27,98.35H97.39V80h3.88v1.55a3.51,3.51,0,0,0,.46-.37,7.59,7.59,0,0,1,1.69-1.21,2.16,2.16,0,0,1,1-.24,2.65,2.65,0,0,1,2.23,1.21,4.58,4.58,0,0,1,.69,2.39V98.35h-3.88V83.79c0-.7-.46-.8-.92-.8a1.28,1.28,0,0,0-.92.43c-.12.14-.23.27-.35.44Z"/></g></g><g class="cls-5"><path class="cls-2" d="M167.83,118.41c0,1.13-.28,1.7-1.05,2a13.06,13.06,0,0,1-4.07.31,6.81,6.81,0,0,0-.66-1.75c1.51.07,2.92,0,3.33,0s.58-.15.58-.61v-18H148.64V120.7H146.8V98.57h21Zm-6.37-1V116h-8.57v1.75h-1.61v-8.65h1.61v5.25h3.38v-7.15h-6.4v-1.65h15v1.65H158v7.15h3.45v-5.25h1.66v8.26Zm-8.24-16.49a12.19,12.19,0,0,1,2,3.93l-1.61.6a13.08,13.08,0,0,0-1.9-4Zm9.67.38a40.62,40.62,0,0,1-2.32,4.2l-1.46-.49a24.24,24.24,0,0,0,1.92-4.22Z"/><path class="cls-2" d="M183.85,101.58v2.73h8.83v14.18c0,1.13-.28,1.65-1.1,1.93a15.22,15.22,0,0,1-4.33.31,8.79,8.79,0,0,0-.69-1.73c1.61.08,3.17.08,3.61,0s.59-.15.59-.56V106.08H174.92V120.7h-1.87V104.31h8.73v-2.73H171.67v-1.8h10.11V97.23h2.07v2.55H194v1.8Zm-.18,14.21v4.42h-1.82v-4.42h-5.5v-1.6h5.5v-2.6h-5V110h7.29a27.22,27.22,0,0,0,1.77-3.6l1.63.46c-.56,1.08-1.15,2.24-1.74,3.14h3.1v1.57h-5.27v2.6h5.71v1.6Zm-4-9.34a12.17,12.17,0,0,1,1.61,3l-1.56.56a13.3,13.3,0,0,0-1.56-3.11Z"/></g></g></g></g></svg>