<?xml version="1.0" encoding="utf-8"?>
<!-- Generator: Adobe Illustrator 24.0.1, SVG Export Plug-In . SVG Version: 6.00 Build 0)  -->
<svg version="1.1" id="レイヤー1" xmlns="http://www.w3.org/2000/svg" xmlns:xlink="http://www.w3.org/1999/xlink" x="0px"
	 y="0px" viewBox="0 0 1722 359.9" style="enable-background:new 0 0 1722 359.9;" xml:space="preserve">
<style type="text/css">
	.st0{fill:#FFFFFF;}
	.st1{fill:#7BA23F;}
	.st2{fill-rule:evenodd;clip-rule:evenodd;fill:#FFFFFF;}
	.st3{fill-rule:evenodd;clip-rule:evenodd;fill:#7BA23F;}
</style>
<title>アセット 1</title>
<g id="レイヤー_1-2">
	<path class="st0" d="M499.3,227.2v27.6c-0.1,7.7-1.9,15.1-5.1,22c-2.8,5.9-6.9,10.9-12.2,14.7c-5.7,4.4-13.3,6.8-23.6,6.8
		s-18.1-2.5-23.7-6.8c-5.1-3.9-9.2-8.9-11.9-14.7c-3.3-6.9-5-14.3-5.1-22V136.5c0.1-7.5,1.9-14.9,5.1-21.6c2.6-6,6.7-11.2,11.9-15.1
		c5.7-4.1,13.6-6.8,23.7-6.8c15.3-0.9,29.6,7.8,35.8,21.8c3.3,6.8,5,14.2,5.1,21.6V164h-28.5v-27.6c0.3-4.6-1.4-9.2-4.5-12.6
		c-2-1.5-4.5-2.4-7-2.3c-5.4,0-7.9,3.8-9.3,7.4c-0.8,2.4-1.3,4.9-1.5,7.4v118.4c0.3,5.8,1.9,9.5,4.9,12.6c1.6,1.5,3.8,2.3,5.9,2.3
		c6.5,0,9-3.3,10.4-7.4c0.9-2.4,1.3-4.9,1.1-7.4v-27.6L499.3,227.2L499.3,227.2z"/>
	<path class="st0" d="M588.3,259.7c-0.9,14.4-5.4,24.6-15.3,32.5c-5.1,4.1-12.2,6-21.5,6c-18.5,0-27.4-9.9-31.9-19.7
		c-2.8-6.3-4.3-12.9-4.5-19.7v-75.2c0.9-14.4,5.4-25.1,15.3-33.4c4.9-4.1,11.9-6,21.2-6c18.5,0,27.6,9.9,32.3,19.5
		c2.8,6,4.3,12.6,4.5,19.1L588.3,259.7L588.3,259.7z M561.3,183.8c0.3-5.8-0.9-9.9-3.6-13.1c-1.8-1.5-3.9-2.3-6.2-2.3
		c-5.4,0-7.7,3.5-8.8,7.7c-0.9,2.4-1.3,5-0.9,7.7V259c-0.3,5.8,1.1,9.9,3.6,12.8c1.6,1.5,3.8,2.3,5.9,2.3c5.4,0,7.9-3.3,9-7.4
		c0.9-2.4,1.3-5,0.9-7.7L561.3,183.8L561.3,183.8z"/>
	<path class="st0" d="M680.6,296.1h-28.5v-9.9c-4.3,4.1-9,7.5-14.4,10.2c-2.5,1.3-5.4,1.9-8.3,1.9c-7.9,0-13.3-4.4-16.6-10.2
		c-3.6-5.8-5.5-12.4-5.4-19.1v-95.4c0-6.9,1.9-13.6,5.4-19.5c3.4-5.4,8.8-9.9,16.6-9.9c5.4,0,11.1,2.9,15.3,6c2.5,1.9,4.9,3.8,7.4,6
		V95.1h28.5V296.1z M651.8,179.4c0-4.4-4.3-9-8.5-9c-4.3,0-7.7,3.8-7.7,9v83.9c0,5.1,3.4,9,7.7,9c4.8-0.3,8.5-4.1,8.5-9V179.4z"/>
	<path class="st0" d="M774.6,242.5v17.2c-0.9,14.4-5.4,24.6-15.6,32.5c-5.1,4.1-12.2,6-21.5,6c-18.5,0-27.6-9.9-32.3-19.7
		c-2.8-6.3-4.3-12.9-4.5-19.7v-75.2c0.9-14.4,5.7-25.1,15.9-33.4c4.9-4.1,11.9-6,21.2-6c18.5,0,27.6,9.9,32.3,19.5
		c2.8,6,4.3,12.6,4.5,19.1v43.4h-47.2v32.5c0.3,5.8,1.9,9.9,4.5,12.8c1.6,1.5,3.8,2.3,5.9,2.3c5.4,0,7.9-3.3,9-7.4
		c0.9-2.5,1.3-5,1.1-7.7v-16.3h26.6L774.6,242.5z M727.6,204.9h20.6v-21.1c0-5.8-1.1-9.9-4-13.1c-1.8-1.5-3.9-2.3-6.2-2.3
		c-5.4,0-7.7,3.5-9,7.7c-0.9,2.5-1.4,5-1.5,7.7L727.6,204.9z"/>
	<path class="st0" d="M851.4,175c-2.6-0.8-5.3-1.1-7.9-1c-4.5,0-9.9,0.6-14.4,4.8c-5.4,4.4-6.2,9-6.2,13.7v104h-28.5V146.6h28.5
		v16.6c1.1-4.3,3.5-8,6.8-10.9c5.9-5.4,13.8-8.2,21.8-7.9L851.4,175L851.4,175z"/>
	<path class="st0" d="M863.9,296.1V95.2h24c28.3,0,43.6,5.4,51.9,20.7c7.9,15.3,9.2,40.4,9.2,79.7s-1.1,64.3-9.2,79.6
		c-8.3,15.3-23.4,20.7-51.9,20.7h-24V296.1z M894.3,266.6c10.4,0,16.3-1,19.6-10.9c1.5-4.8,2.5-11.8,2.8-21.3
		c0.3-9.5,0.3-22.4,0.3-38.9s0-29.3-0.3-38.9c-0.1-7.2-1.1-14.3-2.8-21.3c-3.1-9.5-9.2-10.5-19.6-10.5V266.6z"/>
	<path class="st0" d="M1039.9,259.7c-0.9,14.4-5.4,24.6-15.3,32.5c-5.1,4.1-12.2,6-21.5,6c-18.5,0-27.4-9.9-31.9-19.7
		c-2.8-6.3-4.3-12.9-4.5-19.7v-75.2c0.9-14.4,5.4-25.1,15.3-33.4c4.9-4.1,11.9-6,21.2-6c18.5,0,27.6,9.9,32.3,19.5
		c2.8,6,4.3,12.6,4.5,19.1L1039.9,259.7L1039.9,259.7z M1012.9,183.8c0.3-5.8-0.9-9.9-3.6-13.1c-1.8-1.5-3.9-2.3-6.2-2.3
		c-5.4,0-7.7,3.5-8.8,7.7c-0.9,2.4-1.3,5-0.9,7.7V259c-0.3,5.8,1.1,9.9,3.6,12.8c1.6,1.5,3.8,2.3,5.9,2.3c5.4,0,7.9-3.3,9.2-7.4
		c0.9-2.4,1.3-5,0.9-7.7v-75.2H1012.9z"/>
	<path class="st0" d="M1087.7,146.6V300c0,7.7,0,19.7-4,29.6c-4,10.2-12.7,18.1-28.9,18.1c-3.3,0.1-6.4-0.1-9.5-0.9
		c-1.1-0.3-1.9-0.6-2.8-0.9v-25.5c0.9,0.3,1.8,0.3,2.5,0.6c1.8,0.4,3.6,0.5,5.4,0.6c4.9,0,7-3.8,8.3-8.5c0.4-2.4,0.5-4.6,0.6-7
		V146.7h28.4V146.6z M1059.1,95.1h28.5v27.6h-28.5V95.1z"/>
	<path class="st0" d="M1181,259.7c-0.9,14.4-5.4,24.6-15.3,32.5c-5.1,4.1-12.2,6-21.5,6c-18.5,0-27.4-9.9-31.9-19.7
		c-2.8-6.3-4.3-12.9-4.5-19.7v-75.2c0.9-14.4,5.4-25.1,15.3-33.4c4.9-4.1,11.9-6,21.2-6c18.5,0,27.6,9.9,32.3,19.5
		c2.8,6,4.3,12.6,4.5,19.1L1181,259.7L1181,259.7z M1154,183.8c0.3-5.8-0.9-9.9-3.6-13.1c-1.8-1.5-3.9-2.3-6.2-2.3
		c-5.4,0-7.7,3.5-8.8,7.7c-0.9,2.4-1.3,5-0.9,7.7V259c-0.3,5.8,1.1,9.9,3.6,12.8c1.6,1.5,3.8,2.3,5.9,2.3c5.4,0,7.9-3.3,9-7.4
		c0.9-2.4,1.3-5,0.9-7.7V183.8L1154,183.8z"/>
	<path class="st0" d="M1275.2,95.1v70.2h1.1l1.5-3.3l25.5-66.9h29.8l-28,66.3l31.6,134.9h-29.8l-21.2-87.4l-0.9-4.1h-0.9l-1.8,4.1
		l-7,16.3v71.1h-30.6V95.1H1275.2z"/>
	<path class="st0" d="M1421.3,259.7c-0.9,14.4-5.4,24.6-15.3,32.5c-5.1,4.1-12.2,6-21.5,6c-18.5,0-27.4-9.9-31.9-19.7
		c-2.8-6.3-4.3-12.9-4.5-19.7v-75.2c0.9-14.4,5.4-25.1,15.3-33.4c4.9-4.1,11.9-6,21.2-6c18.5,0,27.6,9.9,32.3,19.5
		c2.8,6,4.3,12.6,4.5,19.1L1421.3,259.7L1421.3,259.7z M1394.6,183.8c0.3-5.8-0.9-9.9-3.6-13.1c-1.8-1.5-3.9-2.3-6.2-2.3
		c-5.4,0-7.7,3.5-8.8,7.7c-0.9,2.4-1.3,5-0.9,7.7V259c-0.3,5.8,1.1,9.9,3.6,12.8c1.6,1.5,3.8,2.3,5.9,2.3c5.4,0,7.9-3.3,9-7.4
		c0.9-2.4,1.3-5,0.9-7.7V183.8L1394.6,183.8z"/>
	<path class="st0" d="M1470.2,296.1h-28.6V146.6h28.5v12.6c1.3-0.9,2.4-1.9,3.4-2.9c3.8-3.8,7.9-7.2,12.6-9.9
		c2.3-1.3,4.8-1.9,7.4-1.9c7.7,0,12.9,4.4,16.3,9.9c3.4,5.9,5.1,12.7,5.1,19.5v122.4h-28.5V177.9c0-5.8-3.4-6.7-6.8-6.7
		c-3.1,0-4.9,1.6-6.8,3.5c-1,1.1-1.8,2.3-2.5,3.5v117.9L1470.2,296.1L1470.2,296.1z"/>
	<path class="st0" d="M1580.2,182.1c0.1-3-0.1-6-0.9-9c-1.1-2.9-3.9-4.9-7-4.8c-4.9,0-6.8,3.5-7.7,7.9c-0.4,2.4-0.5,4.6-0.6,7v7
		h-28.5V184c0-10.4,3.9-20.5,11.1-28.1c7-7.7,17-11.9,27.4-11.8c9,0,17.7,3.4,24.2,9.5c6.8,6.3,10.5,15.1,10.4,24.2V270
		c-0.1,8.7,0.5,17.3,1.9,25.9h-28c-2.5-2.9-2.5-10.2-2.5-12.1h-1.9c-2,3.5-4.8,6.5-7.9,9c-4.4,3.3-9.5,5-15.1,5.1
		c-5.5,0-10.7-2.5-14.2-6.8c-4.9-5.1-8.8-14.4-8.8-30c0-16.6,5.1-28.8,11.9-36.9s15.3-13.4,22.4-17c7-3.5,12.6-6,13.6-9v-16.2
		H1580.2z M1580.2,223.9c-13.8,5.8-19.8,19.1-19.8,33.4c0,2.8,0.5,5.7,1.5,8.3c1.1,3.3,3.1,5.8,6.5,5.8c6.5,0,11.9-3.8,11.9-9v-38.4
		H1580.2z"/>
	<path class="st0" d="M1656.8,296.1h-28.5V146.6h28.5v12.6c1.3-0.9,2.4-1.9,3.4-2.9c3.8-3.8,7.9-7.2,12.6-9.9
		c2.3-1.3,4.8-1.9,7.4-1.9c7.7,0,12.9,4.4,16.3,9.9c3.4,5.9,5.1,12.7,5.1,23.2V300l-28.5-3.8V177.9c0-5.8-3.4-6.7-6.8-6.7
		c-3.1,0-4.9,1.6-6.8,3.5c-1,1.1-1.8,2.3-2.5,3.5v117.9L1656.8,296.1L1656.8,296.1z"/>
	<path class="st0" d="M469.7,82.2c-7.2,0.9-14.3,1.5-21.5,1.5c-9.1,0-17.6-1.2-21.2-3.1c-4.5-2.3-6.3-5-6.3-9.3
		c0-4.2,1.9-8.1,4.9-10.8l5.4,3.5c-2.2,2.4-3,4.3-3,6.5c0,2.2,1.2,3.6,3.9,4.7c2.7,0.9,9.5,1.8,15.9,1.8c6.9,0,13.8-0.5,20.7-1.5
		L469.7,82.2z M465,35.6v6.6h-38.2v-6.6H465z"/>
	<path class="st0" d="M532.6,83.9c-6.3,0.7-12.8,0.9-19.2,0.9c-6.5,0.1-13.1-0.4-19.6-1.5c-6.6-1.8-10.4-5.9-10.4-11.3
		c0-4.9,2.2-8.9,6.6-12.6c2.6-2,5.4-3.8,8.5-5.1c-3.1-6.9-5.8-14-7.8-21.3l6.9-1.8c1.9,6.9,4.2,13.6,6.8,20.3
		c6.8-3.1,13.8-5.7,20.9-7.6l3.1,5.9c-8.5,2-23.5,7.7-30.3,11.5c-4.7,2.7-7.6,6.5-7.6,10.1c0,2.8,1.8,4.7,5.1,5.9
		c2.8,0.9,8.2,1.4,15.4,1.4c6.9,0,13.8-0.4,20.7-1.1L532.6,83.9z M528.6,43.2c-1.6-3.8-3.6-7.4-6.2-10.7l4.7-1.6
		c2.4,3.2,4.6,6.9,6.3,10.5L528.6,43.2z M536.6,40.5c-1.6-3.9-3.6-7.6-6.2-10.8l4.6-1.5c2.6,3.1,4.7,6.6,6.2,10.4L536.6,40.5z"/>
	<path class="st0" d="M570.5,31.3l-1.5,8.5h18.6v5.9h-19.7l-1.6,9.6H584v5.9h-18.6c-0.5,2.8-0.8,5.7-0.9,8.5c0,3.2,0.8,5,2.7,6.6
		c2.2,1.9,5.8,2.8,10.3,2.8c9.2,0,14.2-3.4,14.2-9.9c-0.1-3.1-0.8-6.1-1.9-8.9l6.6-0.4c1.5,3,2.4,6.3,2.6,9.7
		c0,5.1-1.9,9.2-5.7,11.9c-3.8,2.7-9.6,4.2-15.9,4.2c-13,0-20-5.5-20-15.5c0-3,0.4-5.9,0.9-8.8h-11.8v-5.9h12.8L561,46h-13.8v-5.9
		h14.9l1.6-9.2L570.5,31.3z"/>
	<path class="st0" d="M640.7,79.1c12.3-3,18.4-9.7,18.4-20.4c0-7.4-3.4-13.8-9.3-16.9c-2.2-1.2-4.5-1.9-6.9-2.3
		c-1.9,14.3-4.6,23.6-9.2,32.4c-1.8,3.4-3.1,5.5-4.7,6.9c-1.9,2-4.5,3.2-7.2,3.4c-7.3,0-13.4-8.9-13.4-19.9
		c0.1-10.3,5.5-19.7,14.3-24.9c4.9-2.8,10.5-4.3,16.2-4.2c16.2,0,27.6,10.3,27.6,25c0,14-7.3,23-22,26.7L640.7,79.1z M636,39.3
		c-4.9,0.3-9.3,2.3-12.8,5.7c-4.9,4.5-7.7,10.7-7.7,17.3s2.8,12.8,6.1,12.8c1.6,0,3-1.4,5-4.7c4.6-7.6,7.7-18.1,9.2-29.9L636,39.3z"
		/>
	<path class="st0" d="M688.3,40.1c0.8-3.2,1.1-4.9,2-9.7l7,0.9c-0.7,2.8-1.2,6.2-2,8.8h20.8v6.1h-22.3c-4.1,15.9-8.8,29.7-13.9,40.1
		l-6.9-2.4c5.7-12.2,10.3-24.7,13.8-37.7h-13.1v-6.1H688.3z M729.1,84.7c-3.8,0.4-7.6,0.7-11.3,0.7c-6.2,0-12.3-0.7-15.4-1.8
		c-3.6-0.9-6.2-4.3-6.2-8.1c0.1-2.4,0.9-4.9,2.6-6.8l5.5,3.1c-0.7,0.7-0.9,1.6-0.9,2.7c0,1.4,0.8,2.6,2,3.1
		c3.4,0.8,6.9,1.2,10.4,1.1c4.2,0,8.4-0.3,12.6-0.9L729.1,84.7z M699.6,54.7c8.9-0.9,17.8-1.4,26.9-1.4l0.4,6.2
		c-8.9,0-18.6,0.5-26.2,1.2L699.6,54.7z"/>
	<path class="st0" d="M749.3,33.7c0.8,3.5,1.8,7,2.8,10.4c5.1-2.7,10.8-4.2,16.6-4.2c0.7-3.2,0.9-5.7,1.4-9.1l6.9,1.2
		c-0.5,3.1-0.9,6.1-1.4,8.5c4.1,0.7,8,2.6,10.9,5.4c4.3,4.1,6.8,9.9,6.6,15.8c0,7.8-2.6,13.5-7.7,17.4c-4.2,3-9.1,4.9-14.2,5.5
		l-3.2-5.7c4.6-0.7,9.1-2.4,12.8-5c3.4-2.7,5-6.8,5-12.7c0-7.6-4.1-13-11.5-15.1c-2.8,11.8-5.7,18-10.4,24.2
		c-5.7,7.4-12.2,11.9-17.4,11.9c-5.8,0-9.6-5.1-9.6-13.2c0.1-8.1,3.6-15.7,9.7-21.1c-0.9-2.8-2.6-8-3.5-12.3L749.3,33.7z
		 M743.5,68.6c0,4.7,1.5,7.6,3.8,7.6s5.1-2,8.8-6.1c-2.8-5-5.3-10.4-7.3-15.9C745.1,59,743.5,63.5,743.5,68.6L743.5,68.6z M754,50
		c1.8,5.1,3.8,10,6.3,14.7c3.5-5.8,5.9-12.2,7.2-18.9C762.8,45.9,758.1,47.4,754,50L754,50z"/>
	<path class="st0" d="M832.9,79.1c12.3-3,18.4-9.7,18.4-20.4c0-7.4-3.4-13.8-9.3-16.9c-2.2-1.2-4.5-1.9-6.9-2.3
		c-2,14.3-4.6,23.6-9.2,32.4c-1.8,3.4-3.1,5.5-4.7,6.9c-1.9,2-4.5,3.2-7.2,3.4c-7.3,0-13.4-8.9-13.4-19.9
		c0.1-10.3,5.5-19.7,14.3-24.9c4.9-2.8,10.5-4.3,16.2-4.2c16.2,0,27.6,10.3,27.6,25c0,14-7.3,23-22,26.7L832.9,79.1z M828.2,39.3
		c-4.9,0.3-9.3,2.3-12.8,5.7c-4.9,4.5-7.7,10.7-7.7,17.3s2.8,12.8,6.1,12.8c1.6,0,3-1.4,5-4.7c4.6-7.6,7.7-18.1,9.2-29.9L828.2,39.3
		z"/>
	<path class="st0" d="M907,38.9l7.7,6.8c-2,24-11.9,34.9-37.6,40.4l-3.5-6.2c23.1-3.6,33-13.9,33.5-34.7h-40.4v-6.2H907z
		 M925.6,35.6c0,4.3-3.5,7.8-7.8,7.8s-7.8-3.5-7.8-7.8s3.5-7.8,7.8-7.8C922.1,27.9,925.6,31.4,925.6,35.6z M913.7,35.6
		c0,2.3,1.8,4.1,4.1,4.1c2.3,0,4.1-1.8,4.1-4.1c-0.1-2.2-1.9-3.9-4.1-3.9C915.6,31.9,913.9,33.6,913.7,35.6z"/>
	<path class="st0" d="M982.3,36.2v46.6h-49V36.2H982.3z M940.6,76.4H975V42.7h-34.4V76.4z"/>
	<path class="st0" d="M1042.6,45c-4.7,23-15.5,34.6-38.6,41.2l-3.9-6.2c19.9-4.6,31.3-15.8,35.3-34.3h-20.8
		c-4.1,5.8-9.1,10.8-15,14.6l-5-5c9.9-6.1,16.2-13.9,19.9-24.2l6.6,1.8c-0.8,2.3-1.8,4.5-2.8,6.6h18.5L1042.6,45z M1038.9,40.1
		c-1.4-3.6-3.2-7-5.5-10.1l5.3-1.1c2.4,3,4.3,6.3,5.7,10L1038.9,40.1z M1048.4,39.7c-1.4-3.8-3.2-7.4-5.5-10.7l5.1-0.9
		c2.3,3.1,4.2,6.6,5.5,10.3L1048.4,39.7z"/>
	<path class="st0" d="M1112,48.6c-2.4,24.2-12.2,33.9-37.8,37.3l-3.1-6.2c8.9-0.8,16.3-2.8,21.3-6.2c6.3-4.2,10.4-11.2,10.9-18.8
		H1060v-6.2h52V48.6z M1105.7,33.7V40h-41.2v-6.2H1105.7z"/>
	<path class="st0" d="M1171.3,86c-15.9-4.7-33-9.1-46.6-11.9l1.4-6.9c15.7,3.1,31.1,7,46.3,11.9L1171.3,86z M1170.1,46.6
		c-13-3.6-26.1-6.5-39.3-8.5l1.1-6.5c13.2,1.9,26.3,4.6,39.2,8.4L1170.1,46.6z M1166.6,64.3c-11.5-3.5-23.2-6.2-35.1-8.2l1.1-6.6
		c11.8,1.9,23.5,4.6,34.9,8.2L1166.6,64.3z"/>
	<path class="st0" d="M1210.6,47.5c-6.6-2.8-13.5-5.1-20.5-6.8l2.2-6.6c7.2,1.5,14.2,3.8,20.8,6.8L1210.6,47.5z M1190.9,77.5
		c27.2-1.8,39.3-12,44-37.1l6.1,4.3c-5.4,26.2-18.8,37.3-48.5,40L1190.9,77.5z"/>
	<path class="st0" d="M1298.7,45c-4.7,23-15.5,34.6-38.6,41.2l-3.9-6.2c19.9-4.7,31.3-15.9,35.3-34.3h-20.8
		c-4.1,5.8-9.1,10.8-15,14.6l-5-5c9.9-6.1,16.2-13.9,19.9-24.2l6.6,1.8c-0.8,2.3-1.8,4.5-2.8,6.6h18.5L1298.7,45z M1295.1,40.1
		c-1.4-3.6-3.2-7-5.5-10.1l5.3-1.1c2.4,3,4.3,6.3,5.7,10L1295.1,40.1z M1304.5,39.7c-1.4-3.8-3.2-7.4-5.5-10.7l5.3-0.9
		c2.3,3.1,4.2,6.6,5.5,10.3L1304.5,39.7z"/>
	<path class="st0" d="M1326.8,74c4.7,5,9.9,6.9,20.4,6.9h26.2c-0.8,1.9-1.5,3.9-1.9,6.1h-25.9c-11.1-0.3-16.1-2-21.2-7.4
		c-2.7,3.4-5.9,6.5-9.6,8.9l-3.8-6.1c3.2-1.8,6.2-3.9,9.1-6.3V60.5h-8.5v-5.9h15.1L1326.8,74z M1322.4,45.8
		c-2.7-4.2-5.9-8.1-9.6-11.6l5.1-3.9c3.8,3.4,7,7,10,11.1L1322.4,45.8z M1329.6,41.6v-5.1h10c-1.4-2.2-2-3-3.5-5l6.2-2.2
		c1.6,2.3,3,4.7,4.2,7.2h8.1c1.2-2.4,2.2-4.9,3-7.3l6.9,1.4c-0.9,1.9-2,3.9-3.1,5.9h10.4v5.1h-18.4c-0.8,2.2-0.9,2.4-1.6,4.5h16.1
		v31.2h-34.2V46h11.6c0.5-1.5,1.1-3,1.5-4.5H1329.6z M1339.9,55h21.2v-4.6h-21.2V55z M1339.9,63.7h21.2v-4.6h-21.2V63.7z
		 M1339.9,72.8h21.2v-4.7h-21.2V72.8z"/>
	<path class="st0" d="M1423.8,68.3c-3,8.1-8.6,14.9-16.2,19l-4.5-3.6c6.5-3.4,11.6-8.6,14.7-15.3h-4.5c-4.2,7.4-10.7,13.2-18.4,16.5
		l-3.9-3.9c6.9-2.8,12.7-7.2,16.2-12.4h-4.2c-1.8,1.8-3.6,3.4-5.8,4.6l-3.5-3.2c-5.3,3.2-10.9,5.9-16.8,8.1l-2.3-6.2
		c2.8-0.9,4.7-1.5,8.5-2.8V48.3h-7.3v-6.1h7.3V29.4h6.5v12.8h6.2v6.1h-6.2V66c2-0.9,3-1.4,5.8-2.8l0.9,3.8c2.6-1.9,4.6-4.2,6.3-6.9
		h-8.8v-5h42.8v5h-27.3c-0.5,0.9-1.2,2.2-2.2,3.4h27.2c-0.5,9.9-1.2,17.3-2.4,20.7c-0.9,3-2.8,4.1-7.2,4.1c-2.2,0-4.2-0.1-6.3-0.4
		l-1.1-5.8c1.9,0.4,3.9,0.5,5.8,0.7c2,0,2.6-0.4,3-2.3c0.9-3.9,1.4-8,1.5-12L1423.8,68.3z M1431.1,52h-32.2V31.2h32.2V52z
		 M1405.2,39.4h19.7v-3.6h-19.7V39.4z M1405.2,47.4h19.7v-3.6h-19.7V47.4z"/>
	<g id="桃">
		<g id="葉っぱ">
			<g id="path64">
				<path class="st0" d="M193.8,305.8c-2.3,0.6-4.7,1.2-7,2.1c16.3-19.9,34.9-29.9,53.9-33.5c19.9-3.6,40,0,58.5,7
					c13.6,5.3,26.5,12.2,38.5,20.5c10.4,7.1,20,15.2,28.7,24.4c-0.7,0.2-1.2,0.5-1.8,0.7c-11.4,4.3-22.1,8.1-32,11.2
					c-22.8,7.1-42,11.4-58.4,13.3c-52.5,5.9-75.1-13.6-87.6-43.2l0.4-0.5C189.1,307.1,191.5,306.4,193.8,305.8z M227.9,300.6
					c2.3-0.1,4.7-0.2,7-0.2C232.6,300.4,230.2,300.5,227.9,300.6z M237.5,300.4L237.5,300.4z M245.7,300.5c1.6,0,3.3,0.1,5,0.2
					C249,300.6,247.3,300.5,245.7,300.5L245.7,300.5z M253.7,300.8l4.4,0.4L253.7,300.8z M283.5,304.3c2.2,0.4,4.4,0.7,6.6,1.2
					C287.9,305.1,285.8,304.6,283.5,304.3L283.5,304.3z M261.3,301.5c1.5,0.1,3.1,0.2,4.5,0.5C264.2,301.7,262.8,301.6,261.3,301.5
					L261.3,301.5z M268.6,302.2c1.6,0.2,3.2,0.4,4.7,0.6C271.8,302.6,270.4,302.4,268.6,302.2L268.6,302.2z M276.1,303.2
					c1.6,0.2,3.3,0.5,5,0.7C279.6,303.7,277.7,303.4,276.1,303.2L276.1,303.2z M292.6,306c1.5,0.2,2.8,0.6,4.4,0.9
					C295.4,306.5,294.1,306.2,292.6,306L292.6,306z M299.7,307.5c1.5,0.2,2.8,0.6,4.2,1C302.5,308.1,301,307.7,299.7,307.5
					L299.7,307.5z M306.2,308.9c1.7,0.4,3.4,0.9,5.3,1.2C309.6,309.8,307.9,309.3,306.2,308.9L306.2,308.9z M328.4,314.7l0.5,0.1
					l-0.4-0.1H328.4z M317.6,311.6l1.1,0.4c-0.4-0.2-0.7-0.2-1.2-0.2L317.6,311.6z M323,313.1l0.5,0.1L323,313.1z M333.6,316.2
					l0.5,0.1L333.6,316.2z M360.5,325.4c0.2,0.1,0.5,0.2,0.9,0.2c-0.2,0-0.6,0-0.9-0.1V325.4z M343.5,319.3l0.5,0.1L343.5,319.3z
					 M352.5,322.4c0.2,0.1,0.5,0.1,0.6,0.2c-0.1,0-0.4,0.1-0.6-0.1V322.4z M202.1,303.8c-2.3,0.5-4.7,1-7,1.6
					C197.5,304.8,199.8,304.3,202.1,303.8z M226.9,300.6c-2.5,0.1-4.8,0.4-7.1,0.5C222.1,301,224.6,300.7,226.9,300.6z M218.1,301.3
					c-2.3,0.2-4.8,0.5-7.1,0.9C213.3,301.9,215.8,301.7,218.1,301.3L218.1,301.3z M209.9,302.4l-6.4,1.1L209.9,302.4z"/>
			</g>
			<g id="path641">
				<path class="st0" d="M186.5,305.1c2.3,0.6,4.7,1.4,7,2.1c-16.3-19.9-34.9-29.9-53.9-33.5c-19.9-3.6-40,0-58.5,7
					c-13.6,5.3-26.5,12.2-38.5,20.5c-10.4,7.1-20,15.2-28.7,24.4c0.7,0.2,1.2,0.5,1.8,0.7c11.4,4.3,22.1,8.1,32,11.2
					c22.8,7.1,42,11.4,58.4,13.3c52.5,5.9,75.1-13.5,87.6-43.2l-0.4-0.5C191.2,306.5,188.9,305.8,186.5,305.1z M152.5,300
					c-2.3-0.1-4.7-0.2-7-0.2C147.9,299.7,150.2,299.9,152.5,300L152.5,300z M142.8,299.7L142.8,299.7z M134.7,299.9
					c-1.6,0-3.3,0.1-5,0.2C131.3,300,133.2,299.9,134.7,299.9z M126.6,300.2l-4.4,0.4L126.6,300.2z M96.9,303.7
					c-2.2,0.4-4.4,0.7-6.6,1.2C92.5,304.5,94.6,304,96.9,303.7L96.9,303.7z M119.2,300.8c-1.5,0.1-3.1,0.2-4.5,0.5
					C116.1,301.1,117.6,301,119.2,300.8L119.2,300.8z M111.7,301.6c-1.6,0.2-3.2,0.4-4.7,0.6C108.5,301.9,110.1,301.8,111.7,301.6
					L111.7,301.6z M104.2,302.6c-1.6,0.2-3.3,0.5-5,0.7C100.9,303.1,102.6,302.8,104.2,302.6L104.2,302.6z M87.9,305.4
					c-1.5,0.2-2.8,0.6-4.4,0.9C84.9,305.9,86.3,305.6,87.9,305.4L87.9,305.4z M80.7,306.9c-1.5,0.2-2.8,0.6-4.2,1
					C77.9,307.3,79.3,307.1,80.7,306.9L80.7,306.9z M74.2,308.2c-1.7,0.4-3.4,0.9-5.3,1.2C70.7,309.1,72.4,308.7,74.2,308.2
					L74.2,308.2z M52,314l-0.5,0.1L52,314L52,314z M62.7,311.2c-0.4,0.1-0.9,0.2-1.1,0.4C62,311.3,62.3,311.2,62.7,311.2z
					 M57.3,312.6l-0.5,0.1L57.3,312.6z M46.8,315.7l-0.5,0.1L46.8,315.7z M19.9,324.9c-0.2,0.1-0.5,0.2-0.9,0.2
					C19.3,325,19.7,325,19.9,324.9z M36.9,318.9l-0.5,0.1L36.9,318.9z M27.9,322c-0.2,0.1-0.5,0.1-0.6,0.2
					C27.5,322.1,27.7,322.1,27.9,322z M178.2,303.2c2.3,0.5,4.7,1,7,1.6C182.9,304.2,180.5,303.7,178.2,303.2z M153.4,300
					c2.5,0.1,4.8,0.4,7.1,0.5C158.2,300.4,155.7,300.1,153.4,300z M162.2,300.7c2.3,0.2,4.8,0.5,7.1,0.9
					C167,301.2,164.6,301,162.2,300.7L162.2,300.7z M170.5,301.7l6.4,1.1L170.5,301.7z"/>
			</g>
		</g>
		<g id="実">
			<g id="path74-7">
				<path class="st0" d="M14.3,113.8c35.6,27.4-16.8,77.7,34.5,147.9c68.7,94.1,170.6,62.7,176.9,9
					C230.7,227.2,169.6,169.8,14.3,113.8z"/>
			</g>
			<g id="path74-71">
				<path class="st0" d="M366.1,113.8c-35.6,27.4,16.8,77.7-34.5,147.9c-68.7,94-170.6,62.7-177,9
					C149.6,227.2,210.7,169.8,366.1,113.8z"/>
			</g>
		</g>
	</g>
	<g id="ロゴ本体">
		<g id="g100">
			<ellipse id="circle13" class="st1" cx="191.5" cy="173.7" rx="130.1" ry="136.1"/>
			<path id="path15" class="st2" d="M190.2,36.9c73.3,0,132.8,62.2,132.8,138.7c0,76.7-59.5,138.8-132.8,138.8
				S57.4,252.1,57.4,175.7C57.3,98.8,116.7,36.9,190.2,36.9z M188.9,44H187C118.4,45,63,103.6,63,175.5s55.6,130.7,124.4,131.6
				c-34-0.7-61.4-30.1-61.4-65.8c0-36.5,28.2-65.9,63-65.9s63.1-29.5,63.1-65.8C251.7,73.3,223.6,44,188.9,44z"/>
			<path id="path17" class="st2" d="M170.8,120.8V71.7c0-2.1,0.9-4.2,2.3-5.5c1.4-1.5,3.3-2.3,5.3-2.3h24.4c2,0,3.9,0.9,5.3,2.3
				c1.5,1.5,2.2,3.6,2.2,5.5v49.1c0,2.1-0.7,4.1-2.2,5.5c-1.5,1.5-3.3,2.3-5.4,2.3h-24.3c-2.1,0-4.1-0.9-5.4-2.3
				C171.6,124.8,170.8,122.9,170.8,120.8z M203.1,120.3l-1-48.5l-23.8,0.5l1,48.5L203.1,120.3z"/>
			<path id="path19" class="st3" d="M179.9,269.1h12v-48.5H180c-1.1,0-2.1-0.4-2.8-1.1c-1.6-1.7-1.6-4.3,0-6
				c0.7-0.7,1.8-1.2,2.8-1.2h19.8v56.5h7.9v-17.1c0-1.1,0.4-2.1,1.1-2.8c0.7-0.7,1.8-1.2,2.8-1.2c1.1,0,2.1,0.4,2.8,1.2
				c0.7,0.7,1.2,1.8,1.1,2.9v21.1c0,1.1-0.4,2.2-1.1,2.9c-0.7,0.7-1.8,1.2-2.8,1.1h-31.7c-1.1,0-2.1-0.5-2.8-1.1
				c-0.7-0.7-1.2-1.8-1.1-2.9c0-1.1,0.4-2.1,1.1-2.8C177.8,269.4,178.8,269.1,179.9,269.1z"/>
		</g>
	</g>
	<g id="文字">
		<g>
			<g>
				<path class="st0" d="M90.1,126.1v13.2h0.3l0.3-0.7l5.2-12.5h6.1l-5.9,12.4l6.5,25.3h-6.1l-4.4-16.5l-0.1-0.8h-0.1l-0.4,0.8
					l-1.6,3v13.3h-6v-37.6H90.1z"/>
				<path class="st0" d="M120.6,156.9c0.1,3.9-2.9,7.2-6.8,7.3c-0.3,0-0.5,0-0.9,0c-2.7,0.3-5.4-1.2-6.7-3.7
					c-0.5-1.2-0.9-2.4-0.9-3.7v-14.2c0-2.5,1.2-4.8,3.1-6.3c1.3-0.8,2.9-1.2,4.4-1.2c2.7-0.3,5.4,1.2,6.7,3.7
					c0.5,1.2,0.9,2.4,0.9,3.5L120.6,156.9z M114.9,142.7c0.1-0.9-0.1-1.8-0.8-2.5c-0.4-0.3-0.8-0.4-1.3-0.4c-0.9,0-1.7,0.5-1.8,1.4
					c-0.1,0.4-0.3,0.9-0.1,1.4v14.1c-0.1,0.9,0.1,1.7,0.8,2.4c0.4,0.3,0.8,0.4,1.2,0.4c0.9,0.1,1.7-0.5,1.8-1.4
					c0.1-0.4,0.3-0.9,0.1-1.4L114.9,142.7z"/>
			</g>
			<g>
				<path class="st0" d="M130.5,163.8h-5.9v-28.1h5.9v2.4c0.3-0.1,0.5-0.4,0.7-0.5c0.8-0.8,1.7-1.3,2.6-1.8c0.5-0.3,1-0.4,1.6-0.4
					c1.4,0,2.6,0.7,3.4,1.8c0.7,1,1,2.4,1,3.7v23h-5.9v-22.3c0-1-0.7-1.2-1.4-1.2c-0.5,0-1,0.3-1.4,0.7c-0.1,0.3-0.4,0.4-0.5,0.7
					V163.8z"/>
			</g>
			<g>
				<path class="st0" d="M152.9,142.4c0-0.5,0-1.2-0.1-1.7c-0.3-0.5-0.9-0.9-1.6-0.9c-1,0-1.4,0.7-1.6,1.6c-0.1,0.4-0.1,0.9-0.1,1.3
					v1.3h-5.9v-1.2c0-2,0.8-3.9,2.4-5.2c1.6-1.4,3.5-2.2,5.7-2.2c1.8,0,3.7,0.7,5.1,1.8c1.4,1.2,2.2,2.7,2.2,4.6V159
					c0,1.7,0.1,3.3,0.4,4.8h-5.9c-0.4-0.7-0.5-1.4-0.5-2.2h-0.5c-0.4,0.7-1,1.3-1.7,1.7c-0.9,0.7-2,0.9-3,0.9
					c-1.2,0-2.2-0.5-2.9-1.3c-1.3-1.6-2-3.7-1.8-5.6c-0.1-2.5,0.8-5,2.5-6.9c1.3-1.3,2.9-2.5,4.6-3.1c1.6-0.7,2.6-1.2,2.9-1.7
					L152.9,142.4z M152.9,150.2c-2.6,0.9-4.3,3.5-4,6.3c0,0.5,0.1,1,0.3,1.6c0.1,0.7,0.8,1,1.3,1c1.3,0,2.5-0.7,2.5-1.7V150.2z"/>
			</g>
			<g>
				<path class="st0" d="M168.6,163.8h-5.9v-28.1h5.9v2.4c0.3-0.1,0.5-0.4,0.7-0.5c0.8-0.8,1.7-1.3,2.6-1.8c0.5-0.3,1-0.4,1.6-0.4
					c1.4,0,2.6,0.7,3.4,1.8c0.7,1,1,2.4,1,3.7v23H172v-22.3c0-1-0.7-1.2-1.4-1.2c-0.5,0-1,0.3-1.4,0.7c-0.1,0.3-0.4,0.4-0.5,0.7
					V163.8z"/>
			</g>
		</g>
		<g>
			<path class="st1" d="M270.3,194.4c0,1.7-0.4,2.6-1.6,3c-2.1,0.5-4.2,0.7-6.3,0.5c-0.3-0.9-0.5-1.8-1-2.6c2.4,0.1,4.4,0,5.1,0
				s0.9-0.3,0.9-0.9v-27.6h-26.4v31.1h-2.9v-33.8h32.1V194.4z M260.7,192.9v-2.1h-13.1v2.6h-2.5v-13.2h2.5v8h5.2v-11H243v-2.5h22.9
				v2.5h-10.4v11h5.2v-8h2.5v12.7H260.7z M248,167.7c1.4,1.8,2.4,3.8,3,6l-2.5,0.9c-0.7-2.2-1.6-4.3-2.9-6.1L248,167.7z
				 M262.8,168.3c-1,2.2-2.2,4.3-3.5,6.4l-2.2-0.8c1.2-2.1,2.2-4.2,2.9-6.4L262.8,168.3z"/>
			<path class="st1" d="M294.9,168.8v4.2h13.5v21.7c0,1.7-0.4,2.5-1.7,3c-2.2,0.5-4.4,0.7-6.7,0.5c-0.3-0.9-0.7-1.8-1-2.6
				c2.5,0.1,4.8,0.1,5.5,0c0.7-0.1,0.9-0.3,0.9-0.9v-18.9h-24.2V198h-2.9v-25.2h13.3v-4.2h-15.4v-2.7h15.4V162h3.1v3.9h15.5v2.7
				L294.9,168.8z M294.5,190.5v6.8h-2.7v-6.8h-8.4V188h8.4v-3.9h-7.6v-2.5h11.1c1-1.8,2-3.7,2.7-5.5l2.5,0.7
				c-0.9,1.7-1.7,3.4-2.6,4.8h4.7v2.4h-8.1v3.9h8.7v2.5L294.5,190.5z M288.5,176.2c1,1.4,1.8,3,2.5,4.6l-2.4,0.9
				c-0.5-1.7-1.4-3.3-2.4-4.7L288.5,176.2z"/>
		</g>
	</g>
</g>
</svg>
