<?xml version="1.0" encoding="utf-8"?>
<!-- Generator: Adobe Illustrator 24.0.1, SVG Export Plug-In . SVG Version: 6.00 Build 0)  -->
<svg version="1.1" id="レイヤー_1" xmlns="http://www.w3.org/2000/svg" xmlns:xlink="http://www.w3.org/1999/xlink" x="0px"
	 y="0px" viewBox="0 0 1722 359.9" style="enable-background:new 0 0 1722 359.9;" xml:space="preserve">
<style type="text/css">
	.st0{fill:#FFFFFF;}
	.st1{fill:#7BA23F;}
	.st2{fill-rule:evenodd;clip-rule:evenodd;fill:#FFFFFF;}
	.st3{fill-rule:evenodd;clip-rule:evenodd;fill:#7BA23F;}
</style>
<title>アセット 1</title>
<g id="レイヤー_1-2">
	<path class="st0" d="M575.3,221.4v24.2c-0.1,6.8-1.6,13.2-4.2,19.3c-2.3,5.2-5.7,9.5-10,12.9c-4.7,3.8-11,6-19.5,6s-15-2.2-19.6-6
		c-4.2-3.4-7.6-7.8-9.8-12.9c-2.8-6-4.1-12.5-4.2-19.3V141.9c0.1-6.6,1.6-13.1,4.2-18.9c2.2-5.2,5.5-9.8,9.8-13.2
		c4.7-3.5,11.2-6,19.6-6c12.6-0.8,24.4,6.8,29.5,19.1c2.8,6,4.1,12.4,4.2,18.9V166h-23.5v-24.2c0.3-4-1.2-8.1-3.7-11
		c-1.7-1.3-3.7-2.1-5.8-2c-4.4,0-6.5,3.3-7.7,6.5c-0.7,2.1-1.1,4.3-1.3,6.5v103.7c0.3,5.1,1.6,8.4,4,11c1.3,1.3,3.1,2,4.8,2
		c5.3,0,7.4-2.9,8.6-6.5c0.8-2.1,1.1-4.3,0.9-6.5v-24.2L575.3,221.4L575.3,221.4z"/>
	<path class="st0" d="M648.7,249.9c-0.8,12.6-4.4,21.6-12.6,28.4c-4.2,3.5-10,5.2-17.7,5.2c-15.3,0-22.6-8.7-26.3-17.2
		c-2.3-5.5-3.5-11.3-3.7-17.2v-65.8c0.8-12.6,4.4-21.9,12.6-29.2c4-3.5,9.8-5.2,17.5-5.2c15.3,0,22.7,8.7,26.7,17.1
		c2.3,5.2,3.5,11,3.7,16.7L648.7,249.9L648.7,249.9z M626.5,183.3c0.3-5.1-0.8-8.7-3-11.5c-1.5-1.3-3.2-2-5.1-2
		c-4.4,0-6.4,3.1-7.3,6.8c-0.8,2.1-1.1,4.4-0.8,6.8v65.8c-0.3,5.1,0.9,8.7,3,11.2c1.3,1.3,3.1,2,4.8,2c4.4,0,6.5-2.9,7.4-6.5
		c0.8-2.1,1.1-4.4,0.8-6.8L626.5,183.3L626.5,183.3z"/>
	<path class="st0" d="M724.9,281.8h-23.5v-8.7c-3.5,3.5-7.4,6.6-11.9,9c-2.1,1.2-4.4,1.7-6.9,1.7c-6.5,0-11-3.8-13.7-9
		c-3-5.1-4.5-10.8-4.4-16.7v-83.6c0-6,1.6-11.9,4.4-17.1c2.9-4.7,7.3-8.7,13.7-8.7c4.4,0,9.2,2.6,12.6,5.2c2.1,1.7,4,3.3,6.1,5.2
		v-53.5h23.5L724.9,281.8L724.9,281.8z M701.2,179.5c0-3.8-3.5-7.9-7-7.9c-3.5,0-6.4,3.3-6.4,7.9V253c0,4.4,2.9,7.9,6.4,7.9
		c3.9-0.3,7-3.5,7-7.9V179.5z"/>
	<path class="st0" d="M802.5,234.8v15.1c-0.8,12.6-4.4,21.6-12.9,28.4c-4.2,3.5-10,5.2-17.7,5.2c-15.3,0-22.7-8.7-26.7-17.2
		c-2.3-5.5-3.5-11.3-3.7-17.2v-65.8c0.8-12.6,4.7-21.9,13.1-29.2c4-3.5,9.8-5.2,17.5-5.2c15.3,0,22.7,8.7,26.7,17.1
		c2.3,5.2,3.5,11,3.7,16.7v38h-39v28.4c0.3,5.1,1.6,8.7,3.7,11.2c1.3,1.3,3.1,2,4.8,2c4.4,0,6.5-2.9,7.4-6.5
		c0.8-2.2,1.1-4.4,0.9-6.8v-14.3L802.5,234.8L802.5,234.8z M763.7,201.8h17v-18.5c0-5.1-0.9-8.7-3.3-11.5c-1.5-1.3-3.2-2-5.1-2
		c-4.4,0-6.4,3.1-7.4,6.8c-0.8,2.2-1.2,4.4-1.3,6.8L763.7,201.8z"/>
	<path class="st0" d="M865.9,175.7c-2.2-0.7-4.3-1-6.5-0.9c-3.7,0-8.2,0.5-11.9,4.2c-4.4,3.8-5.1,7.9-5.1,12v91.1h-23.5V150.7h23.5
		v14.6c0.9-3.7,2.9-7,5.6-9.5c4.8-4.7,11.4-7.2,18-6.9L865.9,175.7L865.9,175.7z"/>
	<path class="st0" d="M876.2,281.8v-176H896c23.3,0,36,4.7,42.8,18.1c6.5,13.4,7.6,35.4,7.6,69.8s-0.9,56.3-7.6,69.7
		c-6.9,13.4-19.3,18.1-42.8,18.1h-19.8V281.8z M901.3,255.9c8.6,0,13.5-0.9,16.1-9.5c1.3-4.2,2.1-10.3,2.3-18.7
		c0.3-8.4,0.3-19.6,0.3-34.1c0-14.5,0-25.7-0.3-34.1c-0.1-6.3-0.9-12.5-2.3-18.7c-2.6-8.4-7.6-9.2-16.1-9.2V255.9z"/>
	<path class="st0" d="M1021.4,249.9c-0.8,12.6-4.4,21.6-12.6,28.4c-4.2,3.5-10,5.2-17.7,5.2c-15.3,0-22.6-8.7-26.3-17.2
		c-2.3-5.5-3.5-11.3-3.7-17.2v-65.8c0.8-12.6,4.4-21.9,12.6-29.2c4-3.5,9.8-5.2,17.5-5.2c15.3,0,22.7,8.7,26.7,17.1
		c2.3,5.2,3.5,11,3.7,16.7L1021.4,249.9L1021.4,249.9z M999.1,183.3c0.3-5.1-0.8-8.7-3-11.5c-1.5-1.3-3.2-2-5.1-2
		c-4.4,0-6.4,3.1-7.3,6.8c-0.8,2.1-1.1,4.4-0.8,6.8v65.8c-0.3,5.1,0.9,8.7,3,11.2c1.3,1.3,3.1,2,4.8,2c4.4,0,6.5-2.9,7.6-6.5
		c0.8-2.1,1.1-4.4,0.8-6.8V183.3L999.1,183.3L999.1,183.3z"/>
	<path class="st0" d="M1060.8,150.7v134.5c0,6.8,0,17.2-3.3,25.9c-3.3,9-10.4,15.8-23.8,15.8c-2.8,0.1-5.3-0.1-7.9-0.8
		c-0.9-0.3-1.6-0.5-2.3-0.8V303c0.8,0.3,1.5,0.3,2.1,0.5c1.5,0.4,3,0.4,4.4,0.5c4,0,5.8-3.3,6.9-7.5c0.3-2.1,0.4-4,0.5-6.1V150.8
		L1060.8,150.7L1060.8,150.7z M1037.2,105.7h23.5v24.2h-23.5V105.7z"/>
	<path class="st0" d="M1137.8,249.9c-0.8,12.6-4.4,21.6-12.6,28.4c-4.2,3.5-10,5.2-17.7,5.2c-15.3,0-22.6-8.7-26.3-17.2
		c-2.3-5.5-3.5-11.3-3.7-17.2v-65.8c0.8-12.6,4.4-21.9,12.6-29.2c4-3.5,9.8-5.2,17.5-5.2c15.3,0,22.7,8.7,26.7,17.1
		c2.3,5.2,3.5,11,3.7,16.7L1137.8,249.9L1137.8,249.9z M1115.6,183.3c0.3-5.1-0.8-8.7-3-11.5c-1.5-1.3-3.2-2-5.1-2
		c-4.4,0-6.4,3.1-7.3,6.8c-0.8,2.1-1.1,4.4-0.8,6.8v65.8c-0.3,5.1,0.9,8.7,3,11.2c1.3,1.3,3.1,2,4.8,2c4.4,0,6.5-2.9,7.4-6.5
		c0.8-2.1,1.1-4.4,0.8-6.8L1115.6,183.3L1115.6,183.3z"/>
	<path class="st0" d="M1215.6,105.7v61.5h0.9l1.3-2.9l21.1-58.6h24.6l-23.1,58.1l26.1,118.2h-24.6l-17.5-76.6l-0.8-3.5h-0.8
		l-1.5,3.5l-5.8,14.3v62.3h-25.3V105.7H1215.6z"/>
	<path class="st0" d="M1336.2,249.9c-0.8,12.6-4.4,21.6-12.6,28.4c-4.2,3.5-10,5.2-17.7,5.2c-15.3,0-22.6-8.7-26.3-17.2
		c-2.3-5.5-3.5-11.3-3.7-17.2v-65.8c0.8-12.6,4.4-21.9,12.6-29.2c4-3.5,9.8-5.2,17.5-5.2c15.3,0,22.7,8.7,26.7,17.1
		c2.3,5.2,3.5,11,3.7,16.7L1336.2,249.9L1336.2,249.9z M1314.1,183.3c0.3-5.1-0.8-8.7-3-11.5c-1.5-1.3-3.2-2-5.1-2
		c-4.4,0-6.4,3.1-7.3,6.8c-0.8,2.1-1.1,4.4-0.8,6.8v65.8c-0.3,5.1,0.9,8.7,3,11.2c1.3,1.3,3.1,2,4.8,2c4.4,0,6.5-2.9,7.4-6.5
		c0.8-2.1,1.1-4.4,0.8-6.8L1314.1,183.3L1314.1,183.3z"/>
	<path class="st0" d="M1376.5,281.8h-23.6v-131h23.5v11c1.1-0.8,2-1.7,2.9-2.6c3.1-3.3,6.5-6.3,10.4-8.7c1.9-1.2,3.9-1.7,6.1-1.7
		c6.4,0,10.6,3.8,13.5,8.7c2.9,5.2,4.2,11.1,4.2,17.1v107.2H1390V178.2c0-5.1-2.9-5.9-5.6-5.9c-2.6,0-4,1.4-5.6,3.1
		c-0.8,1-1.5,2-2.1,3.1L1376.5,281.8L1376.5,281.8L1376.5,281.8z"/>
	<path class="st0" d="M1467.3,181.9c0.1-2.7-0.1-5.2-0.8-7.9c-0.9-2.6-3.2-4.3-5.8-4.2c-4,0-5.6,3.1-6.4,6.9c-0.3,2.1-0.4,4-0.5,6.1
		v6.1h-23.5v-5.4c0-9.2,3.2-17.9,9.2-24.6c5.8-6.8,14.1-10.4,22.6-10.3c7.4,0,14.6,3,20,8.4c5.6,5.5,8.7,13.2,8.6,21.2v80.8
		c-0.1,7.6,0.4,15.2,1.6,22.7h-22.9c-2.1-2.6-2.1-9-2.1-10.6h-1.6c-1.7,3.1-3.9,5.7-6.5,7.9c-3.6,2.9-7.9,4.4-12.5,4.4
		c-4.5,0-8.9-2.2-11.7-6c-4-4.4-7.3-12.6-7.3-26.3c0-14.6,4.2-25.2,9.8-32.3c5.6-7.1,12.6-11.7,18.5-14.9c5.8-3.1,10.4-5.2,11.2-7.9
		L1467.3,181.9L1467.3,181.9L1467.3,181.9z M1467.3,218.5c-11.4,5.1-16.3,16.7-16.3,29.2c0,2.5,0.4,5,1.3,7.3
		c0.9,2.9,2.6,5.1,5.3,5.1c5.3,0,9.8-3.3,9.8-7.9L1467.3,218.5L1467.3,218.5L1467.3,218.5z"/>
	<path class="st0" d="M1530.6,281.8H1507v-131h23.5v11c1.1-0.8,2-1.7,2.9-2.6c3.1-3.3,6.5-6.3,10.4-8.7c1.9-1.2,3.9-1.7,6.1-1.7
		c6.4,0,10.6,3.8,13.5,8.7c2.9,5.2,4.2,11.1,4.2,20.3v107.4l-23.5-3.3V178.2c0-5.1-2.9-5.9-5.6-5.9c-2.6,0-4,1.4-5.6,3.1
		c-0.8,1-1.5,2-2.1,3.1v103.3L1530.6,281.8L1530.6,281.8z"/>
	<path class="st0" d="M560.3,80.1c-7.2,0.9-14.4,1.6-21.6,1.6c-9.1,0-17.7-1.2-21.3-3.1c-4.6-2.3-6.3-5-6.3-9.4
		c0-4.2,1.9-8.1,4.9-10.8l5.5,3.6c-2.2,2.4-3,4.3-3,6.6s1.2,3.6,3.9,4.7c2.7,0.9,9.6,1.8,15.9,1.8c6.9,0,13.8-0.6,20.8-1.6
		L560.3,80.1z M555.6,33.4V40h-38.3v-6.6H555.6z"/>
	<path class="st0" d="M623.4,81.8c-6.3,0.7-12.8,0.9-19.3,0.9c-6.6,0.1-13.1-0.4-19.7-1.6c-6.6-1.8-10.5-5.9-10.5-11.4
		c0-4.9,2.2-8.9,6.6-12.7c2.6-2,5.5-3.8,8.6-5.1c-3.1-6.9-5.8-14-7.8-21.4l6.9-1.8c1.9,6.9,4.2,13.7,6.8,20.4
		c6.8-3.1,13.8-5.7,20.9-7.7l3.1,5.9c-8.6,2-23.6,7.7-30.4,11.6c-4.7,2.7-7.7,6.6-7.7,10.1c0,2.8,1.8,4.7,5.1,5.9
		c2.8,0.9,8.2,1.4,15.5,1.4c6.9,0,13.8-0.4,20.8-1.1L623.4,81.8z M619.4,41c-1.6-3.8-3.6-7.5-6.2-10.7l4.7-1.6
		c2.4,3.2,4.6,6.9,6.3,10.6L619.4,41z M627.4,38.3c-1.6-3.9-3.6-7.7-6.2-10.8l4.6-1.6c2.6,3.1,4.7,6.6,6.2,10.5L627.4,38.3z"/>
	<path class="st0" d="M661.5,29l-1.6,8.6h18.7v5.9h-19.8l-1.6,9.7h17.8v5.9h-18.7c-0.6,2.8-0.8,5.7-0.9,8.6c0,3.2,0.8,5,2.7,6.6
		c2.2,1.9,5.8,2.8,10.4,2.8c9.2,0,14.2-3.5,14.2-9.9c-0.1-3.1-0.8-6.1-1.9-8.9l6.6-0.4c1.6,3,2.4,6.3,2.6,9.7
		c0,5.1-1.9,9.2-5.7,11.9c-3.8,2.7-9.7,4.2-15.9,4.2c-13,0-20-5.6-20-15.6c0-3,0.4-5.9,0.9-8.8h-11.8v-5.9h12.8l1.7-9.6h-13.8v-5.9
		H653l1.6-9.2L661.5,29z"/>
	<path class="st0" d="M731.9,77c12.4-3,18.5-9.7,18.5-20.5c0-7.5-3.5-13.8-9.4-16.9c-2.2-1.2-4.6-1.9-6.9-2.3
		c-1.9,14.4-4.6,23.7-9.2,32.5c-1.8,3.5-3.1,5.6-4.7,6.9c-1.9,2-4.6,3.2-7.2,3.5c-7.3,0-13.5-8.9-13.5-19.9
		c0.1-10.4,5.6-19.8,14.4-24.9c4.9-2.8,10.6-4.3,16.3-4.2c16.3,0,27.7,10.4,27.7,25c0,14-7.3,23-22,26.8L731.9,77z M727.2,37.1
		c-4.9,0.3-9.4,2.3-12.8,5.7c-4.9,4.6-7.7,10.7-7.7,17.4c0,6.6,2.8,12.8,6.1,12.8c1.6,0,3-1.4,5-4.7c4.6-7.7,7.7-18.1,9.2-30.1
		L727.2,37.1z"/>
	<path class="st0" d="M779.7,37.8c0.8-3.2,1.1-4.9,2-9.7l7,0.9c-0.7,2.8-1.2,6.2-2,8.8h20.8V44h-22.4c-4.1,15.9-8.8,29.8-13.9,40.2
		l-6.9-2.4c5.7-12.2,10.4-24.8,13.8-37.8H765v-6.1C765,37.8,779.7,37.8,779.7,37.8z M820.5,82.6c-3.8,0.4-7.7,0.7-11.4,0.7
		c-6.2,0-12.4-0.7-15.5-1.8c-3.6-0.9-6.2-4.3-6.2-8.1c0.1-2.4,0.9-4.9,2.6-6.8l5.6,3.1c-0.7,0.7-0.9,1.6-0.9,2.7
		c0,1.4,0.8,2.6,2,3.1c3.5,0.8,6.9,1.2,10.5,1.1c4.2,0,8.5-0.3,12.7-0.9L820.5,82.6z M791,52.5c8.9-0.9,17.8-1.4,26.9-1.4l0.4,6.2
		c-8.9,0-18.7,0.6-26.3,1.2L791,52.5z"/>
	<path class="st0" d="M840.9,31.5c0.8,3.6,1.8,7,2.8,10.5c5.1-2.7,10.8-4.2,16.7-4.2c0.7-3.2,0.9-5.7,1.4-9.1l6.9,1.2
		c-0.6,3.1-0.9,6.1-1.4,8.6c4.1,0.7,8,2.6,10.9,5.5c4.3,4.1,6.8,9.9,6.6,15.8c0,7.8-2.6,13.6-7.7,17.5c-4.2,3-9.1,4.9-14.2,5.6
		l-3.2-5.7c4.6-0.7,9.1-2.4,12.8-5c3.5-2.7,5-6.8,5-12.7c0-7.7-4.1-13-11.6-15.1c-2.8,11.8-5.7,18-10.5,24.3
		c-5.7,7.5-12.2,11.9-17.5,11.9c-5.8,0-9.7-5.1-9.7-13.2c0.1-8.1,3.6-15.8,9.7-21.1c-0.9-2.8-2.6-8-3.6-12.4L840.9,31.5z M835,66.5
		c0,4.7,1.6,7.7,3.8,7.7c2.3,0,5.1-2,8.8-6.1c-2.8-5-5.3-10.5-7.3-15.9C836.7,56.9,835,61.3,835,66.5L835,66.5z M845.6,47.7
		c1.8,5.1,3.8,10,6.3,14.8c3.6-5.8,5.9-12.2,7.2-18.9C854.4,43.6,849.7,45.2,845.6,47.7L845.6,47.7z"/>
	<path class="st0" d="M924.7,77c12.4-3,18.5-9.7,18.5-20.5c0-7.5-3.5-13.8-9.4-16.9c-2.2-1.2-4.6-1.9-6.9-2.3
		c-2,14.4-4.6,23.7-9.2,32.5c-1.8,3.5-3.1,5.6-4.7,6.9c-1.9,2-4.6,3.2-7.2,3.5c-7.3,0-13.5-8.9-13.5-19.9
		c0.1-10.4,5.6-19.8,14.4-24.9c4.9-2.8,10.6-4.3,16.3-4.2c16.3,0,27.7,10.4,27.7,25c0,14-7.3,23-22,26.8L924.7,77z M920.1,37.1
		c-4.9,0.3-9.4,2.3-12.8,5.7c-4.9,4.6-7.7,10.7-7.7,17.4c0,6.6,2.8,12.8,6.1,12.8c1.6,0,3-1.4,5-4.7c4.6-7.7,7.7-18.1,9.2-30.1
		L920.1,37.1z"/>
	<path class="st0" d="M999.1,36.6l7.7,6.8c-2,24-11.9,35.1-37.7,40.5l-3.6-6.2c23.2-3.6,33.1-13.9,33.6-34.8h-40.5v-6.2H999.1
		L999.1,36.6z M1017.8,33.4c0,4.3-3.6,7.8-7.8,7.8c-4.3,0-7.8-3.6-7.8-7.8s3.6-7.8,7.8-7.8C1014.2,25.6,1017.8,29.2,1017.8,33.4z
		 M1005.9,33.4c0,2.3,1.8,4.1,4.1,4.1c2.3,0,4.1-1.8,4.1-4.1c-0.1-2.2-1.9-3.9-4.1-3.9C1007.8,29.6,1006,31.4,1005.9,33.4z"/>
	<path class="st0" d="M1074.7,33.9v46.8h-49.2V33.9C1025.5,33.9,1074.7,33.9,1074.7,33.9z M1032.8,74.2h34.5V40.5h-34.5V74.2z"/>
	<path class="st0" d="M1135.1,42.7c-4.7,23-15.6,34.7-38.7,41.3l-3.9-6.2c19.9-4.6,31.4-15.8,35.4-34.4h-20.8
		c-4.1,5.8-9.1,10.8-15,14.7l-5-5c9.9-6.1,16.3-13.9,19.9-24.3l6.6,1.8c-0.8,2.3-1.8,4.6-2.8,6.6h18.6L1135.1,42.7z M1131.4,37.8
		c-1.4-3.6-3.2-7-5.6-10.1l5.3-1.1c2.4,3,4.3,6.3,5.7,10L1131.4,37.8z M1141,37.5c-1.4-3.8-3.2-7.5-5.6-10.7l5.1-0.9
		c2.3,3.1,4.2,6.6,5.6,10.4L1141,37.5z"/>
	<path class="st0" d="M1204.8,46.4c-2.4,24.3-12.2,34.1-38,37.4l-3.1-6.2c8.9-0.8,16.4-2.8,21.4-6.2c6.3-4.2,10.5-11.2,10.9-18.8
		h-43.4v-6.2L1204.8,46.4L1204.8,46.4z M1198.5,31.5v6.3h-41.3v-6.2L1198.5,31.5L1198.5,31.5z"/>
	<path class="st0" d="M1264.3,83.9c-15.9-4.7-33.1-9.1-46.8-11.9l1.4-6.9c15.8,3.1,31.2,7,46.4,11.9L1264.3,83.9z M1263.1,44.4
		c-13-3.6-26.2-6.6-39.4-8.6l1.1-6.6c13.2,1.9,26.4,4.6,39.3,8.5L1263.1,44.4z M1259.6,62.1c-11.6-3.6-23.3-6.2-35.2-8.2l1.1-6.6
		c11.8,1.9,23.6,4.6,35.1,8.2L1259.6,62.1z"/>
	<path class="st0" d="M1303.8,45.3c-6.6-2.8-13.6-5.1-20.6-6.8l2.2-6.6c7.2,1.6,14.2,3.8,20.8,6.8L1303.8,45.3z M1283.9,75.4
		c27.3-1.8,39.4-12,44.2-37.2l6.1,4.3c-5.5,26.3-18.8,37.4-48.6,40.2L1283.9,75.4z"/>
	<path class="st0" d="M1392.1,42.7c-4.7,23-15.6,34.7-38.7,41.3l-3.9-6.2c19.9-4.7,31.4-15.9,35.4-34.4h-20.8
		c-4.1,5.8-9.1,10.8-15,14.7l-5-5c9.9-6.1,16.3-13.9,19.9-24.3l6.6,1.8c-0.8,2.3-1.8,4.6-2.8,6.6h18.6L1392.1,42.7z M1388.6,37.8
		c-1.4-3.6-3.2-7-5.6-10.1l5.3-1.1c2.4,3,4.3,6.3,5.7,10L1388.6,37.8z M1397.9,37.5c-1.4-3.8-3.2-7.5-5.6-10.7l5.3-0.9
		c2.3,3.1,4.2,6.6,5.6,10.4L1397.9,37.5z"/>
	<path class="st0" d="M1420.3,71.9c4.7,5,9.9,6.9,20.5,6.9h26.3c-0.8,1.9-1.6,3.9-1.9,6.1h-25.9c-11.1-0.3-16.1-2-21.3-7.5
		c-2.7,3.5-5.9,6.6-9.7,8.9l-3.8-6.1c3.2-1.8,6.2-3.9,9.1-6.3V58.3h-8.6v-5.9h15.1L1420.3,71.9z M1416,43.6
		c-2.7-4.2-5.9-8.1-9.7-11.7l5.1-3.9c3.8,3.5,7,7,10,11.1L1416,43.6z M1423.2,39.4v-5.1h10c-1.4-2.2-2-3-3.6-5l6.2-2.2
		c1.6,2.3,3,4.7,4.2,7.2h8.1c1.2-2.4,2.2-4.9,3-7.3l6.9,1.4c-0.9,1.9-2,3.9-3.1,5.9h10.5v5.1H1447c-0.8,2.2-0.9,2.4-1.6,4.6h16.1
		v31.3h-34.3V43.7h11.7c0.6-1.6,1.1-3,1.6-4.6L1423.2,39.4L1423.2,39.4z M1433.4,52.9h21.3v-4.6h-21.3V52.9z M1433.4,61.6h21.3V57
		h-21.3V61.6z M1433.4,70.7h21.3V66h-21.3V70.7z"/>
	<path class="st0" d="M1517.7,66.1c-3,8.1-8.7,14.9-16.3,19l-4.6-3.6c6.6-3.5,11.7-8.7,14.8-15.4h-4.6c-4.2,7.5-10.7,13.2-18.5,16.6
		l-3.9-3.9c6.9-2.8,12.7-7.2,16.3-12.5h-4.2c-1.8,1.8-3.6,3.5-5.8,4.6l-3.6-3.2c-5.3,3.2-10.9,5.9-16.8,8.1l-2.3-6.2
		c2.8-0.9,4.7-1.6,8.6-2.8V46.1h-7.3V40h7.3V27.2h6.6V40h6.2v6.1h-6.2v17.8c2-0.9,3-1.4,5.8-2.8l0.9,3.8c2.6-1.9,4.6-4.2,6.3-6.9
		h-8.8v-5h43v5h-27.4c-0.6,0.9-1.2,2.2-2.2,3.5h27.3c-0.6,9.9-1.2,17.4-2.4,20.8c-0.9,3-2.8,4.1-7.2,4.1c-2.2,0-4.2-0.1-6.3-0.4
		l-1.1-5.8c1.9,0.4,3.9,0.6,5.8,0.7c2,0,2.6-0.4,3-2.3c0.9-3.9,1.4-8,1.6-12L1517.7,66.1z M1524.9,49.8h-32.3V28.9h32.3V49.8z
		 M1499,37.2h19.8v-3.6H1499V37.2z M1499,45.2h19.8v-3.6H1499V45.2z"/>
	<g id="桃">
		<g id="葉っぱ">
			<g id="path64">
				<path class="st0" d="M286.6,303.2c-2.6,0.7-5.2,1.3-7.8,2.3c18.1-22.2,38.8-33.3,60-37.3c22.2-4,44.5,0,65.1,7.8
					c15.1,5.9,29.5,13.6,42.9,22.8c11.6,7.9,22.3,16.9,31.9,27.2c-0.8,0.2-1.3,0.6-2,0.8c-12.7,4.8-24.6,9-35.6,12.5
					c-25.4,7.9-46.8,12.7-65,14.8c-58.4,6.6-83.6-15.1-97.5-48.1l0.4-0.6C281.3,304.7,284,303.9,286.6,303.2z M324.5,297.4
					c2.6-0.1,5.2-0.2,7.8-0.2C329.8,297.2,327.1,297.3,324.5,297.4z M335.2,297.2L335.2,297.2z M344.3,297.3c1.8,0,3.7,0.1,5.6,0.2
					C348,297.4,346.1,297.3,344.3,297.3L344.3,297.3z M353.3,297.6l4.9,0.4L353.3,297.6z M386.4,301.5c2.4,0.4,4.9,0.8,7.3,1.3
					C391.3,302.4,389,301.9,386.4,301.5L386.4,301.5z M361.7,298.4c1.7,0.1,3.5,0.2,5,0.6C364.9,298.6,363.4,298.5,361.7,298.4
					L361.7,298.4z M369.8,299.2c1.8,0.2,3.6,0.4,5.2,0.7C373.4,299.6,371.8,299.4,369.8,299.2L369.8,299.2z M378.2,300.3
					c1.8,0.2,3.7,0.6,5.6,0.8C382.1,300.9,380,300.5,378.2,300.3L378.2,300.3z M396.6,303.4c1.7,0.2,3.1,0.7,4.9,1
					C399.7,304,398.2,303.7,396.6,303.4L396.6,303.4z M404.5,305.1c1.7,0.2,3.1,0.7,4.7,1.1C407.6,305.8,405.9,305.3,404.5,305.1
					L404.5,305.1z M411.7,306.7c1.9,0.4,3.8,1,5.9,1.3C415.5,307.7,413.6,307.1,411.7,306.7L411.7,306.7z M436.4,313.1l0.6,0.1
					l-0.4-0.1H436.4z M424.4,309.7l1.2,0.4c-0.4-0.2-0.8-0.2-1.3-0.2L424.4,309.7z M430.4,311.3l0.6,0.1L430.4,311.3z M442.2,314.8
					l0.6,0.1L442.2,314.8z M472.1,325c0.2,0.1,0.6,0.2,1,0.2c-0.2,0-0.7,0-1-0.1V325z M453.2,318.2l0.6,0.1L453.2,318.2z
					 M463.2,321.7c0.2,0.1,0.6,0.1,0.7,0.2c-0.1,0-0.4,0.1-0.7-0.1V321.7z M295.8,301c-2.6,0.6-5.2,1.1-7.8,1.8
					C290.7,302.1,293.3,301.5,295.8,301z M323.4,297.4c-2.8,0.1-5.3,0.4-7.9,0.6C318.1,297.9,320.9,297.5,323.4,297.4z M313.6,298.2
					c-2.6,0.2-5.3,0.6-7.9,1C308.3,298.9,311.1,298.6,313.6,298.2L313.6,298.2z M304.5,299.4l-7.1,1.2L304.5,299.4z"/>
			</g>
			<g id="path641">
				<path class="st0" d="M278.4,302.4c2.6,0.7,5.2,1.6,7.8,2.3c-18.1-22.2-38.8-33.3-60-37.3c-22.2-4-44.5,0-65.1,7.8
					c-15.1,5.9-29.5,13.6-42.9,22.8C106.7,306,96,315,86.3,325.3c0.8,0.2,1.3,0.6,2,0.8c12.7,4.8,24.6,9,35.6,12.5
					c25.4,7.9,46.8,12.7,65,14.8c58.4,6.6,83.6-15,97.5-48.1l-0.4-0.6C283.7,304,281.1,303.2,278.4,302.4z M240.6,296.8
					c-2.6-0.1-5.2-0.2-7.8-0.2C235.5,296.4,238,296.6,240.6,296.8L240.6,296.8z M229.8,296.4L229.8,296.4z M220.8,296.6
					c-1.8,0-3.7,0.1-5.6,0.2C217,296.8,219.1,296.6,220.8,296.6z M211.8,297l-4.9,0.4L211.8,297z M178.7,300.9
					c-2.4,0.4-4.9,0.8-7.3,1.3C173.8,301.8,176.2,301.2,178.7,300.9L178.7,300.9z M203.5,297.6c-1.7,0.1-3.5,0.2-5,0.6
					C200.1,298,201.8,297.9,203.5,297.6L203.5,297.6z M195.2,298.5c-1.8,0.2-3.6,0.4-5.2,0.7C191.6,298.9,193.4,298.8,195.2,298.5
					L195.2,298.5z M186.8,299.6c-1.8,0.2-3.7,0.6-5.6,0.8C183.2,300.2,185.1,299.9,186.8,299.6L186.8,299.6z M168.7,302.8
					c-1.7,0.2-3.1,0.7-4.9,1C165.4,303.3,166.9,303,168.7,302.8L168.7,302.8z M160.7,304.4c-1.7,0.2-3.1,0.7-4.7,1.1
					C157.6,304.9,159.1,304.7,160.7,304.4L160.7,304.4z M153.4,305.9c-1.9,0.4-3.8,1-5.9,1.3C149.5,306.9,151.4,306.4,153.4,305.9
					L153.4,305.9z M128.7,312.3l-0.6,0.1L128.7,312.3L128.7,312.3z M140.6,309.2c-0.4,0.1-1,0.2-1.2,0.4
					C139.9,309.3,140.2,309.2,140.6,309.2z M134.6,310.8l-0.6,0.1L134.6,310.8z M122.9,314.2l-0.6,0.1L122.9,314.2z M93,324.5
					c-0.2,0.1-0.6,0.2-1,0.2C92.3,324.6,92.8,324.6,93,324.5z M111.9,317.8l-0.6,0.1L111.9,317.8z M101.9,321.2
					c-0.2,0.1-0.6,0.1-0.7,0.2C101.5,321.4,101.7,321.4,101.9,321.2z M269.2,300.3c2.6,0.6,5.2,1.1,7.8,1.8
					C274.4,301.4,271.8,300.9,269.2,300.3z M241.6,296.8c2.8,0.1,5.3,0.4,7.9,0.6C246.9,297.2,244.2,296.9,241.6,296.8z
					 M251.4,297.5c2.6,0.2,5.3,0.6,7.9,1C256.7,298.1,254.1,297.9,251.4,297.5L251.4,297.5z M260.6,298.6l7.1,1.2L260.6,298.6z"/>
			</g>
		</g>
		<g id="実">
			<g id="path74-7">
				<path class="st0" d="M86.8,89.5c39.6,30.5-18.7,86.5,38.4,164.6c76.5,104.7,189.9,69.8,196.9,10
					C327.7,215.7,259.6,151.8,86.8,89.5z"/>
			</g>
			<g id="path74-71">
				<path class="st0" d="M478.4,89.5C438.7,120,497.1,176,440,254.1c-76.5,104.6-189.9,69.8-197,10
					C237.4,215.7,305.4,151.8,478.4,89.5z"/>
			</g>
		</g>
	</g>
	<g id="ロゴ本体">
		<g id="g100">
			<ellipse id="circle13" class="st1" cx="284" cy="156.2" rx="144.8" ry="151.5"/>
			<path id="path15" class="st2" d="M282.6,3.9c81.6,0,147.8,69.2,147.8,154.4c0,85.4-66.2,154.5-147.8,154.5
				s-147.8-69.3-147.8-154.4C134.6,72.8,200.8,3.9,282.6,3.9z M281.1,11.8H279c-76.4,1.1-138,66.3-138,146.4s61.9,145.5,138.5,146.5
				c-37.8-0.8-68.3-33.5-68.3-73.2c0-40.6,31.4-73.4,70.1-73.4s70.2-32.8,70.2-73.2C351,44.4,319.7,11.8,281.1,11.8z"/>
			<path id="path17" class="st2" d="M261,97.3V42.6c0-2.3,1-4.7,2.6-6.1c1.6-1.7,3.7-2.6,5.9-2.6h27.2c2.2,0,4.3,1,5.9,2.6
				c1.7,1.7,2.4,4,2.4,6.1v54.7c0,2.3-0.8,4.6-2.4,6.1c-1.7,1.7-3.7,2.6-6,2.6h-27c-2.3,0-4.6-1-6-2.6
				C261.9,101.7,261,99.6,261,97.3z M296.9,96.7l-1.1-54l-26.5,0.6l1.1,54L296.9,96.7z"/>
			<path id="path19" class="st3" d="M271.1,262.4h13.4v-54h-13.2c-1.2,0-2.3-0.4-3.1-1.2c-1.8-1.9-1.8-4.8,0-6.7
				c0.8-0.8,2-1.3,3.1-1.3h22V262h8.8v-19c0-1.2,0.4-2.3,1.2-3.1s2-1.3,3.1-1.3c1.2,0,2.3,0.4,3.1,1.3c0.8,0.8,1.3,2,1.2,3.2v23.5
				c0,1.2-0.4,2.4-1.2,3.2c-0.8,0.8-2,1.3-3.1,1.2h-35.3c-1.2,0-2.3-0.6-3.1-1.2c-0.8-0.8-1.3-2-1.2-3.2c0-1.2,0.4-2.3,1.2-3.1
				S269.9,262.4,271.1,262.4z"/>
		</g>
	</g>
	<g id="文字">
		<g>
			<g>
				<path class="st0" d="M171.1,103.2v14.7h0.3l0.3-0.8l5.8-13.9h6.8l-6.6,13.8l7.2,28.2h-6.8l-4.9-18.4l-0.1-0.9h-0.1l-0.4,0.9
					l-1.8,3.3v14.8h-6.7v-41.9L171.1,103.2L171.1,103.2z"/>
				<path class="st0" d="M205.1,137.5c0.1,4.3-3.2,8-7.6,8.1c-0.3,0-0.6,0-1,0c-3,0.3-6-1.3-7.5-4.1c-0.6-1.3-1-2.7-1-4.1v-15.8
					c0-2.8,1.3-5.3,3.5-7c1.4-0.9,3.2-1.3,4.9-1.3c3-0.3,6,1.3,7.5,4.1c0.6,1.3,1,2.7,1,3.9L205.1,137.5z M198.7,121.7
					c0.1-1-0.1-2-0.9-2.8c-0.4-0.3-0.9-0.4-1.4-0.4c-1,0-1.9,0.6-2,1.6c-0.1,0.4-0.3,1-0.1,1.6v15.7c-0.1,1,0.1,1.9,0.9,2.7
					c0.4,0.3,0.9,0.4,1.3,0.4c1,0.1,1.9-0.6,2-1.6c0.1-0.4,0.3-1,0.1-1.6L198.7,121.7z"/>
			</g>
			<g>
				<path class="st0" d="M216.1,145.1h-6.6v-31.3h6.6v2.7c0.3-0.1,0.6-0.4,0.8-0.6c0.9-0.9,1.9-1.4,2.9-2c0.6-0.3,1.1-0.4,1.8-0.4
					c1.6,0,2.9,0.8,3.8,2c0.8,1.1,1.1,2.7,1.1,4.1v25.6h-6.6v-24.8c0-1.1-0.8-1.3-1.6-1.3c-0.6,0-1.1,0.3-1.6,0.8
					c-0.1,0.3-0.4,0.4-0.6,0.8v24.5L216.1,145.1L216.1,145.1z"/>
			</g>
			<g>
				<path class="st0" d="M241,121.3c0-0.6,0-1.3-0.1-1.9c-0.3-0.6-1-1-1.8-1c-1.1,0-1.6,0.8-1.8,1.8c-0.1,0.4-0.1,1-0.1,1.4v1.4
					h-6.6v-1.3c0-2.2,0.9-4.3,2.7-5.8c1.8-1.6,3.9-2.4,6.3-2.4c2,0,4.1,0.8,5.7,2c1.6,1.3,2.4,3,2.4,5.1v19.1c0,1.9,0.1,3.7,0.4,5.3
					h-6.6c-0.4-0.8-0.6-1.6-0.6-2.4h-0.6c-0.4,0.8-1.1,1.4-1.9,1.9c-1,0.8-2.2,1-3.3,1c-1.3,0-2.4-0.6-3.2-1.4
					c-1.4-1.8-2.2-4.1-2-6.2c-0.1-2.8,0.9-5.6,2.8-7.7c1.4-1.4,3.2-2.8,5.1-3.5c1.8-0.8,2.9-1.3,3.2-1.9L241,121.3z M241,130
					c-2.9,1-4.8,3.9-4.5,7c0,0.6,0.1,1.1,0.3,1.8c0.1,0.8,0.9,1.1,1.4,1.1c1.4,0,2.8-0.8,2.8-1.9v-8L241,130L241,130z"/>
			</g>
			<g>
				<path class="st0" d="M258.5,145.1H252v-31.3h6.6v2.7c0.3-0.1,0.6-0.4,0.8-0.6c0.9-0.9,1.9-1.4,2.9-2c0.6-0.3,1.1-0.4,1.8-0.4
					c1.6,0,2.9,0.8,3.8,2c0.8,1.1,1.1,2.7,1.1,4.1v25.6h-6.6v-24.8c0-1.1-0.8-1.3-1.6-1.3c-0.6,0-1.1,0.3-1.6,0.8
					c-0.1,0.3-0.4,0.4-0.6,0.8v24.5L258.5,145.1L258.5,145.1z"/>
			</g>
		</g>
		<g>
			<path class="st1" d="M371.7,179.2c0,1.9-0.4,2.9-1.8,3.3c-2.3,0.6-4.7,0.8-7,0.6c-0.3-1-0.6-2-1.1-2.9c2.7,0.1,4.9,0,5.7,0
				s1-0.3,1-1v-30.7h-29.4v34.6h-3.2v-37.6h35.7L371.7,179.2L371.7,179.2z M361,177.5v-2.3h-14.6v2.9h-2.8v-14.7h2.8v8.9h5.8v-12.2
				h-10.9v-2.8h25.5v2.8h-11.6v12.2h5.8v-8.9h2.8v14.1H361z M346.9,149.5c1.6,2,2.7,4.2,3.3,6.7l-2.8,1c-0.8-2.4-1.8-4.8-3.2-6.8
				L346.9,149.5z M363.4,150.2c-1.1,2.4-2.4,4.8-3.9,7.1l-2.4-0.9c1.3-2.3,2.4-4.7,3.2-7.1L363.4,150.2z"/>
			<path class="st1" d="M399.1,150.7v4.7h15v24.2c0,1.9-0.4,2.8-1.9,3.3c-2.4,0.6-4.9,0.8-7.5,0.6c-0.3-1-0.8-2-1.1-2.9
				c2.8,0.1,5.3,0.1,6.1,0c0.8-0.1,1-0.3,1-1v-21h-26.9v24.7h-3.2v-28.1h14.8v-4.7h-17.1v-3h17.1v-4.3h3.5v4.3h17.3v3L399.1,150.7z
				 M398.7,174.9v7.6h-3v-7.6h-9.4v-2.8h9.4v-4.3h-8.5V165h12.4c1.1-2,2.2-4.1,3-6.1l2.8,0.8c-1,1.9-1.9,3.8-2.9,5.3h5.2v2.7h-9v4.3
				h9.7v2.8L398.7,174.9z M392,158.9c1.1,1.6,2,3.3,2.8,5.1l-2.7,1c-0.6-1.9-1.6-3.7-2.7-5.2L392,158.9z"/>
		</g>
	</g>
</g>
</svg>
